G04 #@! TF.FileFunction,Soldermask,Top*
%FSLAX46Y46*%
G04 Gerber Fmt 4.6, Leading zero omitted, Abs format (unit mm)*
G04 Created by KiCad (PCBNEW (2015-10-11 BZR 6260)-product) date 2015年11月29日日曜日 02:22:40*
%MOMM*%
G01*
G04 APERTURE LIST*
%ADD10C,0.100000*%
%ADD11R,1.550000X1.550000*%
%ADD12R,1.300000X1.050000*%
%ADD13C,2.000000*%
%ADD14C,1.924000*%
%ADD15R,1.460000X1.050000*%
%ADD16R,1.300000X2.400000*%
%ADD17R,1.300000X1.650000*%
%ADD18R,3.800000X1.600000*%
%ADD19C,3.100000*%
G04 APERTURE END LIST*
D10*
D11*
X128000000Y-93500000D03*
X130000000Y-93500000D03*
X133000000Y-95000000D03*
X133000000Y-97000000D03*
D12*
X155500000Y-99275000D03*
X155500000Y-100725000D03*
X158500000Y-100725000D03*
X158500000Y-99275000D03*
X149500000Y-99275000D03*
X149500000Y-100725000D03*
X151000000Y-100725000D03*
X151000000Y-99275000D03*
X148000000Y-99275000D03*
X148000000Y-100725000D03*
X128500000Y-118775000D03*
X128500000Y-120225000D03*
X137500000Y-118775000D03*
X137500000Y-120225000D03*
X133000000Y-118775000D03*
X133000000Y-120225000D03*
D13*
X132460000Y-91500000D03*
X135000000Y-91500000D03*
X137540000Y-91500000D03*
D14*
X134600000Y-109310000D03*
X134600000Y-106770000D03*
X134600000Y-104230000D03*
X134600000Y-101690000D03*
D15*
X130100000Y-97950000D03*
X130100000Y-97000000D03*
X130100000Y-96050000D03*
X127900000Y-96050000D03*
X127900000Y-97950000D03*
D16*
X158500000Y-103000000D03*
X157000000Y-103000000D03*
X155500000Y-103000000D03*
X154000000Y-103000000D03*
X152500000Y-103000000D03*
X151000000Y-103000000D03*
X149500000Y-103000000D03*
X148000000Y-103000000D03*
X146500000Y-103000000D03*
X146500000Y-121000000D03*
X148000000Y-121000000D03*
X149500000Y-121000000D03*
X151000000Y-121000000D03*
X152500000Y-121000000D03*
X154000000Y-121000000D03*
X155500000Y-121000000D03*
X157000000Y-121000000D03*
X158500000Y-121000000D03*
D14*
X142380000Y-87690000D03*
X142380000Y-90230000D03*
X142380000Y-92770000D03*
X142380000Y-95310000D03*
X157620000Y-95310000D03*
X157620000Y-92770000D03*
X157620000Y-90230000D03*
X157620000Y-87690000D03*
D12*
X125000000Y-96275000D03*
X125000000Y-97725000D03*
D13*
X133000000Y-116270000D03*
X133000000Y-113730000D03*
X137500000Y-116270000D03*
X137500000Y-113730000D03*
X128500000Y-116270000D03*
X128500000Y-113730000D03*
D17*
X142000000Y-102525000D03*
X142000000Y-108475000D03*
X139000000Y-102525000D03*
X139000000Y-108475000D03*
D18*
X162400000Y-95000000D03*
X162400000Y-97000000D03*
D19*
X128000000Y-88000000D03*
X163500000Y-88000000D03*
X163500000Y-123000000D03*
X128000000Y-123000000D03*
M02*
