G04 #@! TF.FileFunction,Copper,L1,Top,Signal*
%FSLAX46Y46*%
G04 Gerber Fmt 4.6, Leading zero omitted, Abs format (unit mm)*
G04 Created by KiCad (PCBNEW 4.0.1-stable) date 2016年01月16日土曜日 22:54:58*
%MOMM*%
G01*
G04 APERTURE LIST*
%ADD10C,0.100000*%
%ADD11R,0.650000X0.900000*%
%ADD12C,1.600000*%
%ADD13R,1.200000X3.400000*%
%ADD14R,1.250000X0.700000*%
%ADD15R,0.400000X1.350000*%
%ADD16R,2.100000X2.000000*%
%ADD17R,1.600000X1.900000*%
%ADD18R,1.200000X1.900000*%
%ADD19C,0.800000*%
%ADD20R,1.150000X1.150000*%
%ADD21C,2.000000*%
%ADD22C,0.600000*%
%ADD23C,0.250000*%
%ADD24C,0.400000*%
%ADD25C,0.500000*%
%ADD26C,0.254000*%
G04 APERTURE END LIST*
D10*
D11*
X142775000Y-94000000D03*
X144225000Y-94000000D03*
X134225000Y-88000000D03*
X132775000Y-88000000D03*
X134225000Y-97000000D03*
X132775000Y-97000000D03*
X134225000Y-89500000D03*
X132775000Y-89500000D03*
X134225000Y-91000000D03*
X132775000Y-91000000D03*
X142775000Y-92500000D03*
X144225000Y-92500000D03*
X142775000Y-86500000D03*
X144225000Y-86500000D03*
D12*
X150000000Y-82000000D03*
X150000000Y-79460000D03*
X150000000Y-84540000D03*
D13*
X152000000Y-97400000D03*
X150000000Y-97400000D03*
D14*
X140375000Y-84000000D03*
X136625000Y-84000000D03*
X140375000Y-82000000D03*
X136625000Y-82000000D03*
D15*
X138500000Y-73175000D03*
X137850000Y-73175000D03*
X137200000Y-73175000D03*
X139150000Y-73175000D03*
X139800000Y-73175000D03*
D16*
X141600000Y-72850000D03*
X135400000Y-72850000D03*
D17*
X142600000Y-70500000D03*
X134400000Y-70500000D03*
D18*
X137650000Y-70500000D03*
X139350000Y-70500000D03*
D19*
X150500000Y-87460000D03*
X150500000Y-88730000D03*
X150500000Y-90000000D03*
X150500000Y-91270000D03*
X150500000Y-92540000D03*
D20*
X139500000Y-93000000D03*
X137500000Y-93000000D03*
X139500000Y-98000000D03*
X137500000Y-98000000D03*
D21*
X126000000Y-103000000D03*
X151000000Y-103000000D03*
X151000000Y-75000000D03*
X126000000Y-75000000D03*
D22*
X138500000Y-84500000D03*
X137200000Y-81000000D03*
X147000000Y-78500000D03*
X138500000Y-78500000D03*
X135500000Y-78500000D03*
X150000000Y-100500000D03*
X145500000Y-98500000D03*
X131500000Y-86500000D03*
X129600000Y-79850000D03*
X143800000Y-72900000D03*
X133300000Y-72900000D03*
X133500000Y-98500000D03*
X135400000Y-83500000D03*
X145500000Y-94000000D03*
X134500000Y-85750000D03*
X131500000Y-88000000D03*
X145500000Y-86500000D03*
X131500000Y-97000000D03*
X131500000Y-89500000D03*
X131500000Y-91000000D03*
X145500000Y-92500000D03*
X145750000Y-78500000D03*
X141500000Y-87000000D03*
X141500000Y-89000000D03*
D23*
X146000000Y-72500000D02*
X145500000Y-72500000D01*
X137500000Y-93000000D02*
X137500000Y-85500000D01*
X137500000Y-85500000D02*
X138500000Y-84500000D01*
D24*
X137200000Y-73175000D02*
X137200000Y-74750000D01*
X137200000Y-74750000D02*
X137200000Y-81000000D01*
X150000000Y-97400000D02*
X150000000Y-100500000D01*
D25*
X141600000Y-72850000D02*
X143750000Y-72850000D01*
X143750000Y-72850000D02*
X143800000Y-72900000D01*
X135400000Y-72850000D02*
X133350000Y-72850000D01*
X133350000Y-72850000D02*
X133300000Y-72900000D01*
D23*
X139800000Y-73175000D02*
X141275000Y-73175000D01*
X141275000Y-73175000D02*
X141600000Y-72850000D01*
D24*
X150000000Y-84540000D02*
X150040000Y-84540000D01*
X150040000Y-84540000D02*
X152250000Y-86750000D01*
X152000000Y-95250000D02*
X152000000Y-97400000D01*
X152250000Y-95000000D02*
X152000000Y-95250000D01*
X152250000Y-86750000D02*
X152250000Y-95000000D01*
D23*
X137500000Y-98000000D02*
X137500000Y-98500000D01*
X137500000Y-98500000D02*
X138000000Y-99000000D01*
X142775000Y-98225000D02*
X142775000Y-94000000D01*
X142000000Y-99000000D02*
X142775000Y-98225000D01*
X138000000Y-99000000D02*
X142000000Y-99000000D01*
X135500000Y-97000000D02*
X136500000Y-97000000D01*
X136500000Y-97000000D02*
X137500000Y-98000000D01*
X134225000Y-97775000D02*
X134225000Y-97000000D01*
X133500000Y-98500000D02*
X134225000Y-97775000D01*
X134900000Y-88000000D02*
X134225000Y-88000000D01*
X135400000Y-87500000D02*
X134900000Y-88000000D01*
X135400000Y-83500000D02*
X135400000Y-87500000D01*
X137500000Y-98000000D02*
X137500000Y-98250000D01*
X134225000Y-89500000D02*
X135000000Y-89500000D01*
X135500000Y-90000000D02*
X135500000Y-97000000D01*
X135000000Y-89500000D02*
X135500000Y-90000000D01*
X134225000Y-97000000D02*
X135500000Y-97000000D01*
X142775000Y-92500000D02*
X142775000Y-94000000D01*
X134225000Y-88000000D02*
X134225000Y-89500000D01*
X137000000Y-97500000D02*
X137500000Y-98000000D01*
X144225000Y-94000000D02*
X145500000Y-94000000D01*
X132775000Y-88000000D02*
X132775000Y-87475000D01*
X134500000Y-86750000D02*
X134500000Y-85750000D01*
X134250000Y-87000000D02*
X134500000Y-86750000D01*
X133250000Y-87000000D02*
X134250000Y-87000000D01*
X132775000Y-87475000D02*
X133250000Y-87000000D01*
X132775000Y-88000000D02*
X131500000Y-88000000D01*
X145500000Y-86500000D02*
X144225000Y-86500000D01*
X131500000Y-97000000D02*
X132775000Y-97000000D01*
X131500000Y-89500000D02*
X132775000Y-89500000D01*
X132775000Y-91000000D02*
X131500000Y-91000000D01*
X140375000Y-84000000D02*
X140375000Y-87375000D01*
X144225000Y-88725000D02*
X144225000Y-92500000D01*
X143500000Y-88000000D02*
X144225000Y-88725000D01*
X141000000Y-88000000D02*
X143500000Y-88000000D01*
X140375000Y-87375000D02*
X141000000Y-88000000D01*
X145500000Y-92500000D02*
X144225000Y-92500000D01*
X139500000Y-93000000D02*
X139450002Y-93000000D01*
X139450002Y-93000000D02*
X138000000Y-91549998D01*
X138000000Y-91549998D02*
X138000000Y-86000000D01*
X138000000Y-86000000D02*
X139250000Y-84750000D01*
X139250000Y-84750000D02*
X139250000Y-83250000D01*
X139250000Y-83250000D02*
X139500000Y-83000000D01*
X139500000Y-83000000D02*
X145250000Y-83000000D01*
X145250000Y-83000000D02*
X145750000Y-82500000D01*
X145750000Y-82500000D02*
X145750000Y-78500000D01*
X139500000Y-98000000D02*
X141000000Y-98000000D01*
X142000000Y-86500000D02*
X142775000Y-86500000D01*
X141500000Y-87000000D02*
X142000000Y-86500000D01*
X141500000Y-97500000D02*
X141500000Y-89000000D01*
X141000000Y-98000000D02*
X141500000Y-97500000D01*
D26*
G36*
X132965000Y-70214250D02*
X133123750Y-70373000D01*
X134273000Y-70373000D01*
X134273000Y-70353000D01*
X134527000Y-70353000D01*
X134527000Y-70373000D01*
X134547000Y-70373000D01*
X134547000Y-70627000D01*
X134527000Y-70627000D01*
X134527000Y-70647000D01*
X134273000Y-70647000D01*
X134273000Y-70627000D01*
X133123750Y-70627000D01*
X132965000Y-70785750D01*
X132965000Y-71576310D01*
X133061673Y-71809699D01*
X133240302Y-71988327D01*
X133473691Y-72085000D01*
X133715000Y-72085000D01*
X133715000Y-72564250D01*
X133873750Y-72723000D01*
X135273000Y-72723000D01*
X135273000Y-72703000D01*
X135527000Y-72703000D01*
X135527000Y-72723000D01*
X135547000Y-72723000D01*
X135547000Y-72977000D01*
X135527000Y-72977000D01*
X135527000Y-74326250D01*
X135685750Y-74485000D01*
X136365000Y-74485000D01*
X136365000Y-80572766D01*
X136265162Y-80813201D01*
X136264986Y-81015000D01*
X135873691Y-81015000D01*
X135640302Y-81111673D01*
X135461673Y-81290301D01*
X135365000Y-81523690D01*
X135365000Y-81714250D01*
X135523750Y-81873000D01*
X136498000Y-81873000D01*
X136498000Y-81853000D01*
X136752000Y-81853000D01*
X136752000Y-81873000D01*
X136864279Y-81873000D01*
X137013201Y-81934838D01*
X137385167Y-81935162D01*
X137535611Y-81873000D01*
X137726250Y-81873000D01*
X137885000Y-81714250D01*
X137885000Y-81637332D01*
X137992192Y-81530327D01*
X137994947Y-81523690D01*
X139115000Y-81523690D01*
X139115000Y-81714250D01*
X139273750Y-81873000D01*
X140248000Y-81873000D01*
X140248000Y-81173750D01*
X140502000Y-81173750D01*
X140502000Y-81873000D01*
X141476250Y-81873000D01*
X141635000Y-81714250D01*
X141635000Y-81523690D01*
X141538327Y-81290301D01*
X141359698Y-81111673D01*
X141126309Y-81015000D01*
X140660750Y-81015000D01*
X140502000Y-81173750D01*
X140248000Y-81173750D01*
X140089250Y-81015000D01*
X139623691Y-81015000D01*
X139390302Y-81111673D01*
X139211673Y-81290301D01*
X139115000Y-81523690D01*
X137994947Y-81523690D01*
X138134838Y-81186799D01*
X138135162Y-80814833D01*
X138035000Y-80572422D01*
X138035000Y-74497440D01*
X138050000Y-74497440D01*
X138179589Y-74473056D01*
X138300000Y-74497440D01*
X138700000Y-74497440D01*
X138829589Y-74473056D01*
X138950000Y-74497440D01*
X139350000Y-74497440D01*
X139455705Y-74477550D01*
X139473691Y-74485000D01*
X139541250Y-74485000D01*
X139570254Y-74455996D01*
X139585317Y-74453162D01*
X139801441Y-74314090D01*
X139900000Y-74169844D01*
X139900000Y-74326250D01*
X140058750Y-74485000D01*
X140126309Y-74485000D01*
X140275000Y-74423410D01*
X140423691Y-74485000D01*
X141314250Y-74485000D01*
X141473000Y-74326250D01*
X141473000Y-72977000D01*
X141727000Y-72977000D01*
X141727000Y-74326250D01*
X141885750Y-74485000D01*
X142776309Y-74485000D01*
X143009698Y-74388327D01*
X143188327Y-74209699D01*
X143285000Y-73976310D01*
X143285000Y-73135750D01*
X143126250Y-72977000D01*
X141727000Y-72977000D01*
X141473000Y-72977000D01*
X141453000Y-72977000D01*
X141453000Y-72723000D01*
X141473000Y-72723000D01*
X141473000Y-72703000D01*
X141727000Y-72703000D01*
X141727000Y-72723000D01*
X143126250Y-72723000D01*
X143285000Y-72564250D01*
X143285000Y-72500000D01*
X144740000Y-72500000D01*
X144797852Y-72790839D01*
X144962599Y-73037401D01*
X145209161Y-73202148D01*
X145500000Y-73260000D01*
X146000000Y-73260000D01*
X146290839Y-73202148D01*
X146537401Y-73037401D01*
X146702148Y-72790839D01*
X146760000Y-72500000D01*
X146702148Y-72209161D01*
X146537401Y-71962599D01*
X146290839Y-71797852D01*
X146000000Y-71740000D01*
X145500000Y-71740000D01*
X145209161Y-71797852D01*
X144962599Y-71962599D01*
X144797852Y-72209161D01*
X144740000Y-72500000D01*
X143285000Y-72500000D01*
X143285000Y-72085000D01*
X143526309Y-72085000D01*
X143759698Y-71988327D01*
X143938327Y-71809699D01*
X144035000Y-71576310D01*
X144035000Y-70785750D01*
X143876250Y-70627000D01*
X142727000Y-70627000D01*
X142727000Y-70647000D01*
X142473000Y-70647000D01*
X142473000Y-70627000D01*
X142453000Y-70627000D01*
X142453000Y-70373000D01*
X142473000Y-70373000D01*
X142473000Y-70353000D01*
X142727000Y-70353000D01*
X142727000Y-70373000D01*
X143876250Y-70373000D01*
X144035000Y-70214250D01*
X144035000Y-69710000D01*
X147430070Y-69710000D01*
X147605655Y-69744926D01*
X147695225Y-69804774D01*
X147755074Y-69894345D01*
X147790000Y-70069930D01*
X147790000Y-71500000D01*
X147803643Y-71568587D01*
X147803643Y-71638515D01*
X147917824Y-72212540D01*
X147955560Y-72303642D01*
X148023838Y-72468480D01*
X148348997Y-72955115D01*
X148373000Y-72979118D01*
X148373000Y-73000000D01*
X148383006Y-73049410D01*
X148411447Y-73091035D01*
X148453841Y-73118315D01*
X148500000Y-73127000D01*
X148520882Y-73127000D01*
X148544885Y-73151003D01*
X149031520Y-73476163D01*
X149212498Y-73551125D01*
X149287460Y-73582176D01*
X149861486Y-73696357D01*
X149931413Y-73696357D01*
X149981650Y-73706350D01*
X149614722Y-74072637D01*
X149365284Y-74673352D01*
X149364716Y-75323795D01*
X149613106Y-75924943D01*
X150072637Y-76385278D01*
X150673352Y-76634716D01*
X151323795Y-76635284D01*
X151924943Y-76386894D01*
X152290000Y-76022475D01*
X152290000Y-85609132D01*
X151434813Y-84753945D01*
X151435248Y-84255813D01*
X151217243Y-83728200D01*
X150813923Y-83324176D01*
X150683785Y-83270138D01*
X150811800Y-83217243D01*
X151215824Y-82813923D01*
X151434750Y-82286691D01*
X151435248Y-81715813D01*
X151217243Y-81188200D01*
X150813923Y-80784176D01*
X150683785Y-80730138D01*
X150811800Y-80677243D01*
X151215824Y-80273923D01*
X151434750Y-79746691D01*
X151435248Y-79175813D01*
X151217243Y-78648200D01*
X150813923Y-78244176D01*
X150286691Y-78025250D01*
X149715813Y-78024752D01*
X149188200Y-78242757D01*
X148784176Y-78646077D01*
X148565250Y-79173309D01*
X148564752Y-79744187D01*
X148782757Y-80271800D01*
X149186077Y-80675824D01*
X149316215Y-80729862D01*
X149188200Y-80782757D01*
X148784176Y-81186077D01*
X148565250Y-81713309D01*
X148564752Y-82284187D01*
X148782757Y-82811800D01*
X149186077Y-83215824D01*
X149316215Y-83269862D01*
X149188200Y-83322757D01*
X148784176Y-83726077D01*
X148565250Y-84253309D01*
X148564752Y-84824187D01*
X148782757Y-85351800D01*
X149186077Y-85755824D01*
X149713309Y-85974750D01*
X150284187Y-85975248D01*
X150291400Y-85972268D01*
X150770965Y-86451833D01*
X150706777Y-86425180D01*
X150295029Y-86424821D01*
X149914485Y-86582058D01*
X149623081Y-86872954D01*
X149465180Y-87253223D01*
X149464821Y-87664971D01*
X149622058Y-88045515D01*
X149671288Y-88094831D01*
X149623081Y-88142954D01*
X149465180Y-88523223D01*
X149464821Y-88934971D01*
X149622058Y-89315515D01*
X149671288Y-89364831D01*
X149623081Y-89412954D01*
X149465180Y-89793223D01*
X149464821Y-90204971D01*
X149622058Y-90585515D01*
X149671288Y-90634831D01*
X149623081Y-90682954D01*
X149465180Y-91063223D01*
X149464821Y-91474971D01*
X149622058Y-91855515D01*
X149770059Y-92003775D01*
X149577820Y-92026977D01*
X149451691Y-92418931D01*
X149485158Y-92829318D01*
X149577820Y-93053023D01*
X149782650Y-93077745D01*
X150320395Y-92540000D01*
X150306253Y-92525858D01*
X150485858Y-92346253D01*
X150500000Y-92360395D01*
X150514143Y-92346253D01*
X150693748Y-92525858D01*
X150679605Y-92540000D01*
X151217350Y-93077745D01*
X151415000Y-93053890D01*
X151415000Y-94654132D01*
X151409566Y-94659566D01*
X151228561Y-94930459D01*
X151196663Y-95090821D01*
X151164683Y-95096838D01*
X151000507Y-95202482D01*
X150959698Y-95161673D01*
X150726309Y-95065000D01*
X150285750Y-95065000D01*
X150127000Y-95223750D01*
X150127000Y-97273000D01*
X150147000Y-97273000D01*
X150147000Y-97527000D01*
X150127000Y-97527000D01*
X150127000Y-99576250D01*
X150285750Y-99735000D01*
X150726309Y-99735000D01*
X150959698Y-99638327D01*
X151001660Y-99596366D01*
X151148110Y-99696431D01*
X151400000Y-99747440D01*
X152290000Y-99747440D01*
X152290000Y-101977993D01*
X151927363Y-101614722D01*
X151326648Y-101365284D01*
X150676205Y-101364716D01*
X150075057Y-101613106D01*
X149614722Y-102072637D01*
X149365284Y-102673352D01*
X149364716Y-103323795D01*
X149613106Y-103924943D01*
X149977525Y-104290000D01*
X148127000Y-104290000D01*
X148127000Y-99500000D01*
X148118315Y-99453841D01*
X148091035Y-99411447D01*
X148049410Y-99383006D01*
X148000000Y-99373000D01*
X142701802Y-99373000D01*
X143312401Y-98762401D01*
X143477148Y-98515839D01*
X143535000Y-98225000D01*
X143535000Y-97685750D01*
X148765000Y-97685750D01*
X148765000Y-99226310D01*
X148861673Y-99459699D01*
X149040302Y-99638327D01*
X149273691Y-99735000D01*
X149714250Y-99735000D01*
X149873000Y-99576250D01*
X149873000Y-97527000D01*
X148923750Y-97527000D01*
X148765000Y-97685750D01*
X143535000Y-97685750D01*
X143535000Y-95573690D01*
X148765000Y-95573690D01*
X148765000Y-97114250D01*
X148923750Y-97273000D01*
X149873000Y-97273000D01*
X149873000Y-95223750D01*
X149714250Y-95065000D01*
X149273691Y-95065000D01*
X149040302Y-95161673D01*
X148861673Y-95340301D01*
X148765000Y-95573690D01*
X143535000Y-95573690D01*
X143535000Y-94969146D01*
X143648110Y-95046431D01*
X143900000Y-95097440D01*
X144550000Y-95097440D01*
X144785317Y-95053162D01*
X145001441Y-94914090D01*
X145059301Y-94829409D01*
X145313201Y-94934838D01*
X145685167Y-94935162D01*
X146028943Y-94793117D01*
X146292192Y-94530327D01*
X146434838Y-94186799D01*
X146435162Y-93814833D01*
X146293117Y-93471057D01*
X146079783Y-93257350D01*
X149962255Y-93257350D01*
X149986977Y-93462180D01*
X150378931Y-93588309D01*
X150789318Y-93554842D01*
X151013023Y-93462180D01*
X151037745Y-93257350D01*
X150500000Y-92719605D01*
X149962255Y-93257350D01*
X146079783Y-93257350D01*
X146072291Y-93249845D01*
X146292192Y-93030327D01*
X146434838Y-92686799D01*
X146435162Y-92314833D01*
X146293117Y-91971057D01*
X146030327Y-91707808D01*
X145686799Y-91565162D01*
X145314833Y-91564838D01*
X145060116Y-91670085D01*
X145014090Y-91598559D01*
X144985000Y-91578683D01*
X144985000Y-88725000D01*
X144927148Y-88434161D01*
X144762401Y-88187599D01*
X144172242Y-87597440D01*
X144550000Y-87597440D01*
X144785317Y-87553162D01*
X145001441Y-87414090D01*
X145059301Y-87329409D01*
X145313201Y-87434838D01*
X145685167Y-87435162D01*
X146028943Y-87293117D01*
X146292192Y-87030327D01*
X146434838Y-86686799D01*
X146435162Y-86314833D01*
X146293117Y-85971057D01*
X146030327Y-85707808D01*
X145686799Y-85565162D01*
X145314833Y-85564838D01*
X145060116Y-85670085D01*
X145014090Y-85598559D01*
X144801890Y-85453569D01*
X144550000Y-85402560D01*
X143900000Y-85402560D01*
X143664683Y-85446838D01*
X143498523Y-85553759D01*
X143351890Y-85453569D01*
X143100000Y-85402560D01*
X142450000Y-85402560D01*
X142214683Y-85446838D01*
X141998559Y-85585910D01*
X141876487Y-85764569D01*
X141709161Y-85797852D01*
X141462599Y-85962599D01*
X141360320Y-86064878D01*
X141314833Y-86064838D01*
X141135000Y-86139143D01*
X141135000Y-84972038D01*
X141235317Y-84953162D01*
X141451441Y-84814090D01*
X141596431Y-84601890D01*
X141647440Y-84350000D01*
X141647440Y-83760000D01*
X145250000Y-83760000D01*
X145540839Y-83702148D01*
X145787401Y-83537401D01*
X146287401Y-83037401D01*
X146452148Y-82790839D01*
X146510000Y-82500000D01*
X146510000Y-79062463D01*
X146542192Y-79030327D01*
X146684838Y-78686799D01*
X146685162Y-78314833D01*
X146543117Y-77971057D01*
X146280327Y-77707808D01*
X145936799Y-77565162D01*
X145564833Y-77564838D01*
X145221057Y-77706883D01*
X144957808Y-77969673D01*
X144815162Y-78313201D01*
X144814838Y-78685167D01*
X144956883Y-79028943D01*
X144990000Y-79062118D01*
X144990000Y-82185198D01*
X144935198Y-82240000D01*
X141589250Y-82240000D01*
X141476250Y-82127000D01*
X140502000Y-82127000D01*
X140502000Y-82147000D01*
X140248000Y-82147000D01*
X140248000Y-82127000D01*
X139273750Y-82127000D01*
X139115000Y-82285750D01*
X139115000Y-82360768D01*
X138962599Y-82462599D01*
X138712599Y-82712599D01*
X138547852Y-82959161D01*
X138490000Y-83250000D01*
X138490000Y-83564991D01*
X138314833Y-83564838D01*
X137971057Y-83706883D01*
X137897440Y-83780372D01*
X137897440Y-83650000D01*
X137853162Y-83414683D01*
X137714090Y-83198559D01*
X137501890Y-83053569D01*
X137250000Y-83002560D01*
X136206134Y-83002560D01*
X136198878Y-82985000D01*
X136339250Y-82985000D01*
X136498000Y-82826250D01*
X136498000Y-82127000D01*
X136752000Y-82127000D01*
X136752000Y-82826250D01*
X136910750Y-82985000D01*
X137376309Y-82985000D01*
X137609698Y-82888327D01*
X137788327Y-82709699D01*
X137885000Y-82476310D01*
X137885000Y-82285750D01*
X137726250Y-82127000D01*
X136752000Y-82127000D01*
X136498000Y-82127000D01*
X135523750Y-82127000D01*
X135365000Y-82285750D01*
X135365000Y-82476310D01*
X135401737Y-82565001D01*
X135214833Y-82564838D01*
X134871057Y-82706883D01*
X134607808Y-82969673D01*
X134465162Y-83313201D01*
X134464838Y-83685167D01*
X134606883Y-84028943D01*
X134640000Y-84062118D01*
X134640000Y-84815121D01*
X134314833Y-84814838D01*
X133971057Y-84956883D01*
X133707808Y-85219673D01*
X133565162Y-85563201D01*
X133564838Y-85935167D01*
X133690792Y-86240000D01*
X133250000Y-86240000D01*
X133007414Y-86288254D01*
X132959160Y-86297852D01*
X132712599Y-86462599D01*
X132237599Y-86937599D01*
X132233833Y-86943235D01*
X132214683Y-86946838D01*
X131998559Y-87085910D01*
X131940699Y-87170591D01*
X131686799Y-87065162D01*
X131314833Y-87064838D01*
X130971057Y-87206883D01*
X130707808Y-87469673D01*
X130565162Y-87813201D01*
X130564838Y-88185167D01*
X130706883Y-88528943D01*
X130927709Y-88750155D01*
X130707808Y-88969673D01*
X130565162Y-89313201D01*
X130564838Y-89685167D01*
X130706883Y-90028943D01*
X130927709Y-90250155D01*
X130707808Y-90469673D01*
X130565162Y-90813201D01*
X130564838Y-91185167D01*
X130706883Y-91528943D01*
X130969673Y-91792192D01*
X131313201Y-91934838D01*
X131685167Y-91935162D01*
X131939884Y-91829915D01*
X131985910Y-91901441D01*
X132198110Y-92046431D01*
X132450000Y-92097440D01*
X133100000Y-92097440D01*
X133335317Y-92053162D01*
X133499493Y-91947518D01*
X133540302Y-91988327D01*
X133773691Y-92085000D01*
X133939250Y-92085000D01*
X134098000Y-91926250D01*
X134098000Y-91127000D01*
X134078000Y-91127000D01*
X134078000Y-90873000D01*
X134098000Y-90873000D01*
X134098000Y-90853000D01*
X134352000Y-90853000D01*
X134352000Y-90873000D01*
X134372000Y-90873000D01*
X134372000Y-91127000D01*
X134352000Y-91127000D01*
X134352000Y-91926250D01*
X134510750Y-92085000D01*
X134676309Y-92085000D01*
X134740000Y-92058618D01*
X134740000Y-95941036D01*
X134550000Y-95902560D01*
X133900000Y-95902560D01*
X133664683Y-95946838D01*
X133498523Y-96053759D01*
X133351890Y-95953569D01*
X133100000Y-95902560D01*
X132450000Y-95902560D01*
X132214683Y-95946838D01*
X131998559Y-96085910D01*
X131940699Y-96170591D01*
X131686799Y-96065162D01*
X131314833Y-96064838D01*
X130971057Y-96206883D01*
X130707808Y-96469673D01*
X130565162Y-96813201D01*
X130564838Y-97185167D01*
X130706883Y-97528943D01*
X130969673Y-97792192D01*
X131313201Y-97934838D01*
X131685167Y-97935162D01*
X131939884Y-97829915D01*
X131985910Y-97901441D01*
X132198110Y-98046431D01*
X132450000Y-98097440D01*
X132654754Y-98097440D01*
X132565162Y-98313201D01*
X132564838Y-98685167D01*
X132706883Y-99028943D01*
X132969673Y-99292192D01*
X133164279Y-99373000D01*
X129000000Y-99373000D01*
X128953841Y-99381685D01*
X128911447Y-99408965D01*
X128883006Y-99450590D01*
X128873000Y-99500000D01*
X128873000Y-104290000D01*
X127022007Y-104290000D01*
X127385278Y-103927363D01*
X127634716Y-103326648D01*
X127635284Y-102676205D01*
X127386894Y-102075057D01*
X126927363Y-101614722D01*
X126326648Y-101365284D01*
X125676205Y-101364716D01*
X125075057Y-101613106D01*
X124710000Y-101977525D01*
X124710000Y-76022007D01*
X125072637Y-76385278D01*
X125673352Y-76634716D01*
X126323795Y-76635284D01*
X126924943Y-76386894D01*
X127385278Y-75927363D01*
X127634716Y-75326648D01*
X127635284Y-74676205D01*
X127386894Y-74075057D01*
X127018751Y-73706270D01*
X127068587Y-73696357D01*
X127138515Y-73696357D01*
X127712540Y-73582176D01*
X127968480Y-73476162D01*
X128455115Y-73151003D01*
X128470368Y-73135750D01*
X133715000Y-73135750D01*
X133715000Y-73976310D01*
X133811673Y-74209699D01*
X133990302Y-74388327D01*
X134223691Y-74485000D01*
X135114250Y-74485000D01*
X135273000Y-74326250D01*
X135273000Y-72977000D01*
X133873750Y-72977000D01*
X133715000Y-73135750D01*
X128470368Y-73135750D01*
X128479118Y-73127000D01*
X128500000Y-73127000D01*
X128549410Y-73116994D01*
X128591035Y-73088553D01*
X128618315Y-73046159D01*
X128627000Y-73000000D01*
X128627000Y-72979118D01*
X128651003Y-72955115D01*
X128976163Y-72468480D01*
X129051125Y-72287502D01*
X129082176Y-72212540D01*
X129196357Y-71638514D01*
X129196357Y-71568587D01*
X129210000Y-71500000D01*
X129210000Y-70069930D01*
X129244926Y-69894345D01*
X129304774Y-69804775D01*
X129394345Y-69744926D01*
X129569930Y-69710000D01*
X132965000Y-69710000D01*
X132965000Y-70214250D01*
X132965000Y-70214250D01*
G37*
X132965000Y-70214250D02*
X133123750Y-70373000D01*
X134273000Y-70373000D01*
X134273000Y-70353000D01*
X134527000Y-70353000D01*
X134527000Y-70373000D01*
X134547000Y-70373000D01*
X134547000Y-70627000D01*
X134527000Y-70627000D01*
X134527000Y-70647000D01*
X134273000Y-70647000D01*
X134273000Y-70627000D01*
X133123750Y-70627000D01*
X132965000Y-70785750D01*
X132965000Y-71576310D01*
X133061673Y-71809699D01*
X133240302Y-71988327D01*
X133473691Y-72085000D01*
X133715000Y-72085000D01*
X133715000Y-72564250D01*
X133873750Y-72723000D01*
X135273000Y-72723000D01*
X135273000Y-72703000D01*
X135527000Y-72703000D01*
X135527000Y-72723000D01*
X135547000Y-72723000D01*
X135547000Y-72977000D01*
X135527000Y-72977000D01*
X135527000Y-74326250D01*
X135685750Y-74485000D01*
X136365000Y-74485000D01*
X136365000Y-80572766D01*
X136265162Y-80813201D01*
X136264986Y-81015000D01*
X135873691Y-81015000D01*
X135640302Y-81111673D01*
X135461673Y-81290301D01*
X135365000Y-81523690D01*
X135365000Y-81714250D01*
X135523750Y-81873000D01*
X136498000Y-81873000D01*
X136498000Y-81853000D01*
X136752000Y-81853000D01*
X136752000Y-81873000D01*
X136864279Y-81873000D01*
X137013201Y-81934838D01*
X137385167Y-81935162D01*
X137535611Y-81873000D01*
X137726250Y-81873000D01*
X137885000Y-81714250D01*
X137885000Y-81637332D01*
X137992192Y-81530327D01*
X137994947Y-81523690D01*
X139115000Y-81523690D01*
X139115000Y-81714250D01*
X139273750Y-81873000D01*
X140248000Y-81873000D01*
X140248000Y-81173750D01*
X140502000Y-81173750D01*
X140502000Y-81873000D01*
X141476250Y-81873000D01*
X141635000Y-81714250D01*
X141635000Y-81523690D01*
X141538327Y-81290301D01*
X141359698Y-81111673D01*
X141126309Y-81015000D01*
X140660750Y-81015000D01*
X140502000Y-81173750D01*
X140248000Y-81173750D01*
X140089250Y-81015000D01*
X139623691Y-81015000D01*
X139390302Y-81111673D01*
X139211673Y-81290301D01*
X139115000Y-81523690D01*
X137994947Y-81523690D01*
X138134838Y-81186799D01*
X138135162Y-80814833D01*
X138035000Y-80572422D01*
X138035000Y-74497440D01*
X138050000Y-74497440D01*
X138179589Y-74473056D01*
X138300000Y-74497440D01*
X138700000Y-74497440D01*
X138829589Y-74473056D01*
X138950000Y-74497440D01*
X139350000Y-74497440D01*
X139455705Y-74477550D01*
X139473691Y-74485000D01*
X139541250Y-74485000D01*
X139570254Y-74455996D01*
X139585317Y-74453162D01*
X139801441Y-74314090D01*
X139900000Y-74169844D01*
X139900000Y-74326250D01*
X140058750Y-74485000D01*
X140126309Y-74485000D01*
X140275000Y-74423410D01*
X140423691Y-74485000D01*
X141314250Y-74485000D01*
X141473000Y-74326250D01*
X141473000Y-72977000D01*
X141727000Y-72977000D01*
X141727000Y-74326250D01*
X141885750Y-74485000D01*
X142776309Y-74485000D01*
X143009698Y-74388327D01*
X143188327Y-74209699D01*
X143285000Y-73976310D01*
X143285000Y-73135750D01*
X143126250Y-72977000D01*
X141727000Y-72977000D01*
X141473000Y-72977000D01*
X141453000Y-72977000D01*
X141453000Y-72723000D01*
X141473000Y-72723000D01*
X141473000Y-72703000D01*
X141727000Y-72703000D01*
X141727000Y-72723000D01*
X143126250Y-72723000D01*
X143285000Y-72564250D01*
X143285000Y-72500000D01*
X144740000Y-72500000D01*
X144797852Y-72790839D01*
X144962599Y-73037401D01*
X145209161Y-73202148D01*
X145500000Y-73260000D01*
X146000000Y-73260000D01*
X146290839Y-73202148D01*
X146537401Y-73037401D01*
X146702148Y-72790839D01*
X146760000Y-72500000D01*
X146702148Y-72209161D01*
X146537401Y-71962599D01*
X146290839Y-71797852D01*
X146000000Y-71740000D01*
X145500000Y-71740000D01*
X145209161Y-71797852D01*
X144962599Y-71962599D01*
X144797852Y-72209161D01*
X144740000Y-72500000D01*
X143285000Y-72500000D01*
X143285000Y-72085000D01*
X143526309Y-72085000D01*
X143759698Y-71988327D01*
X143938327Y-71809699D01*
X144035000Y-71576310D01*
X144035000Y-70785750D01*
X143876250Y-70627000D01*
X142727000Y-70627000D01*
X142727000Y-70647000D01*
X142473000Y-70647000D01*
X142473000Y-70627000D01*
X142453000Y-70627000D01*
X142453000Y-70373000D01*
X142473000Y-70373000D01*
X142473000Y-70353000D01*
X142727000Y-70353000D01*
X142727000Y-70373000D01*
X143876250Y-70373000D01*
X144035000Y-70214250D01*
X144035000Y-69710000D01*
X147430070Y-69710000D01*
X147605655Y-69744926D01*
X147695225Y-69804774D01*
X147755074Y-69894345D01*
X147790000Y-70069930D01*
X147790000Y-71500000D01*
X147803643Y-71568587D01*
X147803643Y-71638515D01*
X147917824Y-72212540D01*
X147955560Y-72303642D01*
X148023838Y-72468480D01*
X148348997Y-72955115D01*
X148373000Y-72979118D01*
X148373000Y-73000000D01*
X148383006Y-73049410D01*
X148411447Y-73091035D01*
X148453841Y-73118315D01*
X148500000Y-73127000D01*
X148520882Y-73127000D01*
X148544885Y-73151003D01*
X149031520Y-73476163D01*
X149212498Y-73551125D01*
X149287460Y-73582176D01*
X149861486Y-73696357D01*
X149931413Y-73696357D01*
X149981650Y-73706350D01*
X149614722Y-74072637D01*
X149365284Y-74673352D01*
X149364716Y-75323795D01*
X149613106Y-75924943D01*
X150072637Y-76385278D01*
X150673352Y-76634716D01*
X151323795Y-76635284D01*
X151924943Y-76386894D01*
X152290000Y-76022475D01*
X152290000Y-85609132D01*
X151434813Y-84753945D01*
X151435248Y-84255813D01*
X151217243Y-83728200D01*
X150813923Y-83324176D01*
X150683785Y-83270138D01*
X150811800Y-83217243D01*
X151215824Y-82813923D01*
X151434750Y-82286691D01*
X151435248Y-81715813D01*
X151217243Y-81188200D01*
X150813923Y-80784176D01*
X150683785Y-80730138D01*
X150811800Y-80677243D01*
X151215824Y-80273923D01*
X151434750Y-79746691D01*
X151435248Y-79175813D01*
X151217243Y-78648200D01*
X150813923Y-78244176D01*
X150286691Y-78025250D01*
X149715813Y-78024752D01*
X149188200Y-78242757D01*
X148784176Y-78646077D01*
X148565250Y-79173309D01*
X148564752Y-79744187D01*
X148782757Y-80271800D01*
X149186077Y-80675824D01*
X149316215Y-80729862D01*
X149188200Y-80782757D01*
X148784176Y-81186077D01*
X148565250Y-81713309D01*
X148564752Y-82284187D01*
X148782757Y-82811800D01*
X149186077Y-83215824D01*
X149316215Y-83269862D01*
X149188200Y-83322757D01*
X148784176Y-83726077D01*
X148565250Y-84253309D01*
X148564752Y-84824187D01*
X148782757Y-85351800D01*
X149186077Y-85755824D01*
X149713309Y-85974750D01*
X150284187Y-85975248D01*
X150291400Y-85972268D01*
X150770965Y-86451833D01*
X150706777Y-86425180D01*
X150295029Y-86424821D01*
X149914485Y-86582058D01*
X149623081Y-86872954D01*
X149465180Y-87253223D01*
X149464821Y-87664971D01*
X149622058Y-88045515D01*
X149671288Y-88094831D01*
X149623081Y-88142954D01*
X149465180Y-88523223D01*
X149464821Y-88934971D01*
X149622058Y-89315515D01*
X149671288Y-89364831D01*
X149623081Y-89412954D01*
X149465180Y-89793223D01*
X149464821Y-90204971D01*
X149622058Y-90585515D01*
X149671288Y-90634831D01*
X149623081Y-90682954D01*
X149465180Y-91063223D01*
X149464821Y-91474971D01*
X149622058Y-91855515D01*
X149770059Y-92003775D01*
X149577820Y-92026977D01*
X149451691Y-92418931D01*
X149485158Y-92829318D01*
X149577820Y-93053023D01*
X149782650Y-93077745D01*
X150320395Y-92540000D01*
X150306253Y-92525858D01*
X150485858Y-92346253D01*
X150500000Y-92360395D01*
X150514143Y-92346253D01*
X150693748Y-92525858D01*
X150679605Y-92540000D01*
X151217350Y-93077745D01*
X151415000Y-93053890D01*
X151415000Y-94654132D01*
X151409566Y-94659566D01*
X151228561Y-94930459D01*
X151196663Y-95090821D01*
X151164683Y-95096838D01*
X151000507Y-95202482D01*
X150959698Y-95161673D01*
X150726309Y-95065000D01*
X150285750Y-95065000D01*
X150127000Y-95223750D01*
X150127000Y-97273000D01*
X150147000Y-97273000D01*
X150147000Y-97527000D01*
X150127000Y-97527000D01*
X150127000Y-99576250D01*
X150285750Y-99735000D01*
X150726309Y-99735000D01*
X150959698Y-99638327D01*
X151001660Y-99596366D01*
X151148110Y-99696431D01*
X151400000Y-99747440D01*
X152290000Y-99747440D01*
X152290000Y-101977993D01*
X151927363Y-101614722D01*
X151326648Y-101365284D01*
X150676205Y-101364716D01*
X150075057Y-101613106D01*
X149614722Y-102072637D01*
X149365284Y-102673352D01*
X149364716Y-103323795D01*
X149613106Y-103924943D01*
X149977525Y-104290000D01*
X148127000Y-104290000D01*
X148127000Y-99500000D01*
X148118315Y-99453841D01*
X148091035Y-99411447D01*
X148049410Y-99383006D01*
X148000000Y-99373000D01*
X142701802Y-99373000D01*
X143312401Y-98762401D01*
X143477148Y-98515839D01*
X143535000Y-98225000D01*
X143535000Y-97685750D01*
X148765000Y-97685750D01*
X148765000Y-99226310D01*
X148861673Y-99459699D01*
X149040302Y-99638327D01*
X149273691Y-99735000D01*
X149714250Y-99735000D01*
X149873000Y-99576250D01*
X149873000Y-97527000D01*
X148923750Y-97527000D01*
X148765000Y-97685750D01*
X143535000Y-97685750D01*
X143535000Y-95573690D01*
X148765000Y-95573690D01*
X148765000Y-97114250D01*
X148923750Y-97273000D01*
X149873000Y-97273000D01*
X149873000Y-95223750D01*
X149714250Y-95065000D01*
X149273691Y-95065000D01*
X149040302Y-95161673D01*
X148861673Y-95340301D01*
X148765000Y-95573690D01*
X143535000Y-95573690D01*
X143535000Y-94969146D01*
X143648110Y-95046431D01*
X143900000Y-95097440D01*
X144550000Y-95097440D01*
X144785317Y-95053162D01*
X145001441Y-94914090D01*
X145059301Y-94829409D01*
X145313201Y-94934838D01*
X145685167Y-94935162D01*
X146028943Y-94793117D01*
X146292192Y-94530327D01*
X146434838Y-94186799D01*
X146435162Y-93814833D01*
X146293117Y-93471057D01*
X146079783Y-93257350D01*
X149962255Y-93257350D01*
X149986977Y-93462180D01*
X150378931Y-93588309D01*
X150789318Y-93554842D01*
X151013023Y-93462180D01*
X151037745Y-93257350D01*
X150500000Y-92719605D01*
X149962255Y-93257350D01*
X146079783Y-93257350D01*
X146072291Y-93249845D01*
X146292192Y-93030327D01*
X146434838Y-92686799D01*
X146435162Y-92314833D01*
X146293117Y-91971057D01*
X146030327Y-91707808D01*
X145686799Y-91565162D01*
X145314833Y-91564838D01*
X145060116Y-91670085D01*
X145014090Y-91598559D01*
X144985000Y-91578683D01*
X144985000Y-88725000D01*
X144927148Y-88434161D01*
X144762401Y-88187599D01*
X144172242Y-87597440D01*
X144550000Y-87597440D01*
X144785317Y-87553162D01*
X145001441Y-87414090D01*
X145059301Y-87329409D01*
X145313201Y-87434838D01*
X145685167Y-87435162D01*
X146028943Y-87293117D01*
X146292192Y-87030327D01*
X146434838Y-86686799D01*
X146435162Y-86314833D01*
X146293117Y-85971057D01*
X146030327Y-85707808D01*
X145686799Y-85565162D01*
X145314833Y-85564838D01*
X145060116Y-85670085D01*
X145014090Y-85598559D01*
X144801890Y-85453569D01*
X144550000Y-85402560D01*
X143900000Y-85402560D01*
X143664683Y-85446838D01*
X143498523Y-85553759D01*
X143351890Y-85453569D01*
X143100000Y-85402560D01*
X142450000Y-85402560D01*
X142214683Y-85446838D01*
X141998559Y-85585910D01*
X141876487Y-85764569D01*
X141709161Y-85797852D01*
X141462599Y-85962599D01*
X141360320Y-86064878D01*
X141314833Y-86064838D01*
X141135000Y-86139143D01*
X141135000Y-84972038D01*
X141235317Y-84953162D01*
X141451441Y-84814090D01*
X141596431Y-84601890D01*
X141647440Y-84350000D01*
X141647440Y-83760000D01*
X145250000Y-83760000D01*
X145540839Y-83702148D01*
X145787401Y-83537401D01*
X146287401Y-83037401D01*
X146452148Y-82790839D01*
X146510000Y-82500000D01*
X146510000Y-79062463D01*
X146542192Y-79030327D01*
X146684838Y-78686799D01*
X146685162Y-78314833D01*
X146543117Y-77971057D01*
X146280327Y-77707808D01*
X145936799Y-77565162D01*
X145564833Y-77564838D01*
X145221057Y-77706883D01*
X144957808Y-77969673D01*
X144815162Y-78313201D01*
X144814838Y-78685167D01*
X144956883Y-79028943D01*
X144990000Y-79062118D01*
X144990000Y-82185198D01*
X144935198Y-82240000D01*
X141589250Y-82240000D01*
X141476250Y-82127000D01*
X140502000Y-82127000D01*
X140502000Y-82147000D01*
X140248000Y-82147000D01*
X140248000Y-82127000D01*
X139273750Y-82127000D01*
X139115000Y-82285750D01*
X139115000Y-82360768D01*
X138962599Y-82462599D01*
X138712599Y-82712599D01*
X138547852Y-82959161D01*
X138490000Y-83250000D01*
X138490000Y-83564991D01*
X138314833Y-83564838D01*
X137971057Y-83706883D01*
X137897440Y-83780372D01*
X137897440Y-83650000D01*
X137853162Y-83414683D01*
X137714090Y-83198559D01*
X137501890Y-83053569D01*
X137250000Y-83002560D01*
X136206134Y-83002560D01*
X136198878Y-82985000D01*
X136339250Y-82985000D01*
X136498000Y-82826250D01*
X136498000Y-82127000D01*
X136752000Y-82127000D01*
X136752000Y-82826250D01*
X136910750Y-82985000D01*
X137376309Y-82985000D01*
X137609698Y-82888327D01*
X137788327Y-82709699D01*
X137885000Y-82476310D01*
X137885000Y-82285750D01*
X137726250Y-82127000D01*
X136752000Y-82127000D01*
X136498000Y-82127000D01*
X135523750Y-82127000D01*
X135365000Y-82285750D01*
X135365000Y-82476310D01*
X135401737Y-82565001D01*
X135214833Y-82564838D01*
X134871057Y-82706883D01*
X134607808Y-82969673D01*
X134465162Y-83313201D01*
X134464838Y-83685167D01*
X134606883Y-84028943D01*
X134640000Y-84062118D01*
X134640000Y-84815121D01*
X134314833Y-84814838D01*
X133971057Y-84956883D01*
X133707808Y-85219673D01*
X133565162Y-85563201D01*
X133564838Y-85935167D01*
X133690792Y-86240000D01*
X133250000Y-86240000D01*
X133007414Y-86288254D01*
X132959160Y-86297852D01*
X132712599Y-86462599D01*
X132237599Y-86937599D01*
X132233833Y-86943235D01*
X132214683Y-86946838D01*
X131998559Y-87085910D01*
X131940699Y-87170591D01*
X131686799Y-87065162D01*
X131314833Y-87064838D01*
X130971057Y-87206883D01*
X130707808Y-87469673D01*
X130565162Y-87813201D01*
X130564838Y-88185167D01*
X130706883Y-88528943D01*
X130927709Y-88750155D01*
X130707808Y-88969673D01*
X130565162Y-89313201D01*
X130564838Y-89685167D01*
X130706883Y-90028943D01*
X130927709Y-90250155D01*
X130707808Y-90469673D01*
X130565162Y-90813201D01*
X130564838Y-91185167D01*
X130706883Y-91528943D01*
X130969673Y-91792192D01*
X131313201Y-91934838D01*
X131685167Y-91935162D01*
X131939884Y-91829915D01*
X131985910Y-91901441D01*
X132198110Y-92046431D01*
X132450000Y-92097440D01*
X133100000Y-92097440D01*
X133335317Y-92053162D01*
X133499493Y-91947518D01*
X133540302Y-91988327D01*
X133773691Y-92085000D01*
X133939250Y-92085000D01*
X134098000Y-91926250D01*
X134098000Y-91127000D01*
X134078000Y-91127000D01*
X134078000Y-90873000D01*
X134098000Y-90873000D01*
X134098000Y-90853000D01*
X134352000Y-90853000D01*
X134352000Y-90873000D01*
X134372000Y-90873000D01*
X134372000Y-91127000D01*
X134352000Y-91127000D01*
X134352000Y-91926250D01*
X134510750Y-92085000D01*
X134676309Y-92085000D01*
X134740000Y-92058618D01*
X134740000Y-95941036D01*
X134550000Y-95902560D01*
X133900000Y-95902560D01*
X133664683Y-95946838D01*
X133498523Y-96053759D01*
X133351890Y-95953569D01*
X133100000Y-95902560D01*
X132450000Y-95902560D01*
X132214683Y-95946838D01*
X131998559Y-96085910D01*
X131940699Y-96170591D01*
X131686799Y-96065162D01*
X131314833Y-96064838D01*
X130971057Y-96206883D01*
X130707808Y-96469673D01*
X130565162Y-96813201D01*
X130564838Y-97185167D01*
X130706883Y-97528943D01*
X130969673Y-97792192D01*
X131313201Y-97934838D01*
X131685167Y-97935162D01*
X131939884Y-97829915D01*
X131985910Y-97901441D01*
X132198110Y-98046431D01*
X132450000Y-98097440D01*
X132654754Y-98097440D01*
X132565162Y-98313201D01*
X132564838Y-98685167D01*
X132706883Y-99028943D01*
X132969673Y-99292192D01*
X133164279Y-99373000D01*
X129000000Y-99373000D01*
X128953841Y-99381685D01*
X128911447Y-99408965D01*
X128883006Y-99450590D01*
X128873000Y-99500000D01*
X128873000Y-104290000D01*
X127022007Y-104290000D01*
X127385278Y-103927363D01*
X127634716Y-103326648D01*
X127635284Y-102676205D01*
X127386894Y-102075057D01*
X126927363Y-101614722D01*
X126326648Y-101365284D01*
X125676205Y-101364716D01*
X125075057Y-101613106D01*
X124710000Y-101977525D01*
X124710000Y-76022007D01*
X125072637Y-76385278D01*
X125673352Y-76634716D01*
X126323795Y-76635284D01*
X126924943Y-76386894D01*
X127385278Y-75927363D01*
X127634716Y-75326648D01*
X127635284Y-74676205D01*
X127386894Y-74075057D01*
X127018751Y-73706270D01*
X127068587Y-73696357D01*
X127138515Y-73696357D01*
X127712540Y-73582176D01*
X127968480Y-73476162D01*
X128455115Y-73151003D01*
X128470368Y-73135750D01*
X133715000Y-73135750D01*
X133715000Y-73976310D01*
X133811673Y-74209699D01*
X133990302Y-74388327D01*
X134223691Y-74485000D01*
X135114250Y-74485000D01*
X135273000Y-74326250D01*
X135273000Y-72977000D01*
X133873750Y-72977000D01*
X133715000Y-73135750D01*
X128470368Y-73135750D01*
X128479118Y-73127000D01*
X128500000Y-73127000D01*
X128549410Y-73116994D01*
X128591035Y-73088553D01*
X128618315Y-73046159D01*
X128627000Y-73000000D01*
X128627000Y-72979118D01*
X128651003Y-72955115D01*
X128976163Y-72468480D01*
X129051125Y-72287502D01*
X129082176Y-72212540D01*
X129196357Y-71638514D01*
X129196357Y-71568587D01*
X129210000Y-71500000D01*
X129210000Y-70069930D01*
X129244926Y-69894345D01*
X129304774Y-69804775D01*
X129394345Y-69744926D01*
X129569930Y-69710000D01*
X132965000Y-69710000D01*
X132965000Y-70214250D01*
M02*
