G04 #@! TF.FileFunction,Copper,L1,Top,Signal*
%FSLAX46Y46*%
G04 Gerber Fmt 4.6, Leading zero omitted, Abs format (unit mm)*
G04 Created by KiCad (PCBNEW (2015-10-11 BZR 6260)-product) date 2015年11月29日日曜日 02:22:40*
%MOMM*%
G01*
G04 APERTURE LIST*
%ADD10C,0.100000*%
%ADD11R,1.150000X1.150000*%
%ADD12R,0.900000X0.650000*%
%ADD13C,1.600000*%
%ADD14C,1.524000*%
%ADD15R,1.060000X0.650000*%
%ADD16R,0.900000X2.000000*%
%ADD17R,0.900000X1.250000*%
%ADD18R,3.400000X1.200000*%
%ADD19C,2.700000*%
%ADD20C,0.600000*%
%ADD21C,0.800000*%
%ADD22C,0.250000*%
%ADD23C,0.400000*%
%ADD24C,0.500000*%
%ADD25C,0.254000*%
G04 APERTURE END LIST*
D10*
D11*
X128000000Y-93500000D03*
X130000000Y-93500000D03*
X133000000Y-95000000D03*
X133000000Y-97000000D03*
D12*
X155500000Y-99275000D03*
X155500000Y-100725000D03*
X158500000Y-100725000D03*
X158500000Y-99275000D03*
X149500000Y-99275000D03*
X149500000Y-100725000D03*
X151000000Y-100725000D03*
X151000000Y-99275000D03*
X148000000Y-99275000D03*
X148000000Y-100725000D03*
X128500000Y-118775000D03*
X128500000Y-120225000D03*
X137500000Y-118775000D03*
X137500000Y-120225000D03*
X133000000Y-118775000D03*
X133000000Y-120225000D03*
D13*
X132460000Y-91500000D03*
X135000000Y-91500000D03*
X137540000Y-91500000D03*
D14*
X134600000Y-109310000D03*
X134600000Y-106770000D03*
X134600000Y-104230000D03*
X134600000Y-101690000D03*
D15*
X130100000Y-97950000D03*
X130100000Y-97000000D03*
X130100000Y-96050000D03*
X127900000Y-96050000D03*
X127900000Y-97950000D03*
D16*
X158500000Y-103000000D03*
X157000000Y-103000000D03*
X155500000Y-103000000D03*
X154000000Y-103000000D03*
X152500000Y-103000000D03*
X151000000Y-103000000D03*
X149500000Y-103000000D03*
X148000000Y-103000000D03*
X146500000Y-103000000D03*
X146500000Y-121000000D03*
X148000000Y-121000000D03*
X149500000Y-121000000D03*
X151000000Y-121000000D03*
X152500000Y-121000000D03*
X154000000Y-121000000D03*
X155500000Y-121000000D03*
X157000000Y-121000000D03*
X158500000Y-121000000D03*
D14*
X142380000Y-87690000D03*
X142380000Y-90230000D03*
X142380000Y-92770000D03*
X142380000Y-95310000D03*
X157620000Y-95310000D03*
X157620000Y-92770000D03*
X157620000Y-90230000D03*
X157620000Y-87690000D03*
D12*
X125000000Y-96275000D03*
X125000000Y-97725000D03*
D13*
X133000000Y-116270000D03*
X133000000Y-113730000D03*
X137500000Y-116270000D03*
X137500000Y-113730000D03*
X128500000Y-116270000D03*
X128500000Y-113730000D03*
D17*
X142000000Y-102525000D03*
X142000000Y-108475000D03*
X139000000Y-102525000D03*
X139000000Y-108475000D03*
D18*
X162400000Y-95000000D03*
X162400000Y-97000000D03*
D19*
X128000000Y-88000000D03*
X163500000Y-88000000D03*
X163500000Y-123000000D03*
X128000000Y-123000000D03*
D20*
X146500000Y-100500000D03*
X137500000Y-121500000D03*
X151000000Y-123500000D03*
X152500000Y-99500000D03*
X154000000Y-99500000D03*
X154000000Y-95500000D03*
X144000000Y-104000000D03*
X144000000Y-107000000D03*
X130000000Y-110500000D03*
X130000000Y-108000000D03*
D21*
X128000000Y-95000000D02*
X124000000Y-95000000D01*
X128500000Y-100000000D02*
X128500000Y-109310000D01*
X128000000Y-99500000D02*
X128500000Y-100000000D01*
X124500000Y-99500000D02*
X128000000Y-99500000D01*
X123000000Y-98000000D02*
X124500000Y-99500000D01*
X123000000Y-96000000D02*
X123000000Y-98000000D01*
X124000000Y-95000000D02*
X123000000Y-96000000D01*
X128500000Y-113730000D02*
X128500000Y-109310000D01*
X128500000Y-109310000D02*
X128500000Y-109500000D01*
X128500000Y-109500000D02*
X128500000Y-109310000D01*
X134600000Y-109310000D02*
X128500000Y-109310000D01*
X128000000Y-93500000D02*
X128000000Y-95000000D01*
X128000000Y-95000000D02*
X128000000Y-95950000D01*
D22*
X128000000Y-95950000D02*
X127900000Y-96050000D01*
X130100000Y-97000000D02*
X133000000Y-97000000D01*
X125000000Y-96275000D02*
X125775000Y-96275000D01*
X126500000Y-97000000D02*
X130100000Y-97000000D01*
X125775000Y-96275000D02*
X126500000Y-97000000D01*
D23*
X146500000Y-103000000D02*
X146500000Y-100500000D01*
D22*
X137500000Y-120225000D02*
X137500000Y-121500000D01*
D23*
X151000000Y-121000000D02*
X151000000Y-123500000D01*
D24*
X151000000Y-99275000D02*
X152275000Y-99275000D01*
X152275000Y-99275000D02*
X152500000Y-99500000D01*
D21*
X162400000Y-97000000D02*
X135500000Y-97000000D01*
X135000000Y-96500000D02*
X135000000Y-95000000D01*
X135500000Y-97000000D02*
X135000000Y-96500000D01*
X133000000Y-95000000D02*
X135000000Y-95000000D01*
X130100000Y-96050000D02*
X130100000Y-95400000D01*
X130500000Y-95000000D02*
X133000000Y-95000000D01*
X130100000Y-95400000D02*
X130500000Y-95000000D01*
X135000000Y-91500000D02*
X135000000Y-95000000D01*
D22*
X128500000Y-118775000D02*
X128500000Y-116270000D01*
X137500000Y-118775000D02*
X137500000Y-116270000D01*
D24*
X157620000Y-90230000D02*
X154770000Y-90230000D01*
X154225000Y-99275000D02*
X155500000Y-99275000D01*
X154000000Y-99500000D02*
X154225000Y-99275000D01*
X154000000Y-91000000D02*
X154000000Y-95500000D01*
X154770000Y-90230000D02*
X154000000Y-91000000D01*
X149500000Y-99275000D02*
X149500000Y-98500000D01*
X149500000Y-98500000D02*
X150000000Y-98000000D01*
X150000000Y-98000000D02*
X155000000Y-98000000D01*
X155000000Y-98000000D02*
X155500000Y-98500000D01*
X155500000Y-98500000D02*
X155500000Y-99275000D01*
X137500000Y-113730000D02*
X143270000Y-113730000D01*
X144500000Y-99500000D02*
X147775000Y-99500000D01*
X144000000Y-100000000D02*
X144500000Y-99500000D01*
X144000000Y-104000000D02*
X144000000Y-100000000D01*
X144000000Y-113000000D02*
X144000000Y-107000000D01*
X143270000Y-113730000D02*
X144000000Y-113000000D01*
X147775000Y-99500000D02*
X148000000Y-99275000D01*
X157620000Y-90230000D02*
X157620000Y-87690000D01*
X155500000Y-99275000D02*
X156225000Y-100000000D01*
X156225000Y-100000000D02*
X157775000Y-100000000D01*
X157775000Y-100000000D02*
X158500000Y-100725000D01*
X148000000Y-99275000D02*
X149500000Y-99275000D01*
D22*
X158500000Y-100725000D02*
X158500000Y-103000000D01*
D24*
X133000000Y-113730000D02*
X137500000Y-113730000D01*
D22*
X133000000Y-118775000D02*
X133000000Y-116270000D01*
X125000000Y-97725000D02*
X127675000Y-97725000D01*
X127675000Y-97725000D02*
X127900000Y-97950000D01*
X155500000Y-100725000D02*
X156725000Y-100725000D01*
X157000000Y-101000000D02*
X157000000Y-103000000D01*
X156725000Y-100725000D02*
X157000000Y-101000000D01*
X158500000Y-99275000D02*
X159275000Y-99275000D01*
X154000000Y-119500000D02*
X154000000Y-121000000D01*
X153500000Y-119000000D02*
X154000000Y-119500000D01*
X152500000Y-119000000D02*
X153500000Y-119000000D01*
X152000000Y-118500000D02*
X152500000Y-119000000D01*
X152000000Y-105500000D02*
X152000000Y-118500000D01*
X152500000Y-105000000D02*
X152000000Y-105500000D01*
X159500000Y-105000000D02*
X152500000Y-105000000D01*
X160000000Y-104500000D02*
X159500000Y-105000000D01*
X160000000Y-100000000D02*
X160000000Y-104500000D01*
X159275000Y-99275000D02*
X160000000Y-100000000D01*
X158500000Y-99275000D02*
X158775000Y-99275000D01*
X149500000Y-100725000D02*
X149500000Y-103000000D01*
X151000000Y-100725000D02*
X151000000Y-103000000D01*
X148000000Y-103000000D02*
X148000000Y-104500000D01*
X142000000Y-104500000D02*
X142000000Y-102525000D01*
X142500000Y-105000000D02*
X142000000Y-104500000D01*
X147500000Y-105000000D02*
X142500000Y-105000000D01*
X148000000Y-104500000D02*
X147500000Y-105000000D01*
X148000000Y-100725000D02*
X148000000Y-102500000D01*
X130100000Y-97950000D02*
X130100000Y-107900000D01*
X129275000Y-120225000D02*
X128500000Y-120225000D01*
X130000000Y-119500000D02*
X129275000Y-120225000D01*
X130000000Y-110500000D02*
X130000000Y-119500000D01*
X130100000Y-107900000D02*
X130000000Y-108000000D01*
X133000000Y-120225000D02*
X133000000Y-122000000D01*
X146000000Y-122500000D02*
X146500000Y-122000000D01*
X133500000Y-122500000D02*
X146000000Y-122500000D01*
X133000000Y-122000000D02*
X133500000Y-122500000D01*
X146500000Y-122000000D02*
X146500000Y-121000000D01*
D21*
X142380000Y-92770000D02*
X141270000Y-92770000D01*
X140500000Y-92000000D02*
X140500000Y-91500000D01*
X141270000Y-92770000D02*
X140500000Y-92000000D01*
X140500000Y-91500000D02*
X140500000Y-88500000D01*
X140500000Y-88500000D02*
X141310000Y-87690000D01*
X141310000Y-87690000D02*
X142380000Y-87690000D01*
X137540000Y-91500000D02*
X140500000Y-91500000D01*
X142380000Y-92770000D02*
X142380000Y-95310000D01*
D22*
X134600000Y-104230000D02*
X136230000Y-104230000D01*
X148000000Y-119000000D02*
X148000000Y-121000000D01*
X148500000Y-118500000D02*
X148000000Y-119000000D01*
X150500000Y-118500000D02*
X148500000Y-118500000D01*
X151000000Y-118000000D02*
X150500000Y-118500000D01*
X151000000Y-106500000D02*
X151000000Y-118000000D01*
X150500000Y-106000000D02*
X151000000Y-106500000D01*
X138000000Y-106000000D02*
X150500000Y-106000000D01*
X136230000Y-104230000D02*
X138000000Y-106000000D01*
X134600000Y-104230000D02*
X134600000Y-104600000D01*
X134600000Y-104230000D02*
X134730000Y-104230000D01*
X134600000Y-101690000D02*
X136690000Y-101690000D01*
X149500000Y-119500000D02*
X149500000Y-121000000D01*
X150000000Y-119000000D02*
X149500000Y-119500000D01*
X151000000Y-119000000D02*
X150000000Y-119000000D01*
X151500000Y-118500000D02*
X151000000Y-119000000D01*
X151500000Y-106000000D02*
X151500000Y-118500000D01*
X151000000Y-105500000D02*
X151500000Y-106000000D01*
X138500000Y-105500000D02*
X151000000Y-105500000D01*
X137500000Y-104500000D02*
X138500000Y-105500000D01*
X137500000Y-102500000D02*
X137500000Y-104500000D01*
X136690000Y-101690000D02*
X137500000Y-102500000D01*
X134600000Y-101690000D02*
X134690000Y-101690000D01*
D25*
G36*
X131886673Y-96065302D02*
X131790000Y-96298691D01*
X131790000Y-96714250D01*
X131948750Y-96873000D01*
X132873000Y-96873000D01*
X132873000Y-96853000D01*
X133127000Y-96853000D01*
X133127000Y-96873000D01*
X133147000Y-96873000D01*
X133147000Y-97127000D01*
X133127000Y-97127000D01*
X133127000Y-98051250D01*
X133285750Y-98210000D01*
X133701310Y-98210000D01*
X133934699Y-98113327D01*
X134113327Y-97934698D01*
X134210000Y-97701309D01*
X134210000Y-97285750D01*
X134051252Y-97127002D01*
X134198083Y-97127002D01*
X134268144Y-97231856D01*
X134768142Y-97731853D01*
X134768144Y-97731856D01*
X134981193Y-97874210D01*
X135103923Y-97956215D01*
X135500000Y-98035001D01*
X135500005Y-98035000D01*
X148766774Y-98035000D01*
X148682367Y-98161325D01*
X148682367Y-98161326D01*
X148646363Y-98342325D01*
X148450000Y-98302560D01*
X147550000Y-98302560D01*
X147314683Y-98346838D01*
X147098559Y-98485910D01*
X147010356Y-98615000D01*
X144500005Y-98615000D01*
X144500000Y-98614999D01*
X144217516Y-98671190D01*
X144161325Y-98682367D01*
X143874210Y-98874210D01*
X143874208Y-98874213D01*
X143374210Y-99374210D01*
X143182367Y-99661325D01*
X143182367Y-99661326D01*
X143114999Y-100000000D01*
X143115000Y-100000005D01*
X143115000Y-103693178D01*
X143065162Y-103813201D01*
X143064838Y-104185167D01*
X143087494Y-104240000D01*
X142814802Y-104240000D01*
X142760000Y-104185198D01*
X142760000Y-103705105D01*
X142901441Y-103614090D01*
X143046431Y-103401890D01*
X143097440Y-103150000D01*
X143097440Y-101900000D01*
X143053162Y-101664683D01*
X142914090Y-101448559D01*
X142701890Y-101303569D01*
X142450000Y-101252560D01*
X141550000Y-101252560D01*
X141314683Y-101296838D01*
X141098559Y-101435910D01*
X140953569Y-101648110D01*
X140902560Y-101900000D01*
X140902560Y-103150000D01*
X140946838Y-103385317D01*
X141085910Y-103601441D01*
X141240000Y-103706726D01*
X141240000Y-104500000D01*
X141287739Y-104740000D01*
X138814802Y-104740000D01*
X138260000Y-104185198D01*
X138260000Y-103717197D01*
X138423690Y-103785000D01*
X138714250Y-103785000D01*
X138873000Y-103626250D01*
X138873000Y-102652000D01*
X139127000Y-102652000D01*
X139127000Y-103626250D01*
X139285750Y-103785000D01*
X139576310Y-103785000D01*
X139809699Y-103688327D01*
X139988327Y-103509698D01*
X140085000Y-103276309D01*
X140085000Y-102810750D01*
X139926250Y-102652000D01*
X139127000Y-102652000D01*
X138873000Y-102652000D01*
X138853000Y-102652000D01*
X138853000Y-102398000D01*
X138873000Y-102398000D01*
X138873000Y-101423750D01*
X139127000Y-101423750D01*
X139127000Y-102398000D01*
X139926250Y-102398000D01*
X140085000Y-102239250D01*
X140085000Y-101773691D01*
X139988327Y-101540302D01*
X139809699Y-101361673D01*
X139576310Y-101265000D01*
X139285750Y-101265000D01*
X139127000Y-101423750D01*
X138873000Y-101423750D01*
X138714250Y-101265000D01*
X138423690Y-101265000D01*
X138190301Y-101361673D01*
X138011673Y-101540302D01*
X137915000Y-101773691D01*
X137915000Y-101840198D01*
X137227401Y-101152599D01*
X136980839Y-100987852D01*
X136690000Y-100930000D01*
X135797531Y-100930000D01*
X135785010Y-100899697D01*
X135392370Y-100506371D01*
X134879100Y-100293243D01*
X134323339Y-100292758D01*
X133809697Y-100504990D01*
X133416371Y-100897630D01*
X133203243Y-101410900D01*
X133202758Y-101966661D01*
X133414990Y-102480303D01*
X133807630Y-102873629D01*
X134015512Y-102959949D01*
X133809697Y-103044990D01*
X133416371Y-103437630D01*
X133203243Y-103950900D01*
X133202758Y-104506661D01*
X133414990Y-105020303D01*
X133807630Y-105413629D01*
X133999727Y-105493395D01*
X133868857Y-105547603D01*
X133799392Y-105789787D01*
X134600000Y-106590395D01*
X135400608Y-105789787D01*
X135331143Y-105547603D01*
X135190682Y-105497491D01*
X135390303Y-105415010D01*
X135783629Y-105022370D01*
X135797070Y-104990000D01*
X135915198Y-104990000D01*
X137462599Y-106537401D01*
X137709161Y-106702148D01*
X138000000Y-106760000D01*
X143087253Y-106760000D01*
X143065162Y-106813201D01*
X143064838Y-107185167D01*
X143115000Y-107306569D01*
X143115000Y-112633421D01*
X142903420Y-112845000D01*
X138644171Y-112845000D01*
X138313923Y-112514176D01*
X137786691Y-112295250D01*
X137215813Y-112294752D01*
X136688200Y-112512757D01*
X136355377Y-112845000D01*
X134144171Y-112845000D01*
X133813923Y-112514176D01*
X133286691Y-112295250D01*
X132715813Y-112294752D01*
X132188200Y-112512757D01*
X131784176Y-112916077D01*
X131565250Y-113443309D01*
X131564752Y-114014187D01*
X131782757Y-114541800D01*
X132186077Y-114945824D01*
X132316215Y-114999862D01*
X132188200Y-115052757D01*
X131784176Y-115456077D01*
X131565250Y-115983309D01*
X131564752Y-116554187D01*
X131782757Y-117081800D01*
X132186077Y-117485824D01*
X132240000Y-117508215D01*
X132240000Y-117894895D01*
X132098559Y-117985910D01*
X131953569Y-118198110D01*
X131902560Y-118450000D01*
X131902560Y-119100000D01*
X131946838Y-119335317D01*
X132053759Y-119501477D01*
X131953569Y-119648110D01*
X131902560Y-119900000D01*
X131902560Y-120550000D01*
X131946838Y-120785317D01*
X132085910Y-121001441D01*
X132240000Y-121106726D01*
X132240000Y-122000000D01*
X132297852Y-122290839D01*
X132462599Y-122537401D01*
X132962599Y-123037401D01*
X133209161Y-123202148D01*
X133500000Y-123260000D01*
X146000000Y-123260000D01*
X146290839Y-123202148D01*
X146537401Y-123037401D01*
X146927362Y-122647440D01*
X146950000Y-122647440D01*
X147185317Y-122603162D01*
X147248478Y-122562519D01*
X147298110Y-122596431D01*
X147550000Y-122647440D01*
X148450000Y-122647440D01*
X148685317Y-122603162D01*
X148748478Y-122562519D01*
X148798110Y-122596431D01*
X149050000Y-122647440D01*
X149950000Y-122647440D01*
X150185317Y-122603162D01*
X150248567Y-122562462D01*
X150423690Y-122635000D01*
X150714250Y-122635000D01*
X150873000Y-122476250D01*
X150873000Y-121127000D01*
X150853000Y-121127000D01*
X150853000Y-120873000D01*
X150873000Y-120873000D01*
X150873000Y-120853000D01*
X151127000Y-120853000D01*
X151127000Y-120873000D01*
X151147000Y-120873000D01*
X151147000Y-121127000D01*
X151127000Y-121127000D01*
X151127000Y-122476250D01*
X151285750Y-122635000D01*
X151576310Y-122635000D01*
X151749541Y-122563245D01*
X151798110Y-122596431D01*
X152050000Y-122647440D01*
X152950000Y-122647440D01*
X153185317Y-122603162D01*
X153248478Y-122562519D01*
X153298110Y-122596431D01*
X153550000Y-122647440D01*
X154450000Y-122647440D01*
X154685317Y-122603162D01*
X154748478Y-122562519D01*
X154798110Y-122596431D01*
X155050000Y-122647440D01*
X155950000Y-122647440D01*
X156185317Y-122603162D01*
X156248478Y-122562519D01*
X156298110Y-122596431D01*
X156550000Y-122647440D01*
X157450000Y-122647440D01*
X157685317Y-122603162D01*
X157748567Y-122562462D01*
X157923690Y-122635000D01*
X158214250Y-122635000D01*
X158373000Y-122476250D01*
X158373000Y-121127000D01*
X158627000Y-121127000D01*
X158627000Y-122476250D01*
X158785750Y-122635000D01*
X159076310Y-122635000D01*
X159309699Y-122538327D01*
X159488327Y-122359698D01*
X159585000Y-122126309D01*
X159585000Y-121594407D01*
X162274012Y-121594407D01*
X163500000Y-122820395D01*
X164725988Y-121594407D01*
X164584522Y-121291218D01*
X163848045Y-121006263D01*
X163058582Y-121024836D01*
X162415478Y-121291218D01*
X162274012Y-121594407D01*
X159585000Y-121594407D01*
X159585000Y-121285750D01*
X159426250Y-121127000D01*
X158627000Y-121127000D01*
X158373000Y-121127000D01*
X158353000Y-121127000D01*
X158353000Y-120873000D01*
X158373000Y-120873000D01*
X158373000Y-119523750D01*
X158627000Y-119523750D01*
X158627000Y-120873000D01*
X159426250Y-120873000D01*
X159585000Y-120714250D01*
X159585000Y-119873691D01*
X159488327Y-119640302D01*
X159309699Y-119461673D01*
X159076310Y-119365000D01*
X158785750Y-119365000D01*
X158627000Y-119523750D01*
X158373000Y-119523750D01*
X158214250Y-119365000D01*
X157923690Y-119365000D01*
X157750459Y-119436755D01*
X157701890Y-119403569D01*
X157450000Y-119352560D01*
X156550000Y-119352560D01*
X156314683Y-119396838D01*
X156251522Y-119437481D01*
X156201890Y-119403569D01*
X155950000Y-119352560D01*
X155050000Y-119352560D01*
X154814683Y-119396838D01*
X154751522Y-119437481D01*
X154746942Y-119434351D01*
X154702148Y-119209161D01*
X154537401Y-118962599D01*
X154037401Y-118462599D01*
X153790839Y-118297852D01*
X153500000Y-118240000D01*
X152814802Y-118240000D01*
X152760000Y-118185198D01*
X152760000Y-105814802D01*
X152814802Y-105760000D01*
X159500000Y-105760000D01*
X159790839Y-105702148D01*
X160037401Y-105537401D01*
X160537401Y-105037401D01*
X160702148Y-104790839D01*
X160760000Y-104500000D01*
X160760000Y-100000000D01*
X160702148Y-99709161D01*
X160537401Y-99462599D01*
X159812401Y-98737599D01*
X159565839Y-98572852D01*
X159446639Y-98549141D01*
X159414090Y-98498559D01*
X159201890Y-98353569D01*
X158950000Y-98302560D01*
X158050000Y-98302560D01*
X157814683Y-98346838D01*
X157598559Y-98485910D01*
X157453569Y-98698110D01*
X157402560Y-98950000D01*
X157402560Y-99115000D01*
X156597440Y-99115000D01*
X156597440Y-98950000D01*
X156553162Y-98714683D01*
X156414090Y-98498559D01*
X156380094Y-98475330D01*
X156317633Y-98161326D01*
X156317633Y-98161325D01*
X156233226Y-98035000D01*
X160225331Y-98035000D01*
X160235910Y-98051441D01*
X160448110Y-98196431D01*
X160700000Y-98247440D01*
X163790000Y-98247440D01*
X163790000Y-99500000D01*
X163844046Y-99771705D01*
X163997954Y-100002046D01*
X164228295Y-100155954D01*
X164500000Y-100210000D01*
X169290000Y-100210000D01*
X169290000Y-123930070D01*
X169255074Y-124105655D01*
X169195225Y-124195226D01*
X169105655Y-124255074D01*
X168930070Y-124290000D01*
X164969608Y-124290000D01*
X164905595Y-124225987D01*
X165208782Y-124084522D01*
X165493737Y-123348045D01*
X165475164Y-122558582D01*
X165208782Y-121915478D01*
X164905593Y-121774012D01*
X163679605Y-123000000D01*
X163693748Y-123014143D01*
X163514143Y-123193748D01*
X163500000Y-123179605D01*
X163485858Y-123193748D01*
X163306253Y-123014143D01*
X163320395Y-123000000D01*
X162094407Y-121774012D01*
X161791218Y-121915478D01*
X161506263Y-122651955D01*
X161524836Y-123441418D01*
X161791218Y-124084522D01*
X162094405Y-124225987D01*
X162030392Y-124290000D01*
X129469608Y-124290000D01*
X129405595Y-124225987D01*
X129708782Y-124084522D01*
X129993737Y-123348045D01*
X129975164Y-122558582D01*
X129708782Y-121915478D01*
X129405593Y-121774012D01*
X128179605Y-123000000D01*
X128193748Y-123014143D01*
X128014143Y-123193748D01*
X128000000Y-123179605D01*
X127985858Y-123193748D01*
X127806253Y-123014143D01*
X127820395Y-123000000D01*
X127806253Y-122985858D01*
X127985858Y-122806253D01*
X128000000Y-122820395D01*
X129225988Y-121594407D01*
X129084522Y-121291218D01*
X128842149Y-121197440D01*
X128950000Y-121197440D01*
X129185317Y-121153162D01*
X129401441Y-121014090D01*
X129444332Y-120951318D01*
X129565839Y-120927148D01*
X129812401Y-120762401D01*
X130537401Y-120037401D01*
X130702148Y-119790839D01*
X130760000Y-119500000D01*
X130760000Y-111062463D01*
X130792192Y-111030327D01*
X130934838Y-110686799D01*
X130935136Y-110345000D01*
X133659260Y-110345000D01*
X133807630Y-110493629D01*
X134320900Y-110706757D01*
X134876661Y-110707242D01*
X135390303Y-110495010D01*
X135783629Y-110102370D01*
X135996757Y-109589100D01*
X135997242Y-109033339D01*
X135884611Y-108760750D01*
X137915000Y-108760750D01*
X137915000Y-109226309D01*
X138011673Y-109459698D01*
X138190301Y-109638327D01*
X138423690Y-109735000D01*
X138714250Y-109735000D01*
X138873000Y-109576250D01*
X138873000Y-108602000D01*
X139127000Y-108602000D01*
X139127000Y-109576250D01*
X139285750Y-109735000D01*
X139576310Y-109735000D01*
X139809699Y-109638327D01*
X139988327Y-109459698D01*
X140085000Y-109226309D01*
X140085000Y-108760750D01*
X139926250Y-108602000D01*
X139127000Y-108602000D01*
X138873000Y-108602000D01*
X138073750Y-108602000D01*
X137915000Y-108760750D01*
X135884611Y-108760750D01*
X135785010Y-108519697D01*
X135392370Y-108126371D01*
X135200273Y-108046605D01*
X135331143Y-107992397D01*
X135400608Y-107750213D01*
X135374086Y-107723691D01*
X137915000Y-107723691D01*
X137915000Y-108189250D01*
X138073750Y-108348000D01*
X138873000Y-108348000D01*
X138873000Y-107373750D01*
X139127000Y-107373750D01*
X139127000Y-108348000D01*
X139926250Y-108348000D01*
X140085000Y-108189250D01*
X140085000Y-107850000D01*
X140902560Y-107850000D01*
X140902560Y-109100000D01*
X140946838Y-109335317D01*
X141085910Y-109551441D01*
X141298110Y-109696431D01*
X141550000Y-109747440D01*
X142450000Y-109747440D01*
X142685317Y-109703162D01*
X142901441Y-109564090D01*
X143046431Y-109351890D01*
X143097440Y-109100000D01*
X143097440Y-107850000D01*
X143053162Y-107614683D01*
X142914090Y-107398559D01*
X142701890Y-107253569D01*
X142450000Y-107202560D01*
X141550000Y-107202560D01*
X141314683Y-107246838D01*
X141098559Y-107385910D01*
X140953569Y-107598110D01*
X140902560Y-107850000D01*
X140085000Y-107850000D01*
X140085000Y-107723691D01*
X139988327Y-107490302D01*
X139809699Y-107311673D01*
X139576310Y-107215000D01*
X139285750Y-107215000D01*
X139127000Y-107373750D01*
X138873000Y-107373750D01*
X138714250Y-107215000D01*
X138423690Y-107215000D01*
X138190301Y-107311673D01*
X138011673Y-107490302D01*
X137915000Y-107723691D01*
X135374086Y-107723691D01*
X134600000Y-106949605D01*
X133799392Y-107750213D01*
X133868857Y-107992397D01*
X134009318Y-108042509D01*
X133809697Y-108124990D01*
X133659425Y-108275000D01*
X130898214Y-108275000D01*
X130934838Y-108186799D01*
X130935162Y-107814833D01*
X130860000Y-107632927D01*
X130860000Y-106562302D01*
X133190856Y-106562302D01*
X133218638Y-107117368D01*
X133377603Y-107501143D01*
X133619787Y-107570608D01*
X134420395Y-106770000D01*
X134779605Y-106770000D01*
X135580213Y-107570608D01*
X135822397Y-107501143D01*
X136009144Y-106977698D01*
X135981362Y-106422632D01*
X135822397Y-106038857D01*
X135580213Y-105969392D01*
X134779605Y-106770000D01*
X134420395Y-106770000D01*
X133619787Y-105969392D01*
X133377603Y-106038857D01*
X133190856Y-106562302D01*
X130860000Y-106562302D01*
X130860000Y-98879162D01*
X130865317Y-98878162D01*
X131081441Y-98739090D01*
X131226431Y-98526890D01*
X131277440Y-98275000D01*
X131277440Y-97625000D01*
X131251081Y-97484914D01*
X131265000Y-97451310D01*
X131265000Y-97285750D01*
X131790000Y-97285750D01*
X131790000Y-97701309D01*
X131886673Y-97934698D01*
X132065301Y-98113327D01*
X132298690Y-98210000D01*
X132714250Y-98210000D01*
X132873000Y-98051250D01*
X132873000Y-97127000D01*
X131948750Y-97127000D01*
X131790000Y-97285750D01*
X131265000Y-97285750D01*
X131106250Y-97127000D01*
X131025949Y-97127000D01*
X130881890Y-97028569D01*
X130744880Y-97000824D01*
X130865317Y-96978162D01*
X131028743Y-96873000D01*
X131106250Y-96873000D01*
X131265000Y-96714250D01*
X131265000Y-96548690D01*
X131249732Y-96511829D01*
X131277440Y-96375000D01*
X131277440Y-96035000D01*
X131916975Y-96035000D01*
X131886673Y-96065302D01*
X131886673Y-96065302D01*
G37*
X131886673Y-96065302D02*
X131790000Y-96298691D01*
X131790000Y-96714250D01*
X131948750Y-96873000D01*
X132873000Y-96873000D01*
X132873000Y-96853000D01*
X133127000Y-96853000D01*
X133127000Y-96873000D01*
X133147000Y-96873000D01*
X133147000Y-97127000D01*
X133127000Y-97127000D01*
X133127000Y-98051250D01*
X133285750Y-98210000D01*
X133701310Y-98210000D01*
X133934699Y-98113327D01*
X134113327Y-97934698D01*
X134210000Y-97701309D01*
X134210000Y-97285750D01*
X134051252Y-97127002D01*
X134198083Y-97127002D01*
X134268144Y-97231856D01*
X134768142Y-97731853D01*
X134768144Y-97731856D01*
X134981193Y-97874210D01*
X135103923Y-97956215D01*
X135500000Y-98035001D01*
X135500005Y-98035000D01*
X148766774Y-98035000D01*
X148682367Y-98161325D01*
X148682367Y-98161326D01*
X148646363Y-98342325D01*
X148450000Y-98302560D01*
X147550000Y-98302560D01*
X147314683Y-98346838D01*
X147098559Y-98485910D01*
X147010356Y-98615000D01*
X144500005Y-98615000D01*
X144500000Y-98614999D01*
X144217516Y-98671190D01*
X144161325Y-98682367D01*
X143874210Y-98874210D01*
X143874208Y-98874213D01*
X143374210Y-99374210D01*
X143182367Y-99661325D01*
X143182367Y-99661326D01*
X143114999Y-100000000D01*
X143115000Y-100000005D01*
X143115000Y-103693178D01*
X143065162Y-103813201D01*
X143064838Y-104185167D01*
X143087494Y-104240000D01*
X142814802Y-104240000D01*
X142760000Y-104185198D01*
X142760000Y-103705105D01*
X142901441Y-103614090D01*
X143046431Y-103401890D01*
X143097440Y-103150000D01*
X143097440Y-101900000D01*
X143053162Y-101664683D01*
X142914090Y-101448559D01*
X142701890Y-101303569D01*
X142450000Y-101252560D01*
X141550000Y-101252560D01*
X141314683Y-101296838D01*
X141098559Y-101435910D01*
X140953569Y-101648110D01*
X140902560Y-101900000D01*
X140902560Y-103150000D01*
X140946838Y-103385317D01*
X141085910Y-103601441D01*
X141240000Y-103706726D01*
X141240000Y-104500000D01*
X141287739Y-104740000D01*
X138814802Y-104740000D01*
X138260000Y-104185198D01*
X138260000Y-103717197D01*
X138423690Y-103785000D01*
X138714250Y-103785000D01*
X138873000Y-103626250D01*
X138873000Y-102652000D01*
X139127000Y-102652000D01*
X139127000Y-103626250D01*
X139285750Y-103785000D01*
X139576310Y-103785000D01*
X139809699Y-103688327D01*
X139988327Y-103509698D01*
X140085000Y-103276309D01*
X140085000Y-102810750D01*
X139926250Y-102652000D01*
X139127000Y-102652000D01*
X138873000Y-102652000D01*
X138853000Y-102652000D01*
X138853000Y-102398000D01*
X138873000Y-102398000D01*
X138873000Y-101423750D01*
X139127000Y-101423750D01*
X139127000Y-102398000D01*
X139926250Y-102398000D01*
X140085000Y-102239250D01*
X140085000Y-101773691D01*
X139988327Y-101540302D01*
X139809699Y-101361673D01*
X139576310Y-101265000D01*
X139285750Y-101265000D01*
X139127000Y-101423750D01*
X138873000Y-101423750D01*
X138714250Y-101265000D01*
X138423690Y-101265000D01*
X138190301Y-101361673D01*
X138011673Y-101540302D01*
X137915000Y-101773691D01*
X137915000Y-101840198D01*
X137227401Y-101152599D01*
X136980839Y-100987852D01*
X136690000Y-100930000D01*
X135797531Y-100930000D01*
X135785010Y-100899697D01*
X135392370Y-100506371D01*
X134879100Y-100293243D01*
X134323339Y-100292758D01*
X133809697Y-100504990D01*
X133416371Y-100897630D01*
X133203243Y-101410900D01*
X133202758Y-101966661D01*
X133414990Y-102480303D01*
X133807630Y-102873629D01*
X134015512Y-102959949D01*
X133809697Y-103044990D01*
X133416371Y-103437630D01*
X133203243Y-103950900D01*
X133202758Y-104506661D01*
X133414990Y-105020303D01*
X133807630Y-105413629D01*
X133999727Y-105493395D01*
X133868857Y-105547603D01*
X133799392Y-105789787D01*
X134600000Y-106590395D01*
X135400608Y-105789787D01*
X135331143Y-105547603D01*
X135190682Y-105497491D01*
X135390303Y-105415010D01*
X135783629Y-105022370D01*
X135797070Y-104990000D01*
X135915198Y-104990000D01*
X137462599Y-106537401D01*
X137709161Y-106702148D01*
X138000000Y-106760000D01*
X143087253Y-106760000D01*
X143065162Y-106813201D01*
X143064838Y-107185167D01*
X143115000Y-107306569D01*
X143115000Y-112633421D01*
X142903420Y-112845000D01*
X138644171Y-112845000D01*
X138313923Y-112514176D01*
X137786691Y-112295250D01*
X137215813Y-112294752D01*
X136688200Y-112512757D01*
X136355377Y-112845000D01*
X134144171Y-112845000D01*
X133813923Y-112514176D01*
X133286691Y-112295250D01*
X132715813Y-112294752D01*
X132188200Y-112512757D01*
X131784176Y-112916077D01*
X131565250Y-113443309D01*
X131564752Y-114014187D01*
X131782757Y-114541800D01*
X132186077Y-114945824D01*
X132316215Y-114999862D01*
X132188200Y-115052757D01*
X131784176Y-115456077D01*
X131565250Y-115983309D01*
X131564752Y-116554187D01*
X131782757Y-117081800D01*
X132186077Y-117485824D01*
X132240000Y-117508215D01*
X132240000Y-117894895D01*
X132098559Y-117985910D01*
X131953569Y-118198110D01*
X131902560Y-118450000D01*
X131902560Y-119100000D01*
X131946838Y-119335317D01*
X132053759Y-119501477D01*
X131953569Y-119648110D01*
X131902560Y-119900000D01*
X131902560Y-120550000D01*
X131946838Y-120785317D01*
X132085910Y-121001441D01*
X132240000Y-121106726D01*
X132240000Y-122000000D01*
X132297852Y-122290839D01*
X132462599Y-122537401D01*
X132962599Y-123037401D01*
X133209161Y-123202148D01*
X133500000Y-123260000D01*
X146000000Y-123260000D01*
X146290839Y-123202148D01*
X146537401Y-123037401D01*
X146927362Y-122647440D01*
X146950000Y-122647440D01*
X147185317Y-122603162D01*
X147248478Y-122562519D01*
X147298110Y-122596431D01*
X147550000Y-122647440D01*
X148450000Y-122647440D01*
X148685317Y-122603162D01*
X148748478Y-122562519D01*
X148798110Y-122596431D01*
X149050000Y-122647440D01*
X149950000Y-122647440D01*
X150185317Y-122603162D01*
X150248567Y-122562462D01*
X150423690Y-122635000D01*
X150714250Y-122635000D01*
X150873000Y-122476250D01*
X150873000Y-121127000D01*
X150853000Y-121127000D01*
X150853000Y-120873000D01*
X150873000Y-120873000D01*
X150873000Y-120853000D01*
X151127000Y-120853000D01*
X151127000Y-120873000D01*
X151147000Y-120873000D01*
X151147000Y-121127000D01*
X151127000Y-121127000D01*
X151127000Y-122476250D01*
X151285750Y-122635000D01*
X151576310Y-122635000D01*
X151749541Y-122563245D01*
X151798110Y-122596431D01*
X152050000Y-122647440D01*
X152950000Y-122647440D01*
X153185317Y-122603162D01*
X153248478Y-122562519D01*
X153298110Y-122596431D01*
X153550000Y-122647440D01*
X154450000Y-122647440D01*
X154685317Y-122603162D01*
X154748478Y-122562519D01*
X154798110Y-122596431D01*
X155050000Y-122647440D01*
X155950000Y-122647440D01*
X156185317Y-122603162D01*
X156248478Y-122562519D01*
X156298110Y-122596431D01*
X156550000Y-122647440D01*
X157450000Y-122647440D01*
X157685317Y-122603162D01*
X157748567Y-122562462D01*
X157923690Y-122635000D01*
X158214250Y-122635000D01*
X158373000Y-122476250D01*
X158373000Y-121127000D01*
X158627000Y-121127000D01*
X158627000Y-122476250D01*
X158785750Y-122635000D01*
X159076310Y-122635000D01*
X159309699Y-122538327D01*
X159488327Y-122359698D01*
X159585000Y-122126309D01*
X159585000Y-121594407D01*
X162274012Y-121594407D01*
X163500000Y-122820395D01*
X164725988Y-121594407D01*
X164584522Y-121291218D01*
X163848045Y-121006263D01*
X163058582Y-121024836D01*
X162415478Y-121291218D01*
X162274012Y-121594407D01*
X159585000Y-121594407D01*
X159585000Y-121285750D01*
X159426250Y-121127000D01*
X158627000Y-121127000D01*
X158373000Y-121127000D01*
X158353000Y-121127000D01*
X158353000Y-120873000D01*
X158373000Y-120873000D01*
X158373000Y-119523750D01*
X158627000Y-119523750D01*
X158627000Y-120873000D01*
X159426250Y-120873000D01*
X159585000Y-120714250D01*
X159585000Y-119873691D01*
X159488327Y-119640302D01*
X159309699Y-119461673D01*
X159076310Y-119365000D01*
X158785750Y-119365000D01*
X158627000Y-119523750D01*
X158373000Y-119523750D01*
X158214250Y-119365000D01*
X157923690Y-119365000D01*
X157750459Y-119436755D01*
X157701890Y-119403569D01*
X157450000Y-119352560D01*
X156550000Y-119352560D01*
X156314683Y-119396838D01*
X156251522Y-119437481D01*
X156201890Y-119403569D01*
X155950000Y-119352560D01*
X155050000Y-119352560D01*
X154814683Y-119396838D01*
X154751522Y-119437481D01*
X154746942Y-119434351D01*
X154702148Y-119209161D01*
X154537401Y-118962599D01*
X154037401Y-118462599D01*
X153790839Y-118297852D01*
X153500000Y-118240000D01*
X152814802Y-118240000D01*
X152760000Y-118185198D01*
X152760000Y-105814802D01*
X152814802Y-105760000D01*
X159500000Y-105760000D01*
X159790839Y-105702148D01*
X160037401Y-105537401D01*
X160537401Y-105037401D01*
X160702148Y-104790839D01*
X160760000Y-104500000D01*
X160760000Y-100000000D01*
X160702148Y-99709161D01*
X160537401Y-99462599D01*
X159812401Y-98737599D01*
X159565839Y-98572852D01*
X159446639Y-98549141D01*
X159414090Y-98498559D01*
X159201890Y-98353569D01*
X158950000Y-98302560D01*
X158050000Y-98302560D01*
X157814683Y-98346838D01*
X157598559Y-98485910D01*
X157453569Y-98698110D01*
X157402560Y-98950000D01*
X157402560Y-99115000D01*
X156597440Y-99115000D01*
X156597440Y-98950000D01*
X156553162Y-98714683D01*
X156414090Y-98498559D01*
X156380094Y-98475330D01*
X156317633Y-98161326D01*
X156317633Y-98161325D01*
X156233226Y-98035000D01*
X160225331Y-98035000D01*
X160235910Y-98051441D01*
X160448110Y-98196431D01*
X160700000Y-98247440D01*
X163790000Y-98247440D01*
X163790000Y-99500000D01*
X163844046Y-99771705D01*
X163997954Y-100002046D01*
X164228295Y-100155954D01*
X164500000Y-100210000D01*
X169290000Y-100210000D01*
X169290000Y-123930070D01*
X169255074Y-124105655D01*
X169195225Y-124195226D01*
X169105655Y-124255074D01*
X168930070Y-124290000D01*
X164969608Y-124290000D01*
X164905595Y-124225987D01*
X165208782Y-124084522D01*
X165493737Y-123348045D01*
X165475164Y-122558582D01*
X165208782Y-121915478D01*
X164905593Y-121774012D01*
X163679605Y-123000000D01*
X163693748Y-123014143D01*
X163514143Y-123193748D01*
X163500000Y-123179605D01*
X163485858Y-123193748D01*
X163306253Y-123014143D01*
X163320395Y-123000000D01*
X162094407Y-121774012D01*
X161791218Y-121915478D01*
X161506263Y-122651955D01*
X161524836Y-123441418D01*
X161791218Y-124084522D01*
X162094405Y-124225987D01*
X162030392Y-124290000D01*
X129469608Y-124290000D01*
X129405595Y-124225987D01*
X129708782Y-124084522D01*
X129993737Y-123348045D01*
X129975164Y-122558582D01*
X129708782Y-121915478D01*
X129405593Y-121774012D01*
X128179605Y-123000000D01*
X128193748Y-123014143D01*
X128014143Y-123193748D01*
X128000000Y-123179605D01*
X127985858Y-123193748D01*
X127806253Y-123014143D01*
X127820395Y-123000000D01*
X127806253Y-122985858D01*
X127985858Y-122806253D01*
X128000000Y-122820395D01*
X129225988Y-121594407D01*
X129084522Y-121291218D01*
X128842149Y-121197440D01*
X128950000Y-121197440D01*
X129185317Y-121153162D01*
X129401441Y-121014090D01*
X129444332Y-120951318D01*
X129565839Y-120927148D01*
X129812401Y-120762401D01*
X130537401Y-120037401D01*
X130702148Y-119790839D01*
X130760000Y-119500000D01*
X130760000Y-111062463D01*
X130792192Y-111030327D01*
X130934838Y-110686799D01*
X130935136Y-110345000D01*
X133659260Y-110345000D01*
X133807630Y-110493629D01*
X134320900Y-110706757D01*
X134876661Y-110707242D01*
X135390303Y-110495010D01*
X135783629Y-110102370D01*
X135996757Y-109589100D01*
X135997242Y-109033339D01*
X135884611Y-108760750D01*
X137915000Y-108760750D01*
X137915000Y-109226309D01*
X138011673Y-109459698D01*
X138190301Y-109638327D01*
X138423690Y-109735000D01*
X138714250Y-109735000D01*
X138873000Y-109576250D01*
X138873000Y-108602000D01*
X139127000Y-108602000D01*
X139127000Y-109576250D01*
X139285750Y-109735000D01*
X139576310Y-109735000D01*
X139809699Y-109638327D01*
X139988327Y-109459698D01*
X140085000Y-109226309D01*
X140085000Y-108760750D01*
X139926250Y-108602000D01*
X139127000Y-108602000D01*
X138873000Y-108602000D01*
X138073750Y-108602000D01*
X137915000Y-108760750D01*
X135884611Y-108760750D01*
X135785010Y-108519697D01*
X135392370Y-108126371D01*
X135200273Y-108046605D01*
X135331143Y-107992397D01*
X135400608Y-107750213D01*
X135374086Y-107723691D01*
X137915000Y-107723691D01*
X137915000Y-108189250D01*
X138073750Y-108348000D01*
X138873000Y-108348000D01*
X138873000Y-107373750D01*
X139127000Y-107373750D01*
X139127000Y-108348000D01*
X139926250Y-108348000D01*
X140085000Y-108189250D01*
X140085000Y-107850000D01*
X140902560Y-107850000D01*
X140902560Y-109100000D01*
X140946838Y-109335317D01*
X141085910Y-109551441D01*
X141298110Y-109696431D01*
X141550000Y-109747440D01*
X142450000Y-109747440D01*
X142685317Y-109703162D01*
X142901441Y-109564090D01*
X143046431Y-109351890D01*
X143097440Y-109100000D01*
X143097440Y-107850000D01*
X143053162Y-107614683D01*
X142914090Y-107398559D01*
X142701890Y-107253569D01*
X142450000Y-107202560D01*
X141550000Y-107202560D01*
X141314683Y-107246838D01*
X141098559Y-107385910D01*
X140953569Y-107598110D01*
X140902560Y-107850000D01*
X140085000Y-107850000D01*
X140085000Y-107723691D01*
X139988327Y-107490302D01*
X139809699Y-107311673D01*
X139576310Y-107215000D01*
X139285750Y-107215000D01*
X139127000Y-107373750D01*
X138873000Y-107373750D01*
X138714250Y-107215000D01*
X138423690Y-107215000D01*
X138190301Y-107311673D01*
X138011673Y-107490302D01*
X137915000Y-107723691D01*
X135374086Y-107723691D01*
X134600000Y-106949605D01*
X133799392Y-107750213D01*
X133868857Y-107992397D01*
X134009318Y-108042509D01*
X133809697Y-108124990D01*
X133659425Y-108275000D01*
X130898214Y-108275000D01*
X130934838Y-108186799D01*
X130935162Y-107814833D01*
X130860000Y-107632927D01*
X130860000Y-106562302D01*
X133190856Y-106562302D01*
X133218638Y-107117368D01*
X133377603Y-107501143D01*
X133619787Y-107570608D01*
X134420395Y-106770000D01*
X134779605Y-106770000D01*
X135580213Y-107570608D01*
X135822397Y-107501143D01*
X136009144Y-106977698D01*
X135981362Y-106422632D01*
X135822397Y-106038857D01*
X135580213Y-105969392D01*
X134779605Y-106770000D01*
X134420395Y-106770000D01*
X133619787Y-105969392D01*
X133377603Y-106038857D01*
X133190856Y-106562302D01*
X130860000Y-106562302D01*
X130860000Y-98879162D01*
X130865317Y-98878162D01*
X131081441Y-98739090D01*
X131226431Y-98526890D01*
X131277440Y-98275000D01*
X131277440Y-97625000D01*
X131251081Y-97484914D01*
X131265000Y-97451310D01*
X131265000Y-97285750D01*
X131790000Y-97285750D01*
X131790000Y-97701309D01*
X131886673Y-97934698D01*
X132065301Y-98113327D01*
X132298690Y-98210000D01*
X132714250Y-98210000D01*
X132873000Y-98051250D01*
X132873000Y-97127000D01*
X131948750Y-97127000D01*
X131790000Y-97285750D01*
X131265000Y-97285750D01*
X131106250Y-97127000D01*
X131025949Y-97127000D01*
X130881890Y-97028569D01*
X130744880Y-97000824D01*
X130865317Y-96978162D01*
X131028743Y-96873000D01*
X131106250Y-96873000D01*
X131265000Y-96714250D01*
X131265000Y-96548690D01*
X131249732Y-96511829D01*
X131277440Y-96375000D01*
X131277440Y-96035000D01*
X131916975Y-96035000D01*
X131886673Y-96065302D01*
G36*
X150240000Y-106814802D02*
X150240000Y-117685198D01*
X150185198Y-117740000D01*
X148500000Y-117740000D01*
X148209161Y-117797852D01*
X147962599Y-117962599D01*
X147462599Y-118462599D01*
X147297852Y-118709161D01*
X147240000Y-119000000D01*
X147240000Y-119429608D01*
X147201890Y-119403569D01*
X146950000Y-119352560D01*
X146050000Y-119352560D01*
X145814683Y-119396838D01*
X145598559Y-119535910D01*
X145453569Y-119748110D01*
X145402560Y-120000000D01*
X145402560Y-121740000D01*
X133814802Y-121740000D01*
X133760000Y-121685198D01*
X133760000Y-121105105D01*
X133901441Y-121014090D01*
X134046431Y-120801890D01*
X134097440Y-120550000D01*
X134097440Y-120510750D01*
X136415000Y-120510750D01*
X136415000Y-120676309D01*
X136511673Y-120909698D01*
X136690301Y-121088327D01*
X136923690Y-121185000D01*
X137214250Y-121185000D01*
X137373000Y-121026250D01*
X137373000Y-120352000D01*
X137627000Y-120352000D01*
X137627000Y-121026250D01*
X137785750Y-121185000D01*
X138076310Y-121185000D01*
X138309699Y-121088327D01*
X138488327Y-120909698D01*
X138585000Y-120676309D01*
X138585000Y-120510750D01*
X138426250Y-120352000D01*
X137627000Y-120352000D01*
X137373000Y-120352000D01*
X136573750Y-120352000D01*
X136415000Y-120510750D01*
X134097440Y-120510750D01*
X134097440Y-119900000D01*
X134053162Y-119664683D01*
X133946241Y-119498523D01*
X134046431Y-119351890D01*
X134097440Y-119100000D01*
X134097440Y-118450000D01*
X134053162Y-118214683D01*
X133914090Y-117998559D01*
X133760000Y-117893274D01*
X133760000Y-117508646D01*
X133811800Y-117487243D01*
X134215824Y-117083923D01*
X134434750Y-116556691D01*
X134435248Y-115985813D01*
X134217243Y-115458200D01*
X133813923Y-115054176D01*
X133683785Y-115000138D01*
X133811800Y-114947243D01*
X134144623Y-114615000D01*
X136355829Y-114615000D01*
X136686077Y-114945824D01*
X136816215Y-114999862D01*
X136688200Y-115052757D01*
X136284176Y-115456077D01*
X136065250Y-115983309D01*
X136064752Y-116554187D01*
X136282757Y-117081800D01*
X136686077Y-117485824D01*
X136740000Y-117508215D01*
X136740000Y-117894895D01*
X136598559Y-117985910D01*
X136453569Y-118198110D01*
X136402560Y-118450000D01*
X136402560Y-119100000D01*
X136446838Y-119335317D01*
X136552482Y-119499493D01*
X136511673Y-119540302D01*
X136415000Y-119773691D01*
X136415000Y-119939250D01*
X136573750Y-120098000D01*
X137373000Y-120098000D01*
X137373000Y-120078000D01*
X137627000Y-120078000D01*
X137627000Y-120098000D01*
X138426250Y-120098000D01*
X138585000Y-119939250D01*
X138585000Y-119773691D01*
X138488327Y-119540302D01*
X138446366Y-119498340D01*
X138546431Y-119351890D01*
X138597440Y-119100000D01*
X138597440Y-118450000D01*
X138553162Y-118214683D01*
X138414090Y-117998559D01*
X138260000Y-117893274D01*
X138260000Y-117508646D01*
X138311800Y-117487243D01*
X138715824Y-117083923D01*
X138934750Y-116556691D01*
X138935248Y-115985813D01*
X138717243Y-115458200D01*
X138313923Y-115054176D01*
X138183785Y-115000138D01*
X138311800Y-114947243D01*
X138644623Y-114615000D01*
X143269995Y-114615000D01*
X143270000Y-114615001D01*
X143552484Y-114558810D01*
X143608675Y-114547633D01*
X143895790Y-114355790D01*
X144625787Y-113625792D01*
X144625790Y-113625790D01*
X144817633Y-113338675D01*
X144828810Y-113282484D01*
X144885001Y-113000000D01*
X144885000Y-112999995D01*
X144885000Y-107306822D01*
X144934838Y-107186799D01*
X144935162Y-106814833D01*
X144912506Y-106760000D01*
X150185198Y-106760000D01*
X150240000Y-106814802D01*
X150240000Y-106814802D01*
G37*
X150240000Y-106814802D02*
X150240000Y-117685198D01*
X150185198Y-117740000D01*
X148500000Y-117740000D01*
X148209161Y-117797852D01*
X147962599Y-117962599D01*
X147462599Y-118462599D01*
X147297852Y-118709161D01*
X147240000Y-119000000D01*
X147240000Y-119429608D01*
X147201890Y-119403569D01*
X146950000Y-119352560D01*
X146050000Y-119352560D01*
X145814683Y-119396838D01*
X145598559Y-119535910D01*
X145453569Y-119748110D01*
X145402560Y-120000000D01*
X145402560Y-121740000D01*
X133814802Y-121740000D01*
X133760000Y-121685198D01*
X133760000Y-121105105D01*
X133901441Y-121014090D01*
X134046431Y-120801890D01*
X134097440Y-120550000D01*
X134097440Y-120510750D01*
X136415000Y-120510750D01*
X136415000Y-120676309D01*
X136511673Y-120909698D01*
X136690301Y-121088327D01*
X136923690Y-121185000D01*
X137214250Y-121185000D01*
X137373000Y-121026250D01*
X137373000Y-120352000D01*
X137627000Y-120352000D01*
X137627000Y-121026250D01*
X137785750Y-121185000D01*
X138076310Y-121185000D01*
X138309699Y-121088327D01*
X138488327Y-120909698D01*
X138585000Y-120676309D01*
X138585000Y-120510750D01*
X138426250Y-120352000D01*
X137627000Y-120352000D01*
X137373000Y-120352000D01*
X136573750Y-120352000D01*
X136415000Y-120510750D01*
X134097440Y-120510750D01*
X134097440Y-119900000D01*
X134053162Y-119664683D01*
X133946241Y-119498523D01*
X134046431Y-119351890D01*
X134097440Y-119100000D01*
X134097440Y-118450000D01*
X134053162Y-118214683D01*
X133914090Y-117998559D01*
X133760000Y-117893274D01*
X133760000Y-117508646D01*
X133811800Y-117487243D01*
X134215824Y-117083923D01*
X134434750Y-116556691D01*
X134435248Y-115985813D01*
X134217243Y-115458200D01*
X133813923Y-115054176D01*
X133683785Y-115000138D01*
X133811800Y-114947243D01*
X134144623Y-114615000D01*
X136355829Y-114615000D01*
X136686077Y-114945824D01*
X136816215Y-114999862D01*
X136688200Y-115052757D01*
X136284176Y-115456077D01*
X136065250Y-115983309D01*
X136064752Y-116554187D01*
X136282757Y-117081800D01*
X136686077Y-117485824D01*
X136740000Y-117508215D01*
X136740000Y-117894895D01*
X136598559Y-117985910D01*
X136453569Y-118198110D01*
X136402560Y-118450000D01*
X136402560Y-119100000D01*
X136446838Y-119335317D01*
X136552482Y-119499493D01*
X136511673Y-119540302D01*
X136415000Y-119773691D01*
X136415000Y-119939250D01*
X136573750Y-120098000D01*
X137373000Y-120098000D01*
X137373000Y-120078000D01*
X137627000Y-120078000D01*
X137627000Y-120098000D01*
X138426250Y-120098000D01*
X138585000Y-119939250D01*
X138585000Y-119773691D01*
X138488327Y-119540302D01*
X138446366Y-119498340D01*
X138546431Y-119351890D01*
X138597440Y-119100000D01*
X138597440Y-118450000D01*
X138553162Y-118214683D01*
X138414090Y-117998559D01*
X138260000Y-117893274D01*
X138260000Y-117508646D01*
X138311800Y-117487243D01*
X138715824Y-117083923D01*
X138934750Y-116556691D01*
X138935248Y-115985813D01*
X138717243Y-115458200D01*
X138313923Y-115054176D01*
X138183785Y-115000138D01*
X138311800Y-114947243D01*
X138644623Y-114615000D01*
X143269995Y-114615000D01*
X143270000Y-114615001D01*
X143552484Y-114558810D01*
X143608675Y-114547633D01*
X143895790Y-114355790D01*
X144625787Y-113625792D01*
X144625790Y-113625790D01*
X144817633Y-113338675D01*
X144828810Y-113282484D01*
X144885001Y-113000000D01*
X144885000Y-112999995D01*
X144885000Y-107306822D01*
X144934838Y-107186799D01*
X144935162Y-106814833D01*
X144912506Y-106760000D01*
X150185198Y-106760000D01*
X150240000Y-106814802D01*
G36*
X146902560Y-100400000D02*
X146902560Y-101050000D01*
X146946838Y-101285317D01*
X146998113Y-101365000D01*
X146785750Y-101365000D01*
X146627000Y-101523750D01*
X146627000Y-102873000D01*
X146647000Y-102873000D01*
X146647000Y-103127000D01*
X146627000Y-103127000D01*
X146627000Y-103147000D01*
X146373000Y-103147000D01*
X146373000Y-103127000D01*
X145573750Y-103127000D01*
X145415000Y-103285750D01*
X145415000Y-104126309D01*
X145462092Y-104240000D01*
X144912747Y-104240000D01*
X144934838Y-104186799D01*
X144935162Y-103814833D01*
X144885000Y-103693431D01*
X144885000Y-101873691D01*
X145415000Y-101873691D01*
X145415000Y-102714250D01*
X145573750Y-102873000D01*
X146373000Y-102873000D01*
X146373000Y-101523750D01*
X146214250Y-101365000D01*
X145923690Y-101365000D01*
X145690301Y-101461673D01*
X145511673Y-101640302D01*
X145415000Y-101873691D01*
X144885000Y-101873691D01*
X144885000Y-100385000D01*
X146905598Y-100385000D01*
X146902560Y-100400000D01*
X146902560Y-100400000D01*
G37*
X146902560Y-100400000D02*
X146902560Y-101050000D01*
X146946838Y-101285317D01*
X146998113Y-101365000D01*
X146785750Y-101365000D01*
X146627000Y-101523750D01*
X146627000Y-102873000D01*
X146647000Y-102873000D01*
X146647000Y-103127000D01*
X146627000Y-103127000D01*
X146627000Y-103147000D01*
X146373000Y-103147000D01*
X146373000Y-103127000D01*
X145573750Y-103127000D01*
X145415000Y-103285750D01*
X145415000Y-104126309D01*
X145462092Y-104240000D01*
X144912747Y-104240000D01*
X144934838Y-104186799D01*
X144935162Y-103814833D01*
X144885000Y-103693431D01*
X144885000Y-101873691D01*
X145415000Y-101873691D01*
X145415000Y-102714250D01*
X145573750Y-102873000D01*
X146373000Y-102873000D01*
X146373000Y-101523750D01*
X146214250Y-101365000D01*
X145923690Y-101365000D01*
X145690301Y-101461673D01*
X145511673Y-101640302D01*
X145415000Y-101873691D01*
X144885000Y-101873691D01*
X144885000Y-100385000D01*
X146905598Y-100385000D01*
X146902560Y-100400000D01*
G36*
X153207808Y-98969673D02*
X153065162Y-99313201D01*
X153064838Y-99685167D01*
X153206883Y-100028943D01*
X153469673Y-100292192D01*
X153813201Y-100434838D01*
X154185167Y-100435162D01*
X154414640Y-100340346D01*
X154402560Y-100400000D01*
X154402560Y-101050000D01*
X154446838Y-101285317D01*
X154496117Y-101361899D01*
X154450000Y-101352560D01*
X153550000Y-101352560D01*
X153314683Y-101396838D01*
X153251522Y-101437481D01*
X153201890Y-101403569D01*
X152950000Y-101352560D01*
X152050000Y-101352560D01*
X152006175Y-101360806D01*
X152046431Y-101301890D01*
X152097440Y-101050000D01*
X152097440Y-100400000D01*
X152053162Y-100164683D01*
X151947518Y-100000507D01*
X151988327Y-99959698D01*
X152085000Y-99726309D01*
X152085000Y-99560750D01*
X151926250Y-99402000D01*
X151127000Y-99402000D01*
X151127000Y-99422000D01*
X150873000Y-99422000D01*
X150873000Y-99402000D01*
X150853000Y-99402000D01*
X150853000Y-99148000D01*
X150873000Y-99148000D01*
X150873000Y-99128000D01*
X151127000Y-99128000D01*
X151127000Y-99148000D01*
X151926250Y-99148000D01*
X152085000Y-98989250D01*
X152085000Y-98885000D01*
X153292629Y-98885000D01*
X153207808Y-98969673D01*
X153207808Y-98969673D01*
G37*
X153207808Y-98969673D02*
X153065162Y-99313201D01*
X153064838Y-99685167D01*
X153206883Y-100028943D01*
X153469673Y-100292192D01*
X153813201Y-100434838D01*
X154185167Y-100435162D01*
X154414640Y-100340346D01*
X154402560Y-100400000D01*
X154402560Y-101050000D01*
X154446838Y-101285317D01*
X154496117Y-101361899D01*
X154450000Y-101352560D01*
X153550000Y-101352560D01*
X153314683Y-101396838D01*
X153251522Y-101437481D01*
X153201890Y-101403569D01*
X152950000Y-101352560D01*
X152050000Y-101352560D01*
X152006175Y-101360806D01*
X152046431Y-101301890D01*
X152097440Y-101050000D01*
X152097440Y-100400000D01*
X152053162Y-100164683D01*
X151947518Y-100000507D01*
X151988327Y-99959698D01*
X152085000Y-99726309D01*
X152085000Y-99560750D01*
X151926250Y-99402000D01*
X151127000Y-99402000D01*
X151127000Y-99422000D01*
X150873000Y-99422000D01*
X150873000Y-99402000D01*
X150853000Y-99402000D01*
X150853000Y-99148000D01*
X150873000Y-99148000D01*
X150873000Y-99128000D01*
X151127000Y-99128000D01*
X151127000Y-99148000D01*
X151926250Y-99148000D01*
X152085000Y-98989250D01*
X152085000Y-98885000D01*
X153292629Y-98885000D01*
X153207808Y-98969673D01*
G36*
X126722560Y-96375000D02*
X126766838Y-96610317D01*
X126905910Y-96826441D01*
X127108698Y-96965000D01*
X125983025Y-96965000D01*
X125988327Y-96959698D01*
X126085000Y-96726309D01*
X126085000Y-96560750D01*
X125926250Y-96402000D01*
X125127000Y-96402000D01*
X125127000Y-96422000D01*
X124873000Y-96422000D01*
X124873000Y-96402000D01*
X124853000Y-96402000D01*
X124853000Y-96148000D01*
X124873000Y-96148000D01*
X124873000Y-96128000D01*
X125127000Y-96128000D01*
X125127000Y-96148000D01*
X125926250Y-96148000D01*
X126039250Y-96035000D01*
X126722560Y-96035000D01*
X126722560Y-96375000D01*
X126722560Y-96375000D01*
G37*
X126722560Y-96375000D02*
X126766838Y-96610317D01*
X126905910Y-96826441D01*
X127108698Y-96965000D01*
X125983025Y-96965000D01*
X125988327Y-96959698D01*
X126085000Y-96726309D01*
X126085000Y-96560750D01*
X125926250Y-96402000D01*
X125127000Y-96402000D01*
X125127000Y-96422000D01*
X124873000Y-96422000D01*
X124873000Y-96402000D01*
X124853000Y-96402000D01*
X124853000Y-96148000D01*
X124873000Y-96148000D01*
X124873000Y-96128000D01*
X125127000Y-96128000D01*
X125127000Y-96148000D01*
X125926250Y-96148000D01*
X126039250Y-96035000D01*
X126722560Y-96035000D01*
X126722560Y-96375000D01*
G36*
X156436371Y-86897630D02*
X156223243Y-87410900D01*
X156222758Y-87966661D01*
X156434990Y-88480303D01*
X156735000Y-88780837D01*
X156735000Y-89139522D01*
X156529163Y-89345000D01*
X154770000Y-89345000D01*
X154431325Y-89412367D01*
X154144210Y-89604210D01*
X154144208Y-89604213D01*
X153374210Y-90374210D01*
X153182367Y-90661325D01*
X153177021Y-90688200D01*
X153114999Y-91000000D01*
X153115000Y-91000005D01*
X153115000Y-95193178D01*
X153065162Y-95313201D01*
X153064838Y-95685167D01*
X153180462Y-95965000D01*
X143620670Y-95965000D01*
X143776757Y-95589100D01*
X143777242Y-95033339D01*
X143565010Y-94519697D01*
X143415000Y-94369425D01*
X143415000Y-93710740D01*
X143563629Y-93562370D01*
X143776757Y-93049100D01*
X143777242Y-92493339D01*
X143565010Y-91979697D01*
X143172370Y-91586371D01*
X142980273Y-91506605D01*
X143111143Y-91452397D01*
X143180608Y-91210213D01*
X142380000Y-90409605D01*
X142365858Y-90423748D01*
X142186253Y-90244143D01*
X142200395Y-90230000D01*
X142559605Y-90230000D01*
X143360213Y-91030608D01*
X143602397Y-90961143D01*
X143789144Y-90437698D01*
X143761362Y-89882632D01*
X143602397Y-89498857D01*
X143360213Y-89429392D01*
X142559605Y-90230000D01*
X142200395Y-90230000D01*
X142186253Y-90215858D01*
X142365858Y-90036253D01*
X142380000Y-90050395D01*
X143180608Y-89249787D01*
X143111143Y-89007603D01*
X142970682Y-88957491D01*
X143170303Y-88875010D01*
X143563629Y-88482370D01*
X143776757Y-87969100D01*
X143777242Y-87413339D01*
X143565010Y-86899697D01*
X143375644Y-86710000D01*
X156624329Y-86710000D01*
X156436371Y-86897630D01*
X156436371Y-86897630D01*
G37*
X156436371Y-86897630D02*
X156223243Y-87410900D01*
X156222758Y-87966661D01*
X156434990Y-88480303D01*
X156735000Y-88780837D01*
X156735000Y-89139522D01*
X156529163Y-89345000D01*
X154770000Y-89345000D01*
X154431325Y-89412367D01*
X154144210Y-89604210D01*
X154144208Y-89604213D01*
X153374210Y-90374210D01*
X153182367Y-90661325D01*
X153177021Y-90688200D01*
X153114999Y-91000000D01*
X153115000Y-91000005D01*
X153115000Y-95193178D01*
X153065162Y-95313201D01*
X153064838Y-95685167D01*
X153180462Y-95965000D01*
X143620670Y-95965000D01*
X143776757Y-95589100D01*
X143777242Y-95033339D01*
X143565010Y-94519697D01*
X143415000Y-94369425D01*
X143415000Y-93710740D01*
X143563629Y-93562370D01*
X143776757Y-93049100D01*
X143777242Y-92493339D01*
X143565010Y-91979697D01*
X143172370Y-91586371D01*
X142980273Y-91506605D01*
X143111143Y-91452397D01*
X143180608Y-91210213D01*
X142380000Y-90409605D01*
X142365858Y-90423748D01*
X142186253Y-90244143D01*
X142200395Y-90230000D01*
X142559605Y-90230000D01*
X143360213Y-91030608D01*
X143602397Y-90961143D01*
X143789144Y-90437698D01*
X143761362Y-89882632D01*
X143602397Y-89498857D01*
X143360213Y-89429392D01*
X142559605Y-90230000D01*
X142200395Y-90230000D01*
X142186253Y-90215858D01*
X142365858Y-90036253D01*
X142380000Y-90050395D01*
X143180608Y-89249787D01*
X143111143Y-89007603D01*
X142970682Y-88957491D01*
X143170303Y-88875010D01*
X143563629Y-88482370D01*
X143776757Y-87969100D01*
X143777242Y-87413339D01*
X143565010Y-86899697D01*
X143375644Y-86710000D01*
X156624329Y-86710000D01*
X156436371Y-86897630D01*
G36*
X162094405Y-86774013D02*
X161791218Y-86915478D01*
X161506263Y-87651955D01*
X161524836Y-88441418D01*
X161791218Y-89084522D01*
X162094407Y-89225988D01*
X163320395Y-88000000D01*
X163306253Y-87985858D01*
X163485858Y-87806253D01*
X163500000Y-87820395D01*
X163514143Y-87806253D01*
X163693748Y-87985858D01*
X163679605Y-88000000D01*
X164905593Y-89225988D01*
X165208782Y-89084522D01*
X165493737Y-88348045D01*
X165475164Y-87558582D01*
X165208782Y-86915478D01*
X164905595Y-86774013D01*
X164969608Y-86710000D01*
X168930070Y-86710000D01*
X169105655Y-86744926D01*
X169195225Y-86804774D01*
X169255074Y-86894345D01*
X169290000Y-87069930D01*
X169290000Y-91790000D01*
X164500000Y-91790000D01*
X164228295Y-91844046D01*
X163997954Y-91997954D01*
X163844046Y-92228295D01*
X163790000Y-92500000D01*
X163790000Y-93765000D01*
X162685750Y-93765000D01*
X162527000Y-93923750D01*
X162527000Y-94873000D01*
X162547000Y-94873000D01*
X162547000Y-95127000D01*
X162527000Y-95127000D01*
X162527000Y-95147000D01*
X162273000Y-95147000D01*
X162273000Y-95127000D01*
X160223750Y-95127000D01*
X160065000Y-95285750D01*
X160065000Y-95726309D01*
X160161673Y-95959698D01*
X160166975Y-95965000D01*
X158869562Y-95965000D01*
X159029144Y-95517698D01*
X159001362Y-94962632D01*
X158842397Y-94578857D01*
X158600213Y-94509392D01*
X157799605Y-95310000D01*
X157813748Y-95324143D01*
X157634143Y-95503748D01*
X157620000Y-95489605D01*
X157605858Y-95503748D01*
X157426253Y-95324143D01*
X157440395Y-95310000D01*
X156639787Y-94509392D01*
X156397603Y-94578857D01*
X156210856Y-95102302D01*
X156238638Y-95657368D01*
X156366063Y-95965000D01*
X154819318Y-95965000D01*
X154934838Y-95686799D01*
X154935162Y-95314833D01*
X154885000Y-95193431D01*
X154885000Y-93750213D01*
X156819392Y-93750213D01*
X156888857Y-93992397D01*
X157012344Y-94036453D01*
X156888857Y-94087603D01*
X156819392Y-94329787D01*
X157620000Y-95130395D01*
X158420608Y-94329787D01*
X158404519Y-94273691D01*
X160065000Y-94273691D01*
X160065000Y-94714250D01*
X160223750Y-94873000D01*
X162273000Y-94873000D01*
X162273000Y-93923750D01*
X162114250Y-93765000D01*
X160573690Y-93765000D01*
X160340301Y-93861673D01*
X160161673Y-94040302D01*
X160065000Y-94273691D01*
X158404519Y-94273691D01*
X158351143Y-94087603D01*
X158227656Y-94043547D01*
X158351143Y-93992397D01*
X158420608Y-93750213D01*
X157620000Y-92949605D01*
X156819392Y-93750213D01*
X154885000Y-93750213D01*
X154885000Y-92562302D01*
X156210856Y-92562302D01*
X156238638Y-93117368D01*
X156397603Y-93501143D01*
X156639787Y-93570608D01*
X157440395Y-92770000D01*
X157799605Y-92770000D01*
X158600213Y-93570608D01*
X158842397Y-93501143D01*
X159029144Y-92977698D01*
X159001362Y-92422632D01*
X158842397Y-92038857D01*
X158600213Y-91969392D01*
X157799605Y-92770000D01*
X157440395Y-92770000D01*
X156639787Y-91969392D01*
X156397603Y-92038857D01*
X156210856Y-92562302D01*
X154885000Y-92562302D01*
X154885000Y-91366580D01*
X155136579Y-91115000D01*
X156529522Y-91115000D01*
X156827630Y-91413629D01*
X157019727Y-91493395D01*
X156888857Y-91547603D01*
X156819392Y-91789787D01*
X157620000Y-92590395D01*
X158420608Y-91789787D01*
X158351143Y-91547603D01*
X158210682Y-91497491D01*
X158410303Y-91415010D01*
X158803629Y-91022370D01*
X159016757Y-90509100D01*
X159017242Y-89953339D01*
X158805010Y-89439697D01*
X158770966Y-89405593D01*
X162274012Y-89405593D01*
X162415478Y-89708782D01*
X163151955Y-89993737D01*
X163941418Y-89975164D01*
X164584522Y-89708782D01*
X164725988Y-89405593D01*
X163500000Y-88179605D01*
X162274012Y-89405593D01*
X158770966Y-89405593D01*
X158505000Y-89139163D01*
X158505000Y-88780478D01*
X158803629Y-88482370D01*
X159016757Y-87969100D01*
X159017242Y-87413339D01*
X158805010Y-86899697D01*
X158615644Y-86710000D01*
X162030392Y-86710000D01*
X162094405Y-86774013D01*
X162094405Y-86774013D01*
G37*
X162094405Y-86774013D02*
X161791218Y-86915478D01*
X161506263Y-87651955D01*
X161524836Y-88441418D01*
X161791218Y-89084522D01*
X162094407Y-89225988D01*
X163320395Y-88000000D01*
X163306253Y-87985858D01*
X163485858Y-87806253D01*
X163500000Y-87820395D01*
X163514143Y-87806253D01*
X163693748Y-87985858D01*
X163679605Y-88000000D01*
X164905593Y-89225988D01*
X165208782Y-89084522D01*
X165493737Y-88348045D01*
X165475164Y-87558582D01*
X165208782Y-86915478D01*
X164905595Y-86774013D01*
X164969608Y-86710000D01*
X168930070Y-86710000D01*
X169105655Y-86744926D01*
X169195225Y-86804774D01*
X169255074Y-86894345D01*
X169290000Y-87069930D01*
X169290000Y-91790000D01*
X164500000Y-91790000D01*
X164228295Y-91844046D01*
X163997954Y-91997954D01*
X163844046Y-92228295D01*
X163790000Y-92500000D01*
X163790000Y-93765000D01*
X162685750Y-93765000D01*
X162527000Y-93923750D01*
X162527000Y-94873000D01*
X162547000Y-94873000D01*
X162547000Y-95127000D01*
X162527000Y-95127000D01*
X162527000Y-95147000D01*
X162273000Y-95147000D01*
X162273000Y-95127000D01*
X160223750Y-95127000D01*
X160065000Y-95285750D01*
X160065000Y-95726309D01*
X160161673Y-95959698D01*
X160166975Y-95965000D01*
X158869562Y-95965000D01*
X159029144Y-95517698D01*
X159001362Y-94962632D01*
X158842397Y-94578857D01*
X158600213Y-94509392D01*
X157799605Y-95310000D01*
X157813748Y-95324143D01*
X157634143Y-95503748D01*
X157620000Y-95489605D01*
X157605858Y-95503748D01*
X157426253Y-95324143D01*
X157440395Y-95310000D01*
X156639787Y-94509392D01*
X156397603Y-94578857D01*
X156210856Y-95102302D01*
X156238638Y-95657368D01*
X156366063Y-95965000D01*
X154819318Y-95965000D01*
X154934838Y-95686799D01*
X154935162Y-95314833D01*
X154885000Y-95193431D01*
X154885000Y-93750213D01*
X156819392Y-93750213D01*
X156888857Y-93992397D01*
X157012344Y-94036453D01*
X156888857Y-94087603D01*
X156819392Y-94329787D01*
X157620000Y-95130395D01*
X158420608Y-94329787D01*
X158404519Y-94273691D01*
X160065000Y-94273691D01*
X160065000Y-94714250D01*
X160223750Y-94873000D01*
X162273000Y-94873000D01*
X162273000Y-93923750D01*
X162114250Y-93765000D01*
X160573690Y-93765000D01*
X160340301Y-93861673D01*
X160161673Y-94040302D01*
X160065000Y-94273691D01*
X158404519Y-94273691D01*
X158351143Y-94087603D01*
X158227656Y-94043547D01*
X158351143Y-93992397D01*
X158420608Y-93750213D01*
X157620000Y-92949605D01*
X156819392Y-93750213D01*
X154885000Y-93750213D01*
X154885000Y-92562302D01*
X156210856Y-92562302D01*
X156238638Y-93117368D01*
X156397603Y-93501143D01*
X156639787Y-93570608D01*
X157440395Y-92770000D01*
X157799605Y-92770000D01*
X158600213Y-93570608D01*
X158842397Y-93501143D01*
X159029144Y-92977698D01*
X159001362Y-92422632D01*
X158842397Y-92038857D01*
X158600213Y-91969392D01*
X157799605Y-92770000D01*
X157440395Y-92770000D01*
X156639787Y-91969392D01*
X156397603Y-92038857D01*
X156210856Y-92562302D01*
X154885000Y-92562302D01*
X154885000Y-91366580D01*
X155136579Y-91115000D01*
X156529522Y-91115000D01*
X156827630Y-91413629D01*
X157019727Y-91493395D01*
X156888857Y-91547603D01*
X156819392Y-91789787D01*
X157620000Y-92590395D01*
X158420608Y-91789787D01*
X158351143Y-91547603D01*
X158210682Y-91497491D01*
X158410303Y-91415010D01*
X158803629Y-91022370D01*
X159016757Y-90509100D01*
X159017242Y-89953339D01*
X158805010Y-89439697D01*
X158770966Y-89405593D01*
X162274012Y-89405593D01*
X162415478Y-89708782D01*
X163151955Y-89993737D01*
X163941418Y-89975164D01*
X164584522Y-89708782D01*
X164725988Y-89405593D01*
X163500000Y-88179605D01*
X162274012Y-89405593D01*
X158770966Y-89405593D01*
X158505000Y-89139163D01*
X158505000Y-88780478D01*
X158803629Y-88482370D01*
X159016757Y-87969100D01*
X159017242Y-87413339D01*
X158805010Y-86899697D01*
X158615644Y-86710000D01*
X162030392Y-86710000D01*
X162094405Y-86774013D01*
G36*
X140913923Y-86733785D02*
X140578144Y-86958144D01*
X139768144Y-87768144D01*
X139543785Y-88103923D01*
X139464999Y-88500000D01*
X139465000Y-88500005D01*
X139465000Y-90465000D01*
X138534432Y-90465000D01*
X138353923Y-90284176D01*
X137826691Y-90065250D01*
X137255813Y-90064752D01*
X136728200Y-90282757D01*
X136324176Y-90686077D01*
X136270138Y-90816215D01*
X136217243Y-90688200D01*
X135813923Y-90284176D01*
X135286691Y-90065250D01*
X134715813Y-90064752D01*
X134188200Y-90282757D01*
X133784176Y-90686077D01*
X133730138Y-90816215D01*
X133677243Y-90688200D01*
X133273923Y-90284176D01*
X132746691Y-90065250D01*
X132175813Y-90064752D01*
X131648200Y-90282757D01*
X131244176Y-90686077D01*
X131025250Y-91213309D01*
X131024752Y-91784187D01*
X131242757Y-92311800D01*
X131646077Y-92715824D01*
X132173309Y-92934750D01*
X132744187Y-92935248D01*
X133271800Y-92717243D01*
X133675824Y-92313923D01*
X133729862Y-92183785D01*
X133782757Y-92311800D01*
X133965000Y-92494361D01*
X133965000Y-93922935D01*
X133826890Y-93828569D01*
X133575000Y-93777560D01*
X132425000Y-93777560D01*
X132189683Y-93821838D01*
X131973559Y-93960910D01*
X131970764Y-93965000D01*
X131210000Y-93965000D01*
X131210000Y-93785750D01*
X131051250Y-93627000D01*
X130127000Y-93627000D01*
X130127000Y-93647000D01*
X129873000Y-93647000D01*
X129873000Y-93627000D01*
X129853000Y-93627000D01*
X129853000Y-93373000D01*
X129873000Y-93373000D01*
X129873000Y-92448750D01*
X130127000Y-92448750D01*
X130127000Y-93373000D01*
X131051250Y-93373000D01*
X131210000Y-93214250D01*
X131210000Y-92798690D01*
X131113327Y-92565301D01*
X130934698Y-92386673D01*
X130701309Y-92290000D01*
X130285750Y-92290000D01*
X130127000Y-92448750D01*
X129873000Y-92448750D01*
X129714250Y-92290000D01*
X129298691Y-92290000D01*
X129065302Y-92386673D01*
X129003044Y-92448930D01*
X128826890Y-92328569D01*
X128575000Y-92277560D01*
X127425000Y-92277560D01*
X127189683Y-92321838D01*
X126973559Y-92460910D01*
X126828569Y-92673110D01*
X126777560Y-92925000D01*
X126777560Y-93965000D01*
X124000005Y-93965000D01*
X124000000Y-93964999D01*
X123621433Y-94040302D01*
X123603923Y-94043785D01*
X123268144Y-94268144D01*
X123268142Y-94268147D01*
X122710000Y-94826288D01*
X122710000Y-91569930D01*
X122744926Y-91394345D01*
X122804774Y-91304775D01*
X122894345Y-91244926D01*
X123069930Y-91210000D01*
X125000000Y-91210000D01*
X125068584Y-91196358D01*
X125138513Y-91196358D01*
X125521196Y-91120238D01*
X125596160Y-91089187D01*
X125777138Y-91014224D01*
X126101561Y-90797451D01*
X126184379Y-90714633D01*
X126297451Y-90601562D01*
X126514223Y-90277138D01*
X126585299Y-90105546D01*
X126620238Y-90021196D01*
X126696358Y-89638514D01*
X126696358Y-89568584D01*
X126710000Y-89500000D01*
X126710000Y-89469608D01*
X126774013Y-89405595D01*
X126915478Y-89708782D01*
X127651955Y-89993737D01*
X128441418Y-89975164D01*
X129084522Y-89708782D01*
X129225988Y-89405593D01*
X128000000Y-88179605D01*
X127985858Y-88193748D01*
X127806253Y-88014143D01*
X127820395Y-88000000D01*
X127806253Y-87985858D01*
X127985858Y-87806253D01*
X128000000Y-87820395D01*
X128014143Y-87806253D01*
X128193748Y-87985858D01*
X128179605Y-88000000D01*
X129405593Y-89225988D01*
X129708782Y-89084522D01*
X129993737Y-88348045D01*
X129975164Y-87558582D01*
X129708782Y-86915478D01*
X129405595Y-86774013D01*
X129469608Y-86710000D01*
X141033496Y-86710000D01*
X140913923Y-86733785D01*
X140913923Y-86733785D01*
G37*
X140913923Y-86733785D02*
X140578144Y-86958144D01*
X139768144Y-87768144D01*
X139543785Y-88103923D01*
X139464999Y-88500000D01*
X139465000Y-88500005D01*
X139465000Y-90465000D01*
X138534432Y-90465000D01*
X138353923Y-90284176D01*
X137826691Y-90065250D01*
X137255813Y-90064752D01*
X136728200Y-90282757D01*
X136324176Y-90686077D01*
X136270138Y-90816215D01*
X136217243Y-90688200D01*
X135813923Y-90284176D01*
X135286691Y-90065250D01*
X134715813Y-90064752D01*
X134188200Y-90282757D01*
X133784176Y-90686077D01*
X133730138Y-90816215D01*
X133677243Y-90688200D01*
X133273923Y-90284176D01*
X132746691Y-90065250D01*
X132175813Y-90064752D01*
X131648200Y-90282757D01*
X131244176Y-90686077D01*
X131025250Y-91213309D01*
X131024752Y-91784187D01*
X131242757Y-92311800D01*
X131646077Y-92715824D01*
X132173309Y-92934750D01*
X132744187Y-92935248D01*
X133271800Y-92717243D01*
X133675824Y-92313923D01*
X133729862Y-92183785D01*
X133782757Y-92311800D01*
X133965000Y-92494361D01*
X133965000Y-93922935D01*
X133826890Y-93828569D01*
X133575000Y-93777560D01*
X132425000Y-93777560D01*
X132189683Y-93821838D01*
X131973559Y-93960910D01*
X131970764Y-93965000D01*
X131210000Y-93965000D01*
X131210000Y-93785750D01*
X131051250Y-93627000D01*
X130127000Y-93627000D01*
X130127000Y-93647000D01*
X129873000Y-93647000D01*
X129873000Y-93627000D01*
X129853000Y-93627000D01*
X129853000Y-93373000D01*
X129873000Y-93373000D01*
X129873000Y-92448750D01*
X130127000Y-92448750D01*
X130127000Y-93373000D01*
X131051250Y-93373000D01*
X131210000Y-93214250D01*
X131210000Y-92798690D01*
X131113327Y-92565301D01*
X130934698Y-92386673D01*
X130701309Y-92290000D01*
X130285750Y-92290000D01*
X130127000Y-92448750D01*
X129873000Y-92448750D01*
X129714250Y-92290000D01*
X129298691Y-92290000D01*
X129065302Y-92386673D01*
X129003044Y-92448930D01*
X128826890Y-92328569D01*
X128575000Y-92277560D01*
X127425000Y-92277560D01*
X127189683Y-92321838D01*
X126973559Y-92460910D01*
X126828569Y-92673110D01*
X126777560Y-92925000D01*
X126777560Y-93965000D01*
X124000005Y-93965000D01*
X124000000Y-93964999D01*
X123621433Y-94040302D01*
X123603923Y-94043785D01*
X123268144Y-94268144D01*
X123268142Y-94268147D01*
X122710000Y-94826288D01*
X122710000Y-91569930D01*
X122744926Y-91394345D01*
X122804774Y-91304775D01*
X122894345Y-91244926D01*
X123069930Y-91210000D01*
X125000000Y-91210000D01*
X125068584Y-91196358D01*
X125138513Y-91196358D01*
X125521196Y-91120238D01*
X125596160Y-91089187D01*
X125777138Y-91014224D01*
X126101561Y-90797451D01*
X126184379Y-90714633D01*
X126297451Y-90601562D01*
X126514223Y-90277138D01*
X126585299Y-90105546D01*
X126620238Y-90021196D01*
X126696358Y-89638514D01*
X126696358Y-89568584D01*
X126710000Y-89500000D01*
X126710000Y-89469608D01*
X126774013Y-89405595D01*
X126915478Y-89708782D01*
X127651955Y-89993737D01*
X128441418Y-89975164D01*
X129084522Y-89708782D01*
X129225988Y-89405593D01*
X128000000Y-88179605D01*
X127985858Y-88193748D01*
X127806253Y-88014143D01*
X127820395Y-88000000D01*
X127806253Y-87985858D01*
X127985858Y-87806253D01*
X128000000Y-87820395D01*
X128014143Y-87806253D01*
X128193748Y-87985858D01*
X128179605Y-88000000D01*
X129405593Y-89225988D01*
X129708782Y-89084522D01*
X129993737Y-88348045D01*
X129975164Y-87558582D01*
X129708782Y-86915478D01*
X129405595Y-86774013D01*
X129469608Y-86710000D01*
X141033496Y-86710000D01*
X140913923Y-86733785D01*
M02*
