G04 #@! TF.FileFunction,Legend,Top*
%FSLAX46Y46*%
G04 Gerber Fmt 4.6, Leading zero omitted, Abs format (unit mm)*
G04 Created by KiCad (PCBNEW (2015-10-11 BZR 6260)-product) date 2015年11月29日日曜日 02:22:40*
%MOMM*%
G01*
G04 APERTURE LIST*
%ADD10C,0.100000*%
%ADD11C,0.150000*%
G04 APERTURE END LIST*
D10*
D11*
X127200000Y-92700000D02*
X127200000Y-94300000D01*
X127200000Y-94300000D02*
X130800000Y-94300000D01*
X130800000Y-94300000D02*
X130800000Y-92700000D01*
X130800000Y-92700000D02*
X127200000Y-92700000D01*
X133800000Y-94200000D02*
X132200000Y-94200000D01*
X132200000Y-94200000D02*
X132200000Y-97800000D01*
X132200000Y-97800000D02*
X133800000Y-97800000D01*
X133800000Y-97800000D02*
X133800000Y-94200000D01*
X156100000Y-98800000D02*
X154900000Y-98800000D01*
X154900000Y-98800000D02*
X154900000Y-101200000D01*
X154900000Y-101200000D02*
X156100000Y-101200000D01*
X156100000Y-101200000D02*
X156100000Y-98800000D01*
X157900000Y-101200000D02*
X159100000Y-101200000D01*
X159100000Y-101200000D02*
X159100000Y-98800000D01*
X159100000Y-98800000D02*
X157900000Y-98800000D01*
X157900000Y-98800000D02*
X157900000Y-101200000D01*
X150100000Y-98800000D02*
X148900000Y-98800000D01*
X148900000Y-98800000D02*
X148900000Y-101200000D01*
X148900000Y-101200000D02*
X150100000Y-101200000D01*
X150100000Y-101200000D02*
X150100000Y-98800000D01*
X150400000Y-101200000D02*
X151600000Y-101200000D01*
X151600000Y-101200000D02*
X151600000Y-98800000D01*
X151600000Y-98800000D02*
X150400000Y-98800000D01*
X150400000Y-98800000D02*
X150400000Y-101200000D01*
X148600000Y-98800000D02*
X147400000Y-98800000D01*
X147400000Y-98800000D02*
X147400000Y-101200000D01*
X147400000Y-101200000D02*
X148600000Y-101200000D01*
X148600000Y-101200000D02*
X148600000Y-98800000D01*
X129100000Y-118300000D02*
X127900000Y-118300000D01*
X127900000Y-118300000D02*
X127900000Y-120700000D01*
X127900000Y-120700000D02*
X129100000Y-120700000D01*
X129100000Y-120700000D02*
X129100000Y-118300000D01*
X138100000Y-118300000D02*
X136900000Y-118300000D01*
X136900000Y-118300000D02*
X136900000Y-120700000D01*
X136900000Y-120700000D02*
X138100000Y-120700000D01*
X138100000Y-120700000D02*
X138100000Y-118300000D01*
X133600000Y-118300000D02*
X132400000Y-118300000D01*
X132400000Y-118300000D02*
X132400000Y-120700000D01*
X132400000Y-120700000D02*
X133600000Y-120700000D01*
X133600000Y-120700000D02*
X133600000Y-118300000D01*
X122000000Y-100000000D02*
X137000000Y-100000000D01*
X122000000Y-111000000D02*
X137000000Y-111000000D01*
X137000000Y-111000000D02*
X137000000Y-100000000D01*
X122000000Y-100000000D02*
X122000000Y-111000000D01*
X129400000Y-98700000D02*
G75*
G03X129400000Y-98700000I-100000J0D01*
G01*
X128750000Y-98450000D02*
X129250000Y-98450000D01*
X128750000Y-95550000D02*
X128750000Y-98450000D01*
X129250000Y-95550000D02*
X128750000Y-95550000D01*
X129250000Y-98450000D02*
X129250000Y-95550000D01*
X159800000Y-103000000D02*
X159800000Y-121000000D01*
X145000000Y-103000000D02*
X145000000Y-121000000D01*
X145000000Y-121000000D02*
X165000000Y-121000000D01*
X165000000Y-121000000D02*
X165000000Y-103000000D01*
X165000000Y-103000000D02*
X145000000Y-103000000D01*
X141000000Y-86500000D02*
X141000000Y-96500000D01*
X141000000Y-96500000D02*
X159000000Y-96500000D01*
X159000000Y-96500000D02*
X159000000Y-86500000D01*
X159000000Y-86500000D02*
X141000000Y-86500000D01*
X125600000Y-95800000D02*
X124400000Y-95800000D01*
X124400000Y-95800000D02*
X124400000Y-98200000D01*
X124400000Y-98200000D02*
X125600000Y-98200000D01*
X125600000Y-98200000D02*
X125600000Y-95800000D01*
X134800000Y-114900000D02*
X135000000Y-114900000D01*
X135000000Y-114900000D02*
X134800000Y-114700000D01*
X135000000Y-114700000D02*
X135000000Y-114900000D01*
X134800000Y-115300000D02*
X135000000Y-115300000D01*
X135000000Y-115300000D02*
X134800000Y-115100000D01*
X135000000Y-115100000D02*
X135000000Y-115300000D01*
X134600000Y-114600000D02*
X134200000Y-115300000D01*
X133800000Y-115300000D02*
X134600000Y-115300000D01*
X134200000Y-115300000D02*
X133800000Y-114600000D01*
X133800000Y-114600000D02*
X134600000Y-114600000D01*
X134200000Y-116100000D02*
X134200000Y-113800000D01*
X139300000Y-114900000D02*
X139500000Y-114900000D01*
X139500000Y-114900000D02*
X139300000Y-114700000D01*
X139500000Y-114700000D02*
X139500000Y-114900000D01*
X139300000Y-115300000D02*
X139500000Y-115300000D01*
X139500000Y-115300000D02*
X139300000Y-115100000D01*
X139500000Y-115100000D02*
X139500000Y-115300000D01*
X139100000Y-114600000D02*
X138700000Y-115300000D01*
X138300000Y-115300000D02*
X139100000Y-115300000D01*
X138700000Y-115300000D02*
X138300000Y-114600000D01*
X138300000Y-114600000D02*
X139100000Y-114600000D01*
X138700000Y-116100000D02*
X138700000Y-113800000D01*
X130300000Y-114900000D02*
X130500000Y-114900000D01*
X130500000Y-114900000D02*
X130300000Y-114700000D01*
X130500000Y-114700000D02*
X130500000Y-114900000D01*
X130300000Y-115300000D02*
X130500000Y-115300000D01*
X130500000Y-115300000D02*
X130300000Y-115100000D01*
X130500000Y-115100000D02*
X130500000Y-115300000D01*
X130100000Y-114600000D02*
X129700000Y-115300000D01*
X129300000Y-115300000D02*
X130100000Y-115300000D01*
X129700000Y-115300000D02*
X129300000Y-114600000D01*
X129300000Y-114600000D02*
X130100000Y-114600000D01*
X129700000Y-116100000D02*
X129700000Y-113800000D01*
X142750000Y-103250000D02*
X138250000Y-103250000D01*
X138250000Y-103250000D02*
X138250000Y-107750000D01*
X138250000Y-107750000D02*
X142750000Y-107750000D01*
X142750000Y-107750000D02*
X142750000Y-103250000D01*
X141750000Y-105500000D02*
G75*
G03X141750000Y-105500000I-1250000J0D01*
G01*
X128833334Y-95357143D02*
X128785715Y-95404762D01*
X128642858Y-95452381D01*
X128547620Y-95452381D01*
X128404762Y-95404762D01*
X128309524Y-95309524D01*
X128261905Y-95214286D01*
X128214286Y-95023810D01*
X128214286Y-94880952D01*
X128261905Y-94690476D01*
X128309524Y-94595238D01*
X128404762Y-94500000D01*
X128547620Y-94452381D01*
X128642858Y-94452381D01*
X128785715Y-94500000D01*
X128833334Y-94547619D01*
X129785715Y-95452381D02*
X129214286Y-95452381D01*
X129500000Y-95452381D02*
X129500000Y-94452381D01*
X129404762Y-94595238D01*
X129309524Y-94690476D01*
X129214286Y-94738095D01*
X134957143Y-96166666D02*
X135004762Y-96214285D01*
X135052381Y-96357142D01*
X135052381Y-96452380D01*
X135004762Y-96595238D01*
X134909524Y-96690476D01*
X134814286Y-96738095D01*
X134623810Y-96785714D01*
X134480952Y-96785714D01*
X134290476Y-96738095D01*
X134195238Y-96690476D01*
X134100000Y-96595238D01*
X134052381Y-96452380D01*
X134052381Y-96357142D01*
X134100000Y-96214285D01*
X134147619Y-96166666D01*
X134147619Y-95785714D02*
X134100000Y-95738095D01*
X134052381Y-95642857D01*
X134052381Y-95404761D01*
X134100000Y-95309523D01*
X134147619Y-95261904D01*
X134242857Y-95214285D01*
X134338095Y-95214285D01*
X134480952Y-95261904D01*
X135052381Y-95833333D01*
X135052381Y-95214285D01*
X155952381Y-97666666D02*
X155476190Y-98000000D01*
X155952381Y-98238095D02*
X154952381Y-98238095D01*
X154952381Y-97857142D01*
X155000000Y-97761904D01*
X155047619Y-97714285D01*
X155142857Y-97666666D01*
X155285714Y-97666666D01*
X155380952Y-97714285D01*
X155428571Y-97761904D01*
X155476190Y-97857142D01*
X155476190Y-98238095D01*
X155047619Y-97285714D02*
X155000000Y-97238095D01*
X154952381Y-97142857D01*
X154952381Y-96904761D01*
X155000000Y-96809523D01*
X155047619Y-96761904D01*
X155142857Y-96714285D01*
X155238095Y-96714285D01*
X155380952Y-96761904D01*
X155952381Y-97333333D01*
X155952381Y-96714285D01*
X157552381Y-100166666D02*
X157076190Y-100500000D01*
X157552381Y-100738095D02*
X156552381Y-100738095D01*
X156552381Y-100357142D01*
X156600000Y-100261904D01*
X156647619Y-100214285D01*
X156742857Y-100166666D01*
X156885714Y-100166666D01*
X156980952Y-100214285D01*
X157028571Y-100261904D01*
X157076190Y-100357142D01*
X157076190Y-100738095D01*
X156552381Y-99833333D02*
X156552381Y-99214285D01*
X156933333Y-99547619D01*
X156933333Y-99404761D01*
X156980952Y-99309523D01*
X157028571Y-99261904D01*
X157123810Y-99214285D01*
X157361905Y-99214285D01*
X157457143Y-99261904D01*
X157504762Y-99309523D01*
X157552381Y-99404761D01*
X157552381Y-99690476D01*
X157504762Y-99785714D01*
X157457143Y-99833333D01*
X149952381Y-97666666D02*
X149476190Y-98000000D01*
X149952381Y-98238095D02*
X148952381Y-98238095D01*
X148952381Y-97857142D01*
X149000000Y-97761904D01*
X149047619Y-97714285D01*
X149142857Y-97666666D01*
X149285714Y-97666666D01*
X149380952Y-97714285D01*
X149428571Y-97761904D01*
X149476190Y-97857142D01*
X149476190Y-98238095D01*
X149285714Y-96809523D02*
X149952381Y-96809523D01*
X148904762Y-97047619D02*
X149619048Y-97285714D01*
X149619048Y-96666666D01*
X151452381Y-97666666D02*
X150976190Y-98000000D01*
X151452381Y-98238095D02*
X150452381Y-98238095D01*
X150452381Y-97857142D01*
X150500000Y-97761904D01*
X150547619Y-97714285D01*
X150642857Y-97666666D01*
X150785714Y-97666666D01*
X150880952Y-97714285D01*
X150928571Y-97761904D01*
X150976190Y-97857142D01*
X150976190Y-98238095D01*
X150452381Y-96761904D02*
X150452381Y-97238095D01*
X150928571Y-97285714D01*
X150880952Y-97238095D01*
X150833333Y-97142857D01*
X150833333Y-96904761D01*
X150880952Y-96809523D01*
X150928571Y-96761904D01*
X151023810Y-96714285D01*
X151261905Y-96714285D01*
X151357143Y-96761904D01*
X151404762Y-96809523D01*
X151452381Y-96904761D01*
X151452381Y-97142857D01*
X151404762Y-97238095D01*
X151357143Y-97285714D01*
X148452381Y-97666666D02*
X147976190Y-98000000D01*
X148452381Y-98238095D02*
X147452381Y-98238095D01*
X147452381Y-97857142D01*
X147500000Y-97761904D01*
X147547619Y-97714285D01*
X147642857Y-97666666D01*
X147785714Y-97666666D01*
X147880952Y-97714285D01*
X147928571Y-97761904D01*
X147976190Y-97857142D01*
X147976190Y-98238095D01*
X147452381Y-96809523D02*
X147452381Y-97000000D01*
X147500000Y-97095238D01*
X147547619Y-97142857D01*
X147690476Y-97238095D01*
X147880952Y-97285714D01*
X148261905Y-97285714D01*
X148357143Y-97238095D01*
X148404762Y-97190476D01*
X148452381Y-97095238D01*
X148452381Y-96904761D01*
X148404762Y-96809523D01*
X148357143Y-96761904D01*
X148261905Y-96714285D01*
X148023810Y-96714285D01*
X147928571Y-96761904D01*
X147880952Y-96809523D01*
X147833333Y-96904761D01*
X147833333Y-97095238D01*
X147880952Y-97190476D01*
X147928571Y-97238095D01*
X148023810Y-97285714D01*
X130352381Y-119666666D02*
X129876190Y-120000000D01*
X130352381Y-120238095D02*
X129352381Y-120238095D01*
X129352381Y-119857142D01*
X129400000Y-119761904D01*
X129447619Y-119714285D01*
X129542857Y-119666666D01*
X129685714Y-119666666D01*
X129780952Y-119714285D01*
X129828571Y-119761904D01*
X129876190Y-119857142D01*
X129876190Y-120238095D01*
X129352381Y-119333333D02*
X129352381Y-118666666D01*
X130352381Y-119095238D01*
X139352381Y-119666666D02*
X138876190Y-120000000D01*
X139352381Y-120238095D02*
X138352381Y-120238095D01*
X138352381Y-119857142D01*
X138400000Y-119761904D01*
X138447619Y-119714285D01*
X138542857Y-119666666D01*
X138685714Y-119666666D01*
X138780952Y-119714285D01*
X138828571Y-119761904D01*
X138876190Y-119857142D01*
X138876190Y-120238095D01*
X138780952Y-119095238D02*
X138733333Y-119190476D01*
X138685714Y-119238095D01*
X138590476Y-119285714D01*
X138542857Y-119285714D01*
X138447619Y-119238095D01*
X138400000Y-119190476D01*
X138352381Y-119095238D01*
X138352381Y-118904761D01*
X138400000Y-118809523D01*
X138447619Y-118761904D01*
X138542857Y-118714285D01*
X138590476Y-118714285D01*
X138685714Y-118761904D01*
X138733333Y-118809523D01*
X138780952Y-118904761D01*
X138780952Y-119095238D01*
X138828571Y-119190476D01*
X138876190Y-119238095D01*
X138971429Y-119285714D01*
X139161905Y-119285714D01*
X139257143Y-119238095D01*
X139304762Y-119190476D01*
X139352381Y-119095238D01*
X139352381Y-118904761D01*
X139304762Y-118809523D01*
X139257143Y-118761904D01*
X139161905Y-118714285D01*
X138971429Y-118714285D01*
X138876190Y-118761904D01*
X138828571Y-118809523D01*
X138780952Y-118904761D01*
X134852381Y-119666666D02*
X134376190Y-120000000D01*
X134852381Y-120238095D02*
X133852381Y-120238095D01*
X133852381Y-119857142D01*
X133900000Y-119761904D01*
X133947619Y-119714285D01*
X134042857Y-119666666D01*
X134185714Y-119666666D01*
X134280952Y-119714285D01*
X134328571Y-119761904D01*
X134376190Y-119857142D01*
X134376190Y-120238095D01*
X134852381Y-119190476D02*
X134852381Y-119000000D01*
X134804762Y-118904761D01*
X134757143Y-118857142D01*
X134614286Y-118761904D01*
X134423810Y-118714285D01*
X134042857Y-118714285D01*
X133947619Y-118761904D01*
X133900000Y-118809523D01*
X133852381Y-118904761D01*
X133852381Y-119095238D01*
X133900000Y-119190476D01*
X133947619Y-119238095D01*
X134042857Y-119285714D01*
X134280952Y-119285714D01*
X134376190Y-119238095D01*
X134423810Y-119190476D01*
X134471429Y-119095238D01*
X134471429Y-118904761D01*
X134423810Y-118809523D01*
X134376190Y-118761904D01*
X134280952Y-118714285D01*
X133666667Y-93809762D02*
X133809524Y-93857381D01*
X134047620Y-93857381D01*
X134142858Y-93809762D01*
X134190477Y-93762143D01*
X134238096Y-93666905D01*
X134238096Y-93571667D01*
X134190477Y-93476429D01*
X134142858Y-93428810D01*
X134047620Y-93381190D01*
X133857143Y-93333571D01*
X133761905Y-93285952D01*
X133714286Y-93238333D01*
X133666667Y-93143095D01*
X133666667Y-93047857D01*
X133714286Y-92952619D01*
X133761905Y-92905000D01*
X133857143Y-92857381D01*
X134095239Y-92857381D01*
X134238096Y-92905000D01*
X134571429Y-92857381D02*
X134809524Y-93857381D01*
X135000001Y-93143095D01*
X135190477Y-93857381D01*
X135428572Y-92857381D01*
X136333334Y-93857381D02*
X135761905Y-93857381D01*
X136047619Y-93857381D02*
X136047619Y-92857381D01*
X135952381Y-93000238D01*
X135857143Y-93095476D01*
X135761905Y-93143095D01*
X137452381Y-101261905D02*
X138261905Y-101261905D01*
X138357143Y-101214286D01*
X138404762Y-101166667D01*
X138452381Y-101071429D01*
X138452381Y-100880952D01*
X138404762Y-100785714D01*
X138357143Y-100738095D01*
X138261905Y-100690476D01*
X137452381Y-100690476D01*
X138452381Y-99690476D02*
X138452381Y-100261905D01*
X138452381Y-99976191D02*
X137452381Y-99976191D01*
X137595238Y-100071429D01*
X137690476Y-100166667D01*
X137738095Y-100261905D01*
X126238095Y-98952381D02*
X126238095Y-99761905D01*
X126285714Y-99857143D01*
X126333333Y-99904762D01*
X126428571Y-99952381D01*
X126619048Y-99952381D01*
X126714286Y-99904762D01*
X126761905Y-99857143D01*
X126809524Y-99761905D01*
X126809524Y-98952381D01*
X127238095Y-99047619D02*
X127285714Y-99000000D01*
X127380952Y-98952381D01*
X127619048Y-98952381D01*
X127714286Y-99000000D01*
X127761905Y-99047619D01*
X127809524Y-99142857D01*
X127809524Y-99238095D01*
X127761905Y-99380952D01*
X127190476Y-99952381D01*
X127809524Y-99952381D01*
X165452381Y-112761905D02*
X166261905Y-112761905D01*
X166357143Y-112714286D01*
X166404762Y-112666667D01*
X166452381Y-112571429D01*
X166452381Y-112380952D01*
X166404762Y-112285714D01*
X166357143Y-112238095D01*
X166261905Y-112190476D01*
X165452381Y-112190476D01*
X165452381Y-111809524D02*
X165452381Y-111190476D01*
X165833333Y-111523810D01*
X165833333Y-111380952D01*
X165880952Y-111285714D01*
X165928571Y-111238095D01*
X166023810Y-111190476D01*
X166261905Y-111190476D01*
X166357143Y-111238095D01*
X166404762Y-111285714D01*
X166452381Y-111380952D01*
X166452381Y-111666667D01*
X166404762Y-111761905D01*
X166357143Y-111809524D01*
X141238095Y-96952381D02*
X141238095Y-97761905D01*
X141285714Y-97857143D01*
X141333333Y-97904762D01*
X141428571Y-97952381D01*
X141619048Y-97952381D01*
X141714286Y-97904762D01*
X141761905Y-97857143D01*
X141809524Y-97761905D01*
X141809524Y-96952381D01*
X142714286Y-97285714D02*
X142714286Y-97952381D01*
X142476190Y-96904762D02*
X142238095Y-97619048D01*
X142857143Y-97619048D01*
X126852381Y-97166666D02*
X126376190Y-97500000D01*
X126852381Y-97738095D02*
X125852381Y-97738095D01*
X125852381Y-97357142D01*
X125900000Y-97261904D01*
X125947619Y-97214285D01*
X126042857Y-97166666D01*
X126185714Y-97166666D01*
X126280952Y-97214285D01*
X126328571Y-97261904D01*
X126376190Y-97357142D01*
X126376190Y-97738095D01*
X126852381Y-96214285D02*
X126852381Y-96785714D01*
X126852381Y-96500000D02*
X125852381Y-96500000D01*
X125995238Y-96595238D01*
X126090476Y-96690476D01*
X126138095Y-96785714D01*
X131452381Y-117738095D02*
X130452381Y-117738095D01*
X130452381Y-117500000D01*
X130500000Y-117357142D01*
X130595238Y-117261904D01*
X130690476Y-117214285D01*
X130880952Y-117166666D01*
X131023810Y-117166666D01*
X131214286Y-117214285D01*
X131309524Y-117261904D01*
X131404762Y-117357142D01*
X131452381Y-117500000D01*
X131452381Y-117738095D01*
X130452381Y-116833333D02*
X130452381Y-116214285D01*
X130833333Y-116547619D01*
X130833333Y-116404761D01*
X130880952Y-116309523D01*
X130928571Y-116261904D01*
X131023810Y-116214285D01*
X131261905Y-116214285D01*
X131357143Y-116261904D01*
X131404762Y-116309523D01*
X131452381Y-116404761D01*
X131452381Y-116690476D01*
X131404762Y-116785714D01*
X131357143Y-116833333D01*
X135952381Y-117738095D02*
X134952381Y-117738095D01*
X134952381Y-117500000D01*
X135000000Y-117357142D01*
X135095238Y-117261904D01*
X135190476Y-117214285D01*
X135380952Y-117166666D01*
X135523810Y-117166666D01*
X135714286Y-117214285D01*
X135809524Y-117261904D01*
X135904762Y-117357142D01*
X135952381Y-117500000D01*
X135952381Y-117738095D01*
X135047619Y-116785714D02*
X135000000Y-116738095D01*
X134952381Y-116642857D01*
X134952381Y-116404761D01*
X135000000Y-116309523D01*
X135047619Y-116261904D01*
X135142857Y-116214285D01*
X135238095Y-116214285D01*
X135380952Y-116261904D01*
X135952381Y-116833333D01*
X135952381Y-116214285D01*
X126952381Y-117738095D02*
X125952381Y-117738095D01*
X125952381Y-117500000D01*
X126000000Y-117357142D01*
X126095238Y-117261904D01*
X126190476Y-117214285D01*
X126380952Y-117166666D01*
X126523810Y-117166666D01*
X126714286Y-117214285D01*
X126809524Y-117261904D01*
X126904762Y-117357142D01*
X126952381Y-117500000D01*
X126952381Y-117738095D01*
X126952381Y-116214285D02*
X126952381Y-116785714D01*
X126952381Y-116500000D02*
X125952381Y-116500000D01*
X126095238Y-116595238D01*
X126190476Y-116690476D01*
X126238095Y-116785714D01*
X142404762Y-112333333D02*
X142452381Y-112190476D01*
X142452381Y-111952380D01*
X142404762Y-111857142D01*
X142357143Y-111809523D01*
X142261905Y-111761904D01*
X142166667Y-111761904D01*
X142071429Y-111809523D01*
X142023810Y-111857142D01*
X141976190Y-111952380D01*
X141928571Y-112142857D01*
X141880952Y-112238095D01*
X141833333Y-112285714D01*
X141738095Y-112333333D01*
X141642857Y-112333333D01*
X141547619Y-112285714D01*
X141500000Y-112238095D01*
X141452381Y-112142857D01*
X141452381Y-111904761D01*
X141500000Y-111761904D01*
X141452381Y-111428571D02*
X142452381Y-111190476D01*
X141738095Y-110999999D01*
X142452381Y-110809523D01*
X141452381Y-110571428D01*
X141547619Y-110238095D02*
X141500000Y-110190476D01*
X141452381Y-110095238D01*
X141452381Y-109857142D01*
X141500000Y-109761904D01*
X141547619Y-109714285D01*
X141642857Y-109666666D01*
X141738095Y-109666666D01*
X141880952Y-109714285D01*
X142452381Y-110285714D01*
X142452381Y-109666666D01*
X161261905Y-99452381D02*
X161261905Y-98452381D01*
X161642858Y-98452381D01*
X161738096Y-98500000D01*
X161785715Y-98547619D01*
X161833334Y-98642857D01*
X161833334Y-98785714D01*
X161785715Y-98880952D01*
X161738096Y-98928571D01*
X161642858Y-98976190D01*
X161261905Y-98976190D01*
X162785715Y-99452381D02*
X162214286Y-99452381D01*
X162500000Y-99452381D02*
X162500000Y-98452381D01*
X162404762Y-98595238D01*
X162309524Y-98690476D01*
X162214286Y-98738095D01*
X165000001Y-91452381D02*
X164523810Y-91452381D01*
X164523810Y-90452381D01*
X165333334Y-91452381D02*
X165333334Y-90785714D01*
X165333334Y-90452381D02*
X165285715Y-90500000D01*
X165333334Y-90547619D01*
X165380953Y-90500000D01*
X165333334Y-90452381D01*
X165333334Y-90547619D01*
X165809524Y-91071429D02*
X166571429Y-91071429D01*
X167047619Y-91452381D02*
X167047619Y-90452381D01*
X167428572Y-90452381D01*
X167523810Y-90500000D01*
X167571429Y-90547619D01*
X167619048Y-90642857D01*
X167619048Y-90785714D01*
X167571429Y-90880952D01*
X167523810Y-90928571D01*
X167428572Y-90976190D01*
X167047619Y-90976190D01*
X168190476Y-91452381D02*
X168095238Y-91404762D01*
X168047619Y-91357143D01*
X168000000Y-91261905D01*
X168000000Y-90976190D01*
X168047619Y-90880952D01*
X168095238Y-90833333D01*
X168190476Y-90785714D01*
X168333334Y-90785714D01*
X168428572Y-90833333D01*
X168476191Y-90880952D01*
X168523810Y-90976190D01*
X168523810Y-91261905D01*
X168476191Y-91357143D01*
X168428572Y-91404762D01*
X168333334Y-91452381D01*
X168190476Y-91452381D01*
M02*
