M48
;DRILL file {KiCad (2015-10-11 BZR 6260)-product} date 2015年11月29日日曜日 02:22:55
;FORMAT={-:-/ absolute / metric / decimal}
FMAT,2
METRIC,TZ
T1C0.400
T2C0.762
T3C0.800
T4C1.700
%
G90
G05
M71
T1
X130.Y-108.
X130.Y-110.5
X137.5Y-121.5
X144.Y-104.
X144.Y-107.
X146.5Y-100.5
X151.Y-123.5
X152.5Y-99.5
X154.Y-95.5
X154.Y-99.5
T2
X134.6Y-101.69
X134.6Y-104.23
X134.6Y-106.77
X134.6Y-109.31
X142.38Y-87.69
X142.38Y-90.23
X142.38Y-92.77
X142.38Y-95.31
X157.62Y-87.69
X157.62Y-90.23
X157.62Y-92.77
X157.62Y-95.31
T3
X128.5Y-113.73
X128.5Y-116.27
X132.46Y-91.5
X133.Y-113.73
X133.Y-116.27
X135.Y-91.5
X137.5Y-113.73
X137.5Y-116.27
X137.54Y-91.5
T4
X128.Y-88.
X128.Y-123.
X163.5Y-88.
X163.5Y-123.
T0
M30
