G04 #@! TF.FileFunction,Legend,Top*
%FSLAX46Y46*%
G04 Gerber Fmt 4.6, Leading zero omitted, Abs format (unit mm)*
G04 Created by KiCad (PCBNEW 4.0.1-stable) date 2016年01月16日土曜日 22:54:58*
%MOMM*%
G01*
G04 APERTURE LIST*
%ADD10C,0.100000*%
%ADD11C,0.150000*%
%ADD12R,1.050000X1.300000*%
%ADD13C,2.000000*%
%ADD14R,1.600000X3.800000*%
%ADD15R,1.650000X1.100000*%
%ADD16R,0.800000X1.750000*%
%ADD17R,2.500000X2.400000*%
%ADD18R,2.000000X2.300000*%
%ADD19R,1.600000X2.300000*%
%ADD20C,1.200000*%
%ADD21R,1.550000X1.550000*%
G04 APERTURE END LIST*
D10*
D11*
X142300000Y-93400000D02*
X142300000Y-94600000D01*
X142300000Y-94600000D02*
X144700000Y-94600000D01*
X144700000Y-94600000D02*
X144700000Y-93400000D01*
X144700000Y-93400000D02*
X142300000Y-93400000D01*
X134700000Y-88600000D02*
X134700000Y-87400000D01*
X134700000Y-87400000D02*
X132300000Y-87400000D01*
X132300000Y-87400000D02*
X132300000Y-88600000D01*
X132300000Y-88600000D02*
X134700000Y-88600000D01*
X134700000Y-97600000D02*
X134700000Y-96400000D01*
X134700000Y-96400000D02*
X132300000Y-96400000D01*
X132300000Y-96400000D02*
X132300000Y-97600000D01*
X132300000Y-97600000D02*
X134700000Y-97600000D01*
X134700000Y-90100000D02*
X134700000Y-88900000D01*
X134700000Y-88900000D02*
X132300000Y-88900000D01*
X132300000Y-88900000D02*
X132300000Y-90100000D01*
X132300000Y-90100000D02*
X134700000Y-90100000D01*
X134700000Y-91600000D02*
X134700000Y-90400000D01*
X134700000Y-90400000D02*
X132300000Y-90400000D01*
X132300000Y-90400000D02*
X132300000Y-91600000D01*
X132300000Y-91600000D02*
X134700000Y-91600000D01*
X142300000Y-91900000D02*
X142300000Y-93100000D01*
X142300000Y-93100000D02*
X144700000Y-93100000D01*
X144700000Y-93100000D02*
X144700000Y-91900000D01*
X144700000Y-91900000D02*
X142300000Y-91900000D01*
X142300000Y-85900000D02*
X142300000Y-87100000D01*
X142300000Y-87100000D02*
X144700000Y-87100000D01*
X144700000Y-87100000D02*
X144700000Y-85900000D01*
X144700000Y-85900000D02*
X142300000Y-85900000D01*
X139725000Y-83000000D02*
G75*
G03X139725000Y-83000000I-1225000J0D01*
G01*
X140175000Y-84675000D02*
X140175000Y-81325000D01*
X140175000Y-81325000D02*
X136825000Y-81325000D01*
X136825000Y-81325000D02*
X136825000Y-84675000D01*
X136825000Y-84675000D02*
X140175000Y-84675000D01*
X151250000Y-86750000D02*
X149750000Y-86750000D01*
X149750000Y-86750000D02*
X149750000Y-93250000D01*
X149750000Y-93250000D02*
X151250000Y-93250000D01*
X151250000Y-93250000D02*
X151250000Y-86750000D01*
X140300000Y-93800000D02*
X140300000Y-92200000D01*
X140300000Y-92200000D02*
X136700000Y-92200000D01*
X136700000Y-92200000D02*
X136700000Y-93800000D01*
X136700000Y-93800000D02*
X140300000Y-93800000D01*
X140300000Y-98800000D02*
X140300000Y-97200000D01*
X140300000Y-97200000D02*
X136700000Y-97200000D01*
X136700000Y-97200000D02*
X136700000Y-98800000D01*
X136700000Y-98800000D02*
X140300000Y-98800000D01*
X141083334Y-94452381D02*
X140750000Y-93976190D01*
X140511905Y-94452381D02*
X140511905Y-93452381D01*
X140892858Y-93452381D01*
X140988096Y-93500000D01*
X141035715Y-93547619D01*
X141083334Y-93642857D01*
X141083334Y-93785714D01*
X141035715Y-93880952D01*
X140988096Y-93928571D01*
X140892858Y-93976190D01*
X140511905Y-93976190D01*
X141464286Y-93547619D02*
X141511905Y-93500000D01*
X141607143Y-93452381D01*
X141845239Y-93452381D01*
X141940477Y-93500000D01*
X141988096Y-93547619D01*
X142035715Y-93642857D01*
X142035715Y-93738095D01*
X141988096Y-93880952D01*
X141416667Y-94452381D01*
X142035715Y-94452381D01*
X135583334Y-88452381D02*
X135250000Y-87976190D01*
X135011905Y-88452381D02*
X135011905Y-87452381D01*
X135392858Y-87452381D01*
X135488096Y-87500000D01*
X135535715Y-87547619D01*
X135583334Y-87642857D01*
X135583334Y-87785714D01*
X135535715Y-87880952D01*
X135488096Y-87928571D01*
X135392858Y-87976190D01*
X135011905Y-87976190D01*
X135916667Y-87452381D02*
X136535715Y-87452381D01*
X136202381Y-87833333D01*
X136345239Y-87833333D01*
X136440477Y-87880952D01*
X136488096Y-87928571D01*
X136535715Y-88023810D01*
X136535715Y-88261905D01*
X136488096Y-88357143D01*
X136440477Y-88404762D01*
X136345239Y-88452381D01*
X136059524Y-88452381D01*
X135964286Y-88404762D01*
X135916667Y-88357143D01*
X133333334Y-96202381D02*
X133000000Y-95726190D01*
X132761905Y-96202381D02*
X132761905Y-95202381D01*
X133142858Y-95202381D01*
X133238096Y-95250000D01*
X133285715Y-95297619D01*
X133333334Y-95392857D01*
X133333334Y-95535714D01*
X133285715Y-95630952D01*
X133238096Y-95678571D01*
X133142858Y-95726190D01*
X132761905Y-95726190D01*
X134190477Y-95535714D02*
X134190477Y-96202381D01*
X133952381Y-95154762D02*
X133714286Y-95869048D01*
X134333334Y-95869048D01*
X135583334Y-89952381D02*
X135250000Y-89476190D01*
X135011905Y-89952381D02*
X135011905Y-88952381D01*
X135392858Y-88952381D01*
X135488096Y-89000000D01*
X135535715Y-89047619D01*
X135583334Y-89142857D01*
X135583334Y-89285714D01*
X135535715Y-89380952D01*
X135488096Y-89428571D01*
X135392858Y-89476190D01*
X135011905Y-89476190D01*
X136488096Y-88952381D02*
X136011905Y-88952381D01*
X135964286Y-89428571D01*
X136011905Y-89380952D01*
X136107143Y-89333333D01*
X136345239Y-89333333D01*
X136440477Y-89380952D01*
X136488096Y-89428571D01*
X136535715Y-89523810D01*
X136535715Y-89761905D01*
X136488096Y-89857143D01*
X136440477Y-89904762D01*
X136345239Y-89952381D01*
X136107143Y-89952381D01*
X136011905Y-89904762D01*
X135964286Y-89857143D01*
X135583334Y-91452381D02*
X135250000Y-90976190D01*
X135011905Y-91452381D02*
X135011905Y-90452381D01*
X135392858Y-90452381D01*
X135488096Y-90500000D01*
X135535715Y-90547619D01*
X135583334Y-90642857D01*
X135583334Y-90785714D01*
X135535715Y-90880952D01*
X135488096Y-90928571D01*
X135392858Y-90976190D01*
X135011905Y-90976190D01*
X136440477Y-90452381D02*
X136250000Y-90452381D01*
X136154762Y-90500000D01*
X136107143Y-90547619D01*
X136011905Y-90690476D01*
X135964286Y-90880952D01*
X135964286Y-91261905D01*
X136011905Y-91357143D01*
X136059524Y-91404762D01*
X136154762Y-91452381D01*
X136345239Y-91452381D01*
X136440477Y-91404762D01*
X136488096Y-91357143D01*
X136535715Y-91261905D01*
X136535715Y-91023810D01*
X136488096Y-90928571D01*
X136440477Y-90880952D01*
X136345239Y-90833333D01*
X136154762Y-90833333D01*
X136059524Y-90880952D01*
X136011905Y-90928571D01*
X135964286Y-91023810D01*
X141083334Y-92952381D02*
X140750000Y-92476190D01*
X140511905Y-92952381D02*
X140511905Y-91952381D01*
X140892858Y-91952381D01*
X140988096Y-92000000D01*
X141035715Y-92047619D01*
X141083334Y-92142857D01*
X141083334Y-92285714D01*
X141035715Y-92380952D01*
X140988096Y-92428571D01*
X140892858Y-92476190D01*
X140511905Y-92476190D01*
X141654762Y-92380952D02*
X141559524Y-92333333D01*
X141511905Y-92285714D01*
X141464286Y-92190476D01*
X141464286Y-92142857D01*
X141511905Y-92047619D01*
X141559524Y-92000000D01*
X141654762Y-91952381D01*
X141845239Y-91952381D01*
X141940477Y-92000000D01*
X141988096Y-92047619D01*
X142035715Y-92142857D01*
X142035715Y-92190476D01*
X141988096Y-92285714D01*
X141940477Y-92333333D01*
X141845239Y-92380952D01*
X141654762Y-92380952D01*
X141559524Y-92428571D01*
X141511905Y-92476190D01*
X141464286Y-92571429D01*
X141464286Y-92761905D01*
X141511905Y-92857143D01*
X141559524Y-92904762D01*
X141654762Y-92952381D01*
X141845239Y-92952381D01*
X141940477Y-92904762D01*
X141988096Y-92857143D01*
X142035715Y-92761905D01*
X142035715Y-92571429D01*
X141988096Y-92476190D01*
X141940477Y-92428571D01*
X141845239Y-92380952D01*
X143333334Y-85702381D02*
X143000000Y-85226190D01*
X142761905Y-85702381D02*
X142761905Y-84702381D01*
X143142858Y-84702381D01*
X143238096Y-84750000D01*
X143285715Y-84797619D01*
X143333334Y-84892857D01*
X143333334Y-85035714D01*
X143285715Y-85130952D01*
X143238096Y-85178571D01*
X143142858Y-85226190D01*
X142761905Y-85226190D01*
X143809524Y-85702381D02*
X144000000Y-85702381D01*
X144095239Y-85654762D01*
X144142858Y-85607143D01*
X144238096Y-85464286D01*
X144285715Y-85273810D01*
X144285715Y-84892857D01*
X144238096Y-84797619D01*
X144190477Y-84750000D01*
X144095239Y-84702381D01*
X143904762Y-84702381D01*
X143809524Y-84750000D01*
X143761905Y-84797619D01*
X143714286Y-84892857D01*
X143714286Y-85130952D01*
X143761905Y-85226190D01*
X143809524Y-85273810D01*
X143904762Y-85321429D01*
X144095239Y-85321429D01*
X144190477Y-85273810D01*
X144238096Y-85226190D01*
X144285715Y-85130952D01*
X148666667Y-77904762D02*
X148809524Y-77952381D01*
X149047620Y-77952381D01*
X149142858Y-77904762D01*
X149190477Y-77857143D01*
X149238096Y-77761905D01*
X149238096Y-77666667D01*
X149190477Y-77571429D01*
X149142858Y-77523810D01*
X149047620Y-77476190D01*
X148857143Y-77428571D01*
X148761905Y-77380952D01*
X148714286Y-77333333D01*
X148666667Y-77238095D01*
X148666667Y-77142857D01*
X148714286Y-77047619D01*
X148761905Y-77000000D01*
X148857143Y-76952381D01*
X149095239Y-76952381D01*
X149238096Y-77000000D01*
X149571429Y-76952381D02*
X149809524Y-77952381D01*
X150000001Y-77238095D01*
X150190477Y-77952381D01*
X150428572Y-76952381D01*
X151333334Y-77952381D02*
X150761905Y-77952381D01*
X151047619Y-77952381D02*
X151047619Y-76952381D01*
X150952381Y-77095238D01*
X150857143Y-77190476D01*
X150761905Y-77238095D01*
X150261905Y-100452381D02*
X150261905Y-99452381D01*
X150642858Y-99452381D01*
X150738096Y-99500000D01*
X150785715Y-99547619D01*
X150833334Y-99642857D01*
X150833334Y-99785714D01*
X150785715Y-99880952D01*
X150738096Y-99928571D01*
X150642858Y-99976190D01*
X150261905Y-99976190D01*
X151785715Y-100452381D02*
X151214286Y-100452381D01*
X151500000Y-100452381D02*
X151500000Y-99452381D01*
X151404762Y-99595238D01*
X151309524Y-99690476D01*
X151214286Y-99738095D01*
X148952381Y-98999999D02*
X148952381Y-99476190D01*
X147952381Y-99476190D01*
X148952381Y-98666666D02*
X148285714Y-98666666D01*
X147952381Y-98666666D02*
X148000000Y-98714285D01*
X148047619Y-98666666D01*
X148000000Y-98619047D01*
X147952381Y-98666666D01*
X148047619Y-98666666D01*
X148571429Y-98190476D02*
X148571429Y-97428571D01*
X148952381Y-96952381D02*
X147952381Y-96952381D01*
X147952381Y-96571428D01*
X148000000Y-96476190D01*
X148047619Y-96428571D01*
X148142857Y-96380952D01*
X148285714Y-96380952D01*
X148380952Y-96428571D01*
X148428571Y-96476190D01*
X148476190Y-96571428D01*
X148476190Y-96952381D01*
X148952381Y-95809524D02*
X148904762Y-95904762D01*
X148857143Y-95952381D01*
X148761905Y-96000000D01*
X148476190Y-96000000D01*
X148380952Y-95952381D01*
X148333333Y-95904762D01*
X148285714Y-95809524D01*
X148285714Y-95666666D01*
X148333333Y-95571428D01*
X148380952Y-95523809D01*
X148476190Y-95476190D01*
X148761905Y-95476190D01*
X148857143Y-95523809D01*
X148904762Y-95571428D01*
X148952381Y-95666666D01*
X148952381Y-95809524D01*
X137166667Y-80904762D02*
X137309524Y-80952381D01*
X137547620Y-80952381D01*
X137642858Y-80904762D01*
X137690477Y-80857143D01*
X137738096Y-80761905D01*
X137738096Y-80666667D01*
X137690477Y-80571429D01*
X137642858Y-80523810D01*
X137547620Y-80476190D01*
X137357143Y-80428571D01*
X137261905Y-80380952D01*
X137214286Y-80333333D01*
X137166667Y-80238095D01*
X137166667Y-80142857D01*
X137214286Y-80047619D01*
X137261905Y-80000000D01*
X137357143Y-79952381D01*
X137595239Y-79952381D01*
X137738096Y-80000000D01*
X138071429Y-79952381D02*
X138309524Y-80952381D01*
X138500001Y-80238095D01*
X138690477Y-80952381D01*
X138928572Y-79952381D01*
X139261905Y-80047619D02*
X139309524Y-80000000D01*
X139404762Y-79952381D01*
X139642858Y-79952381D01*
X139738096Y-80000000D01*
X139785715Y-80047619D01*
X139833334Y-80142857D01*
X139833334Y-80238095D01*
X139785715Y-80380952D01*
X139214286Y-80952381D01*
X139833334Y-80952381D01*
X137809524Y-75357143D02*
X137761905Y-75404762D01*
X137619048Y-75452381D01*
X137523810Y-75452381D01*
X137380952Y-75404762D01*
X137285714Y-75309524D01*
X137238095Y-75214286D01*
X137190476Y-75023810D01*
X137190476Y-74880952D01*
X137238095Y-74690476D01*
X137285714Y-74595238D01*
X137380952Y-74500000D01*
X137523810Y-74452381D01*
X137619048Y-74452381D01*
X137761905Y-74500000D01*
X137809524Y-74547619D01*
X138238095Y-75452381D02*
X138238095Y-74452381D01*
X138809524Y-75452381D01*
X138809524Y-74452381D01*
X139809524Y-75452381D02*
X139238095Y-75452381D01*
X139523809Y-75452381D02*
X139523809Y-74452381D01*
X139428571Y-74595238D01*
X139333333Y-74690476D01*
X139238095Y-74738095D01*
X149809524Y-94357143D02*
X149761905Y-94404762D01*
X149619048Y-94452381D01*
X149523810Y-94452381D01*
X149380952Y-94404762D01*
X149285714Y-94309524D01*
X149238095Y-94214286D01*
X149190476Y-94023810D01*
X149190476Y-93880952D01*
X149238095Y-93690476D01*
X149285714Y-93595238D01*
X149380952Y-93500000D01*
X149523810Y-93452381D01*
X149619048Y-93452381D01*
X149761905Y-93500000D01*
X149809524Y-93547619D01*
X150238095Y-94452381D02*
X150238095Y-93452381D01*
X150809524Y-94452381D01*
X150809524Y-93452381D01*
X151238095Y-93547619D02*
X151285714Y-93500000D01*
X151380952Y-93452381D01*
X151619048Y-93452381D01*
X151714286Y-93500000D01*
X151761905Y-93547619D01*
X151809524Y-93642857D01*
X151809524Y-93738095D01*
X151761905Y-93880952D01*
X151190476Y-94452381D01*
X151809524Y-94452381D01*
X147488096Y-92000000D02*
X147392858Y-91952381D01*
X147250001Y-91952381D01*
X147107143Y-92000000D01*
X147011905Y-92095238D01*
X146964286Y-92190476D01*
X146916667Y-92380952D01*
X146916667Y-92523810D01*
X146964286Y-92714286D01*
X147011905Y-92809524D01*
X147107143Y-92904762D01*
X147250001Y-92952381D01*
X147345239Y-92952381D01*
X147488096Y-92904762D01*
X147535715Y-92857143D01*
X147535715Y-92523810D01*
X147345239Y-92523810D01*
X147964286Y-92952381D02*
X147964286Y-91952381D01*
X148535715Y-92952381D01*
X148535715Y-91952381D01*
X149011905Y-92952381D02*
X149011905Y-91952381D01*
X149250000Y-91952381D01*
X149392858Y-92000000D01*
X149488096Y-92095238D01*
X149535715Y-92190476D01*
X149583334Y-92380952D01*
X149583334Y-92523810D01*
X149535715Y-92714286D01*
X149488096Y-92809524D01*
X149392858Y-92904762D01*
X149250000Y-92952381D01*
X149011905Y-92952381D01*
X148333334Y-91702381D02*
X148000000Y-91226190D01*
X147761905Y-91702381D02*
X147761905Y-90702381D01*
X148142858Y-90702381D01*
X148238096Y-90750000D01*
X148285715Y-90797619D01*
X148333334Y-90892857D01*
X148333334Y-91035714D01*
X148285715Y-91130952D01*
X148238096Y-91178571D01*
X148142858Y-91226190D01*
X147761905Y-91226190D01*
X148666667Y-90702381D02*
X149333334Y-91702381D01*
X149333334Y-90702381D02*
X148666667Y-91702381D01*
X147488095Y-89452381D02*
X148059524Y-89452381D01*
X147773809Y-90452381D02*
X147773809Y-89452381D01*
X148297619Y-89452381D02*
X148964286Y-90452381D01*
X148964286Y-89452381D02*
X148297619Y-90452381D01*
X147107143Y-89202381D02*
X147107143Y-88202381D01*
X147345238Y-88202381D01*
X147488096Y-88250000D01*
X147583334Y-88345238D01*
X147630953Y-88440476D01*
X147678572Y-88630952D01*
X147678572Y-88773810D01*
X147630953Y-88964286D01*
X147583334Y-89059524D01*
X147488096Y-89154762D01*
X147345238Y-89202381D01*
X147107143Y-89202381D01*
X147964286Y-88202381D02*
X148535715Y-88202381D01*
X148250000Y-89202381D02*
X148250000Y-88202381D01*
X149440477Y-89202381D02*
X149107143Y-88726190D01*
X148869048Y-89202381D02*
X148869048Y-88202381D01*
X149250001Y-88202381D01*
X149345239Y-88250000D01*
X149392858Y-88297619D01*
X149440477Y-88392857D01*
X149440477Y-88535714D01*
X149392858Y-88630952D01*
X149345239Y-88678571D01*
X149250001Y-88726190D01*
X148869048Y-88726190D01*
X147702381Y-87952381D02*
X147369047Y-87476190D01*
X147130952Y-87952381D02*
X147130952Y-86952381D01*
X147511905Y-86952381D01*
X147607143Y-87000000D01*
X147654762Y-87047619D01*
X147702381Y-87142857D01*
X147702381Y-87285714D01*
X147654762Y-87380952D01*
X147607143Y-87428571D01*
X147511905Y-87476190D01*
X147130952Y-87476190D01*
X147988095Y-86952381D02*
X148559524Y-86952381D01*
X148273809Y-87952381D02*
X148273809Y-86952381D01*
X148845238Y-87904762D02*
X148988095Y-87952381D01*
X149226191Y-87952381D01*
X149321429Y-87904762D01*
X149369048Y-87857143D01*
X149416667Y-87761905D01*
X149416667Y-87666667D01*
X149369048Y-87571429D01*
X149321429Y-87523810D01*
X149226191Y-87476190D01*
X149035714Y-87428571D01*
X148940476Y-87380952D01*
X148892857Y-87333333D01*
X148845238Y-87238095D01*
X148845238Y-87142857D01*
X148892857Y-87047619D01*
X148940476Y-87000000D01*
X149035714Y-86952381D01*
X149273810Y-86952381D01*
X149416667Y-87000000D01*
X137761905Y-91952381D02*
X137761905Y-90952381D01*
X138000000Y-90952381D01*
X138142858Y-91000000D01*
X138238096Y-91095238D01*
X138285715Y-91190476D01*
X138333334Y-91380952D01*
X138333334Y-91523810D01*
X138285715Y-91714286D01*
X138238096Y-91809524D01*
X138142858Y-91904762D01*
X138000000Y-91952381D01*
X137761905Y-91952381D01*
X139285715Y-91952381D02*
X138714286Y-91952381D01*
X139000000Y-91952381D02*
X139000000Y-90952381D01*
X138904762Y-91095238D01*
X138809524Y-91190476D01*
X138714286Y-91238095D01*
X139238095Y-94952381D02*
X139238095Y-93952381D01*
X139809524Y-94952381D02*
X139380952Y-94380952D01*
X139809524Y-93952381D02*
X139238095Y-94523810D01*
X135761905Y-93166667D02*
X136238096Y-93166667D01*
X135666667Y-93452381D02*
X136000000Y-92452381D01*
X136333334Y-93452381D01*
X137761905Y-96952381D02*
X137761905Y-95952381D01*
X138000000Y-95952381D01*
X138142858Y-96000000D01*
X138238096Y-96095238D01*
X138285715Y-96190476D01*
X138333334Y-96380952D01*
X138333334Y-96523810D01*
X138285715Y-96714286D01*
X138238096Y-96809524D01*
X138142858Y-96904762D01*
X138000000Y-96952381D01*
X137761905Y-96952381D01*
X138714286Y-96047619D02*
X138761905Y-96000000D01*
X138857143Y-95952381D01*
X139095239Y-95952381D01*
X139190477Y-96000000D01*
X139238096Y-96047619D01*
X139285715Y-96142857D01*
X139285715Y-96238095D01*
X139238096Y-96380952D01*
X138666667Y-96952381D01*
X139285715Y-96952381D01*
X140738095Y-98452381D02*
X140738095Y-97452381D01*
X141309524Y-98452381D02*
X140880952Y-97880952D01*
X141309524Y-97452381D02*
X140738095Y-98023810D01*
X135761905Y-98166667D02*
X136238096Y-98166667D01*
X135666667Y-98452381D02*
X136000000Y-97452381D01*
X136333334Y-98452381D01*
%LPC*%
D12*
X142775000Y-94000000D03*
X144225000Y-94000000D03*
X134225000Y-88000000D03*
X132775000Y-88000000D03*
X134225000Y-97000000D03*
X132775000Y-97000000D03*
X134225000Y-89500000D03*
X132775000Y-89500000D03*
X134225000Y-91000000D03*
X132775000Y-91000000D03*
X142775000Y-92500000D03*
X144225000Y-92500000D03*
X142775000Y-86500000D03*
X144225000Y-86500000D03*
D13*
X150000000Y-82000000D03*
X150000000Y-79460000D03*
X150000000Y-84540000D03*
D14*
X152000000Y-97400000D03*
X150000000Y-97400000D03*
D15*
X140375000Y-84000000D03*
X136625000Y-84000000D03*
X140375000Y-82000000D03*
X136625000Y-82000000D03*
D16*
X138500000Y-73175000D03*
X137850000Y-73175000D03*
X137200000Y-73175000D03*
X139150000Y-73175000D03*
X139800000Y-73175000D03*
D17*
X141600000Y-72850000D03*
X135400000Y-72850000D03*
D18*
X142600000Y-70500000D03*
X134400000Y-70500000D03*
D19*
X137650000Y-70500000D03*
X139350000Y-70500000D03*
D20*
X150500000Y-87460000D03*
X150500000Y-88730000D03*
X150500000Y-90000000D03*
X150500000Y-91270000D03*
X150500000Y-92540000D03*
D21*
X139500000Y-93000000D03*
X137500000Y-93000000D03*
X139500000Y-98000000D03*
X137500000Y-98000000D03*
M02*
