M48
;DRILL file {KiCad 4.0.1-stable} date 2016年01月16日土曜日 03:13:36
;FORMAT={3:3/ absolute / metric / suppress trailing zeros}
FMAT,2
METRIC,LZ
T1C0.350
T2C0.400
T3C0.800
T4C1.700
%
G90
G05
M71
T1
X1505Y-08746
X1505Y-08873
X1505Y-09
X1505Y-09127
X1505Y-09254
T2
X1296Y-07985
X1315Y-0865
X1315Y-088
X1315Y-0895
X1315Y-091
X1315Y-097
X1333Y-0729
X1335Y-0985
X1345Y-08575
X1354Y-0835
X1355Y-0785
X1372Y-081
X1385Y-0785
X1385Y-0845
X1415Y-087
X1415Y-089
X1438Y-0729
X1455Y-0865
X1455Y-0925
X1455Y-094
X1455Y-0985
X14575Y-0785
X147Y-0785
X15Y-1005
T3
X15Y-07946
X15Y-082
X15Y-08454
T4
X126Y-075
X126Y-103
X151Y-075
X151Y-103
T0
M30
