G04 #@! TF.FileFunction,Soldermask,Top*
%FSLAX46Y46*%
G04 Gerber Fmt 4.6, Leading zero omitted, Abs format (unit mm)*
G04 Created by KiCad (PCBNEW 4.0.1-stable) date 2016年01月16日土曜日 22:54:58*
%MOMM*%
G01*
G04 APERTURE LIST*
%ADD10C,0.100000*%
%ADD11R,1.050000X1.300000*%
%ADD12C,2.000000*%
%ADD13R,1.600000X3.800000*%
%ADD14R,1.650000X1.100000*%
%ADD15R,0.800000X1.750000*%
%ADD16R,2.500000X2.400000*%
%ADD17R,2.000000X2.300000*%
%ADD18R,1.600000X2.300000*%
%ADD19C,1.200000*%
%ADD20R,1.550000X1.550000*%
G04 APERTURE END LIST*
D10*
D11*
X142775000Y-94000000D03*
X144225000Y-94000000D03*
X134225000Y-88000000D03*
X132775000Y-88000000D03*
X134225000Y-97000000D03*
X132775000Y-97000000D03*
X134225000Y-89500000D03*
X132775000Y-89500000D03*
X134225000Y-91000000D03*
X132775000Y-91000000D03*
X142775000Y-92500000D03*
X144225000Y-92500000D03*
X142775000Y-86500000D03*
X144225000Y-86500000D03*
D12*
X150000000Y-82000000D03*
X150000000Y-79460000D03*
X150000000Y-84540000D03*
D13*
X152000000Y-97400000D03*
X150000000Y-97400000D03*
D14*
X140375000Y-84000000D03*
X136625000Y-84000000D03*
X140375000Y-82000000D03*
X136625000Y-82000000D03*
D15*
X138500000Y-73175000D03*
X137850000Y-73175000D03*
X137200000Y-73175000D03*
X139150000Y-73175000D03*
X139800000Y-73175000D03*
D16*
X141600000Y-72850000D03*
X135400000Y-72850000D03*
D17*
X142600000Y-70500000D03*
X134400000Y-70500000D03*
D18*
X137650000Y-70500000D03*
X139350000Y-70500000D03*
D19*
X150500000Y-87460000D03*
X150500000Y-88730000D03*
X150500000Y-90000000D03*
X150500000Y-91270000D03*
X150500000Y-92540000D03*
D20*
X139500000Y-93000000D03*
X137500000Y-93000000D03*
X139500000Y-98000000D03*
X137500000Y-98000000D03*
M02*
