G04 #@! TF.FileFunction,Legend,Bot*
%FSLAX46Y46*%
G04 Gerber Fmt 4.6, Leading zero omitted, Abs format (unit mm)*
G04 Created by KiCad (PCBNEW 4.0.1-stable) date 2016年01月16日土曜日 22:54:58*
%MOMM*%
G01*
G04 APERTURE LIST*
%ADD10C,0.100000*%
%ADD11C,0.150000*%
%ADD12R,2.400000X1.300000*%
%ADD13R,1.550000X1.550000*%
%ADD14R,1.300000X1.050000*%
%ADD15R,1.050000X1.300000*%
%ADD16C,2.000000*%
%ADD17R,1.460000X1.050000*%
%ADD18R,2.432000X4.057600*%
%ADD19R,2.432000X1.416000*%
%ADD20C,1.200000*%
G04 APERTURE END LIST*
D10*
D11*
X129500000Y-99800000D02*
X147500000Y-99800000D01*
X129500000Y-85000000D02*
X147500000Y-85000000D01*
X147500000Y-85000000D02*
X147500000Y-105000000D01*
X147500000Y-105000000D02*
X129500000Y-105000000D01*
X129500000Y-105000000D02*
X129500000Y-85000000D01*
X139300000Y-82800000D02*
X137700000Y-82800000D01*
X137700000Y-82800000D02*
X137700000Y-79200000D01*
X137700000Y-79200000D02*
X139300000Y-79200000D01*
X139300000Y-79200000D02*
X139300000Y-82800000D01*
X147750000Y-82750000D02*
X146150000Y-82750000D01*
X146150000Y-82750000D02*
X146150000Y-79150000D01*
X146150000Y-79150000D02*
X147750000Y-79150000D01*
X147750000Y-79150000D02*
X147750000Y-82750000D01*
X136250000Y-82850000D02*
X134650000Y-82850000D01*
X134650000Y-82850000D02*
X134650000Y-79250000D01*
X134650000Y-79250000D02*
X136250000Y-79250000D01*
X136250000Y-79250000D02*
X136250000Y-82850000D01*
X141150000Y-82150000D02*
X139950000Y-82150000D01*
X139950000Y-82150000D02*
X139950000Y-79750000D01*
X139950000Y-79750000D02*
X141150000Y-79750000D01*
X141150000Y-79750000D02*
X141150000Y-82150000D01*
X144900000Y-77900000D02*
X144900000Y-79100000D01*
X144900000Y-79100000D02*
X142500000Y-79100000D01*
X142500000Y-79100000D02*
X142500000Y-77900000D01*
X142500000Y-77900000D02*
X144900000Y-77900000D01*
X144050000Y-79250000D02*
G75*
G03X144050000Y-79250000I-100000J0D01*
G01*
X143400000Y-79500000D02*
X143900000Y-79500000D01*
X143400000Y-82400000D02*
X143400000Y-79500000D01*
X143900000Y-82400000D02*
X143400000Y-82400000D01*
X143900000Y-79500000D02*
X143900000Y-82400000D01*
X131074000Y-76294000D02*
X134122000Y-76294000D01*
X134122000Y-76294000D02*
X134122000Y-83406000D01*
X134122000Y-83406000D02*
X131074000Y-83406000D01*
X128026000Y-76294000D02*
X127264000Y-76294000D01*
X127264000Y-76294000D02*
X124978000Y-77818000D01*
X124978000Y-77818000D02*
X124978000Y-81882000D01*
X124978000Y-81882000D02*
X127264000Y-83406000D01*
X127264000Y-83406000D02*
X128026000Y-83406000D01*
X139261905Y-83702381D02*
X139261905Y-84511905D01*
X139214286Y-84607143D01*
X139166667Y-84654762D01*
X139071429Y-84702381D01*
X138880952Y-84702381D01*
X138785714Y-84654762D01*
X138738095Y-84607143D01*
X138690476Y-84511905D01*
X138690476Y-83702381D01*
X138261905Y-83797619D02*
X138214286Y-83750000D01*
X138119048Y-83702381D01*
X137880952Y-83702381D01*
X137785714Y-83750000D01*
X137738095Y-83797619D01*
X137690476Y-83892857D01*
X137690476Y-83988095D01*
X137738095Y-84130952D01*
X138309524Y-84702381D01*
X137690476Y-84702381D01*
X138666666Y-78857143D02*
X138714285Y-78904762D01*
X138857142Y-78952381D01*
X138952380Y-78952381D01*
X139095238Y-78904762D01*
X139190476Y-78809524D01*
X139238095Y-78714286D01*
X139285714Y-78523810D01*
X139285714Y-78380952D01*
X139238095Y-78190476D01*
X139190476Y-78095238D01*
X139095238Y-78000000D01*
X138952380Y-77952381D01*
X138857142Y-77952381D01*
X138714285Y-78000000D01*
X138666666Y-78047619D01*
X137714285Y-78952381D02*
X138285714Y-78952381D01*
X138000000Y-78952381D02*
X138000000Y-77952381D01*
X138095238Y-78095238D01*
X138190476Y-78190476D01*
X138285714Y-78238095D01*
X147166666Y-83857143D02*
X147214285Y-83904762D01*
X147357142Y-83952381D01*
X147452380Y-83952381D01*
X147595238Y-83904762D01*
X147690476Y-83809524D01*
X147738095Y-83714286D01*
X147785714Y-83523810D01*
X147785714Y-83380952D01*
X147738095Y-83190476D01*
X147690476Y-83095238D01*
X147595238Y-83000000D01*
X147452380Y-82952381D01*
X147357142Y-82952381D01*
X147214285Y-83000000D01*
X147166666Y-83047619D01*
X146785714Y-83047619D02*
X146738095Y-83000000D01*
X146642857Y-82952381D01*
X146404761Y-82952381D01*
X146309523Y-83000000D01*
X146261904Y-83047619D01*
X146214285Y-83142857D01*
X146214285Y-83238095D01*
X146261904Y-83380952D01*
X146833333Y-83952381D01*
X146214285Y-83952381D01*
X135666666Y-78857143D02*
X135714285Y-78904762D01*
X135857142Y-78952381D01*
X135952380Y-78952381D01*
X136095238Y-78904762D01*
X136190476Y-78809524D01*
X136238095Y-78714286D01*
X136285714Y-78523810D01*
X136285714Y-78380952D01*
X136238095Y-78190476D01*
X136190476Y-78095238D01*
X136095238Y-78000000D01*
X135952380Y-77952381D01*
X135857142Y-77952381D01*
X135714285Y-78000000D01*
X135666666Y-78047619D01*
X135333333Y-77952381D02*
X134714285Y-77952381D01*
X135047619Y-78333333D01*
X134904761Y-78333333D01*
X134809523Y-78380952D01*
X134761904Y-78428571D01*
X134714285Y-78523810D01*
X134714285Y-78761905D01*
X134761904Y-78857143D01*
X134809523Y-78904762D01*
X134904761Y-78952381D01*
X135190476Y-78952381D01*
X135285714Y-78904762D01*
X135333333Y-78857143D01*
X140666666Y-79452381D02*
X141000000Y-78976190D01*
X141238095Y-79452381D02*
X141238095Y-78452381D01*
X140857142Y-78452381D01*
X140761904Y-78500000D01*
X140714285Y-78547619D01*
X140666666Y-78642857D01*
X140666666Y-78785714D01*
X140714285Y-78880952D01*
X140761904Y-78928571D01*
X140857142Y-78976190D01*
X141238095Y-78976190D01*
X139714285Y-79452381D02*
X140285714Y-79452381D01*
X140000000Y-79452381D02*
X140000000Y-78452381D01*
X140095238Y-78595238D01*
X140190476Y-78690476D01*
X140285714Y-78738095D01*
X143916666Y-77702381D02*
X144250000Y-77226190D01*
X144488095Y-77702381D02*
X144488095Y-76702381D01*
X144107142Y-76702381D01*
X144011904Y-76750000D01*
X143964285Y-76797619D01*
X143916666Y-76892857D01*
X143916666Y-77035714D01*
X143964285Y-77130952D01*
X144011904Y-77178571D01*
X144107142Y-77226190D01*
X144488095Y-77226190D01*
X143583333Y-76702381D02*
X142916666Y-76702381D01*
X143345238Y-77702381D01*
X144511905Y-82702381D02*
X144511905Y-83511905D01*
X144464286Y-83607143D01*
X144416667Y-83654762D01*
X144321429Y-83702381D01*
X144130952Y-83702381D01*
X144035714Y-83654762D01*
X143988095Y-83607143D01*
X143940476Y-83511905D01*
X143940476Y-82702381D01*
X142940476Y-83702381D02*
X143511905Y-83702381D01*
X143226191Y-83702381D02*
X143226191Y-82702381D01*
X143321429Y-82845238D01*
X143416667Y-82940476D01*
X143511905Y-82988095D01*
X130261905Y-74952381D02*
X130261905Y-75761905D01*
X130214286Y-75857143D01*
X130166667Y-75904762D01*
X130071429Y-75952381D01*
X129880952Y-75952381D01*
X129785714Y-75904762D01*
X129738095Y-75857143D01*
X129690476Y-75761905D01*
X129690476Y-74952381D01*
X129309524Y-74952381D02*
X128690476Y-74952381D01*
X129023810Y-75333333D01*
X128880952Y-75333333D01*
X128785714Y-75380952D01*
X128738095Y-75428571D01*
X128690476Y-75523810D01*
X128690476Y-75761905D01*
X128738095Y-75857143D01*
X128785714Y-75904762D01*
X128880952Y-75952381D01*
X129166667Y-75952381D01*
X129261905Y-75904762D01*
X129309524Y-75857143D01*
%LPC*%
D12*
X129500000Y-98500000D03*
X129500000Y-97000000D03*
X129500000Y-95500000D03*
X129500000Y-94000000D03*
X129500000Y-92500000D03*
X129500000Y-91000000D03*
X129500000Y-89500000D03*
X129500000Y-88000000D03*
X129500000Y-86500000D03*
X147500000Y-86500000D03*
X147500000Y-88000000D03*
X147500000Y-89500000D03*
X147500000Y-91000000D03*
X147500000Y-92500000D03*
X147500000Y-94000000D03*
X147500000Y-95500000D03*
X147500000Y-97000000D03*
X147500000Y-98500000D03*
D13*
X138500000Y-82000000D03*
X138500000Y-80000000D03*
X146950000Y-81950000D03*
X146950000Y-79950000D03*
X135450000Y-82050000D03*
X135450000Y-80050000D03*
D14*
X140550000Y-81675000D03*
X140550000Y-80225000D03*
D15*
X144425000Y-78500000D03*
X142975000Y-78500000D03*
D16*
X150000000Y-82000000D03*
X150000000Y-79460000D03*
X150000000Y-84540000D03*
D17*
X144750000Y-80000000D03*
X144750000Y-80950000D03*
X144750000Y-81900000D03*
X142550000Y-81900000D03*
X142550000Y-80000000D03*
D18*
X126248000Y-79850000D03*
D19*
X132852000Y-79850000D03*
X132852000Y-82136000D03*
X132852000Y-77564000D03*
D20*
X150500000Y-87460000D03*
X150500000Y-88730000D03*
X150500000Y-90000000D03*
X150500000Y-91270000D03*
X150500000Y-92540000D03*
M02*
